{"glyphs":{"0":{"ha":793,"x_min":79,"x_max":712,"o":"m 712 498 q 693 279 712 374 q 635 118 674 183 q 537 20 597 53 q 396 -14 477 -14 q 222 44 293 -14 q 116 216 152 102 q 79 498 79 330 q 110 764 79 649 q 211 943 141 878 q 397 1007 281 1007 q 582 944 512 1007 q 682 767 651 881 q 712 498 712 652 m 149 498 q 175 246 149 346 q 256 96 201 146 q 396 47 311 47 q 538 96 484 47 q 617 246 592 146 q 643 498 643 347 q 621 739 643 638 q 545 892 599 839 q 397 946 492 946 q 250 891 304 946 q 172 736 195 836 q 149 498 149 635 z "},"1":{"ha":793,"x_min":135,"x_max":463,"o":"m 463 0 l 395 0 l 395 749 q 395 819 395 789 q 396 873 395 849 q 398 919 397 897 q 363 887 380 901 q 319 852 346 873 l 173 741 l 135 790 l 405 991 l 463 991 l 463 0 z "},"2":{"ha":793,"x_min":77,"x_max":697,"o":"m 697 0 l 77 0 l 77 58 l 368 362 q 486 493 438 435 q 558 611 534 552 q 583 743 583 670 q 527 892 583 839 q 376 945 471 945 q 252 922 311 945 q 136 854 193 899 l 98 902 q 185 959 140 936 q 279 994 231 982 q 376 1006 328 1006 q 523 974 460 1006 q 619 883 585 941 q 654 746 654 825 q 626 598 654 665 q 546 469 597 532 q 424 334 494 406 l 165 66 l 165 64 l 697 64 l 697 0 z "},"3":{"ha":793,"x_min":64,"x_max":696,"o":"m 665 763 q 638 647 665 697 q 564 565 611 597 q 456 522 517 533 l 456 517 q 634 441 572 503 q 696 274 696 380 q 656 125 696 191 q 538 23 617 60 q 340 -14 459 -14 q 190 1 259 -14 q 64 43 121 16 l 64 110 q 194 64 120 82 q 340 46 267 46 q 554 108 484 46 q 624 275 624 170 q 587 396 624 351 q 482 463 549 442 q 323 484 414 484 l 215 484 l 215 545 l 324 545 q 462 569 401 545 q 558 641 523 593 q 594 760 594 688 q 535 899 594 852 q 379 945 477 945 q 281 935 327 945 q 193 903 235 924 q 109 853 151 882 l 73 903 q 208 977 132 947 q 378 1006 284 1006 q 589 941 513 1006 q 665 763 665 876 z "},"4":{"ha":793,"x_min":33,"x_max":774,"o":"m 774 253 l 603 253 l 603 0 l 536 0 l 536 253 l 33 253 l 33 307 l 531 997 l 603 997 l 603 316 l 774 316 l 774 253 m 536 316 l 536 697 q 536 770 536 739 q 537 825 536 800 q 538 873 538 850 q 540 920 539 896 l 536 920 q 500 860 517 888 q 458 798 484 833 l 108 316 l 536 316 z "},"5":{"ha":793,"x_min":98,"x_max":707,"o":"m 381 597 q 554 564 481 597 q 667 465 627 530 q 707 307 707 400 q 663 136 707 208 q 538 25 618 64 q 349 -14 458 -14 q 206 2 270 -14 q 98 43 142 17 l 98 112 q 211 65 145 83 q 349 47 277 47 q 500 76 436 47 q 601 163 565 106 q 636 302 636 220 q 569 475 636 413 q 366 537 502 537 q 260 529 311 537 q 166 510 210 522 l 127 538 l 167 991 l 643 991 l 643 928 l 226 928 l 195 574 q 272 590 226 582 q 381 597 319 597 z "},"6":{"ha":793,"x_min":87,"x_max":719,"o":"m 87 422 q 105 626 87 534 q 156 788 122 718 q 241 908 190 859 q 362 982 293 957 q 517 1007 431 1007 q 589 1003 555 1007 q 648 991 623 999 l 648 929 q 590 943 623 938 q 519 948 557 948 q 323 894 402 948 q 202 733 243 840 q 155 469 160 627 l 160 469 q 215 538 180 505 q 304 593 251 572 q 430 614 357 614 q 584 578 519 614 q 684 475 649 542 q 719 315 719 408 q 683 142 719 216 q 578 27 646 68 q 414 -14 510 -14 q 272 20 333 -14 q 170 113 211 53 q 108 251 129 172 q 87 422 87 330 m 414 46 q 588 116 526 46 q 650 315 650 186 q 593 491 650 427 q 420 556 536 556 q 282 524 340 556 q 193 445 224 492 q 162 353 162 398 q 174 258 162 310 q 216 157 186 205 q 293 77 245 109 q 414 46 342 46 z "},"7":{"ha":793,"x_min":73,"x_max":715,"o":"m 230 0 l 640 928 l 73 928 l 73 991 l 715 991 l 715 941 l 305 0 l 230 0 z "},"8":{"ha":793,"x_min":81,"x_max":709,"o":"m 395 1006 q 542 979 479 1006 q 641 900 606 951 q 676 775 676 848 q 649 669 676 715 q 573 590 621 624 q 461 528 525 555 q 591 463 536 500 q 678 374 647 425 q 709 254 709 323 q 667 110 709 170 q 555 18 626 50 q 392 -14 484 -14 q 227 18 297 -14 q 119 109 157 50 q 81 246 81 168 q 112 372 81 319 q 197 462 142 425 q 320 525 251 499 q 216 583 263 550 q 141 662 169 615 q 113 774 113 708 q 149 898 113 846 q 249 978 185 949 q 395 1006 313 1006 m 149 246 q 214 100 149 155 q 391 45 278 45 q 572 99 503 45 q 640 253 640 153 q 614 351 640 309 q 538 425 588 393 q 417 483 488 457 l 385 495 q 262 437 315 470 q 179 358 210 404 q 149 246 149 312 m 394 947 q 241 901 301 947 q 181 772 181 856 q 209 676 181 715 q 286 609 237 637 q 399 557 335 581 q 512 614 465 584 q 583 682 558 644 q 607 774 607 721 q 550 903 607 859 q 394 947 493 947 z "},"9":{"ha":793,"x_min":74,"x_max":705,"o":"m 705 572 q 688 368 705 460 q 637 204 671 275 q 551 83 603 132 q 431 9 500 35 q 275 -16 361 -16 q 199 -11 239 -16 q 134 1 160 -7 l 134 64 q 197 50 159 56 q 274 43 235 43 q 469 98 390 43 q 591 260 549 153 q 637 524 633 367 l 632 524 q 577 454 613 488 q 487 399 541 420 q 361 378 433 378 q 207 414 271 378 q 108 518 142 450 q 74 678 74 585 q 111 850 74 777 q 215 965 147 924 q 378 1006 283 1006 q 522 973 461 1006 q 624 881 583 940 q 685 743 665 821 q 705 572 705 664 m 378 945 q 205 876 267 945 q 143 679 143 806 q 200 501 143 566 q 372 435 256 435 q 510 468 452 435 q 599 547 568 500 q 631 641 631 595 q 618 735 631 683 q 577 835 606 787 q 499 914 548 883 q 378 945 451 945 z "},"\u0000":{"ha":0,"x_min":0,"x_max":0,"o":""},"\r":{"ha":361,"x_min":0,"x_max":0,"o":""}," ":{"ha":361,"x_min":0,"x_max":0,"o":""},"!":{"ha":334,"x_min":111,"x_max":221,"o":"m 193 256 l 142 256 l 127 991 l 208 991 l 193 256 m 111 48 q 125 94 111 78 q 165 110 138 110 q 208 94 194 110 q 221 48 221 78 q 208 2 221 18 q 165 -14 194 -14 q 125 2 138 -14 q 111 48 111 18 z "},"\"":{"ha":490,"x_min":98,"x_max":393,"o":"m 171 991 l 157 633 l 111 633 l 98 991 l 171 991 m 393 991 l 379 633 l 334 633 l 319 991 l 393 991 z "},"#":{"ha":897,"x_min":37,"x_max":860,"o":"m 655 628 l 604 361 l 808 361 l 808 306 l 593 306 l 534 0 l 475 0 l 535 306 l 288 306 l 229 0 l 171 0 l 229 306 l 37 306 l 37 361 l 239 361 l 291 628 l 90 628 l 90 683 l 301 683 l 360 991 l 419 991 l 360 683 l 608 683 l 667 991 l 725 991 l 666 683 l 860 683 l 860 628 l 655 628 m 298 361 l 545 361 l 597 628 l 350 628 l 298 361 z "},"$":{"ha":793,"x_min":87,"x_max":676,"o":"m 351 -81 l 351 34 q 201 47 268 35 q 90 77 135 60 l 90 146 q 208 112 138 126 q 351 96 277 98 l 351 477 q 213 535 273 504 q 121 612 154 566 q 87 730 87 659 q 121 851 87 802 q 215 929 155 901 q 351 960 275 956 l 351 1054 l 406 1054 l 406 961 q 526 947 468 960 q 638 909 584 934 l 614 851 q 508 886 562 874 q 406 900 454 898 l 406 527 q 550 469 489 499 q 643 393 610 438 q 676 276 676 349 q 602 106 676 166 q 406 36 528 45 l 406 -81 l 351 -81 m 406 99 q 553 148 498 105 q 608 274 608 191 q 585 356 608 323 q 517 412 562 388 q 406 458 472 435 l 406 99 m 351 546 l 351 899 q 250 877 294 896 q 181 822 205 857 q 156 735 156 787 q 181 646 156 681 q 250 588 205 612 q 351 546 294 565 z "},"%":{"ha":1121,"x_min":77,"x_max":1044,"o":"m 272 1006 q 420 926 371 1006 q 469 696 469 846 q 418 463 469 543 q 271 383 367 383 q 126 464 176 383 q 77 696 77 545 q 127 926 77 847 q 272 1006 178 1006 m 272 951 q 173 888 207 951 q 138 696 138 824 q 172 503 138 568 q 271 437 205 437 q 373 504 339 437 q 408 696 408 570 q 375 886 408 821 q 272 951 342 951 m 868 991 l 318 0 l 254 0 l 804 991 l 868 991 m 848 608 q 995 528 946 608 q 1044 298 1044 448 q 994 66 1044 145 q 846 -14 943 -14 q 702 67 752 -14 q 652 298 652 147 q 703 529 652 450 q 848 608 753 608 m 848 554 q 748 491 783 554 q 714 298 714 427 q 748 106 714 171 q 846 41 781 41 q 949 106 915 41 q 983 298 983 172 q 951 489 983 424 q 848 554 918 554 z "},"&":{"ha":991,"x_min":82,"x_max":959,"o":"m 422 1007 q 541 982 490 1007 q 620 911 591 958 q 648 802 648 865 q 586 648 648 709 q 425 537 525 588 l 736 226 q 805 336 776 273 q 851 471 834 398 l 921 471 q 865 311 900 384 q 781 180 829 239 l 959 0 l 867 0 l 736 135 q 643 58 692 92 q 531 5 593 24 q 389 -14 469 -14 q 228 17 297 -14 q 121 107 159 47 q 82 252 82 166 q 111 379 82 328 q 193 471 139 431 q 321 549 246 511 q 249 630 280 592 q 200 707 218 667 q 183 797 183 747 q 213 908 183 861 q 297 981 243 956 q 422 1007 351 1007 m 365 505 q 250 437 297 471 q 178 361 203 404 q 154 254 154 318 q 219 103 154 157 q 390 48 283 48 q 566 84 496 48 q 692 178 635 121 l 365 505 m 420 948 q 297 907 342 948 q 252 797 252 867 q 285 690 252 739 q 379 579 318 642 q 528 676 476 626 q 579 802 579 727 q 536 908 579 869 q 420 948 492 948 z "},"'":{"ha":267,"x_min":98,"x_max":171,"o":"m 171 991 l 157 633 l 111 633 l 98 991 l 171 991 z "},"(":{"ha":378,"x_min":57,"x_max":332,"o":"m 57 380 q 80 610 57 500 q 149 817 104 720 q 260 991 194 913 l 332 991 q 178 710 229 866 q 127 382 127 553 q 150 163 127 269 q 218 -39 173 58 q 331 -220 264 -135 l 260 -220 q 149 -46 194 -140 q 80 155 104 48 q 57 380 57 262 z "},")":{"ha":378,"x_min":47,"x_max":321,"o":"m 321 388 q 298 159 321 269 q 230 -46 275 50 q 119 -220 184 -142 l 47 -220 q 162 -38 117 -136 q 229 166 207 59 q 252 387 252 273 q 229 607 252 500 q 161 810 206 713 q 47 991 115 907 l 119 991 q 230 817 184 911 q 298 614 275 722 q 321 388 321 506 z "},"*":{"ha":765,"x_min":75,"x_max":684,"o":"m 417 1054 l 401 774 l 670 863 l 684 791 l 418 734 l 589 511 l 524 471 l 378 710 l 239 472 l 172 511 l 342 734 l 75 791 l 90 863 l 357 774 l 341 1054 l 417 1054 z "},"+":{"ha":793,"x_min":74,"x_max":718,"o":"m 425 519 l 718 519 l 718 460 l 425 460 l 425 165 l 366 165 l 366 460 l 74 460 l 74 519 l 366 519 l 366 816 l 425 816 l 425 519 z "},",":{"ha":298,"x_min":54,"x_max":208,"o":"m 202 161 l 208 145 q 181 38 197 94 q 147 -74 165 -18 q 107 -179 128 -130 l 54 -179 q 86 -59 72 -117 q 111 55 100 0 q 129 161 122 111 l 202 161 z "},"-":{"ha":447,"x_min":56,"x_max":392,"o":"m 56 344 l 56 407 l 392 407 l 392 344 l 56 344 z "},".":{"ha":331,"x_min":111,"x_max":221,"o":"m 111 48 q 125 94 111 78 q 165 110 138 110 q 208 94 194 110 q 221 48 221 78 q 208 2 221 18 q 165 -14 194 -14 q 125 2 138 -14 q 111 48 111 18 z "},"/":{"ha":473,"x_min":16,"x_max":456,"o":"m 456 991 l 86 0 l 16 0 l 387 991 l 456 991 z "},":":{"ha":331,"x_min":111,"x_max":221,"o":"m 111 48 q 125 94 111 78 q 165 110 138 110 q 208 94 194 110 q 221 48 221 78 q 208 2 221 18 q 165 -14 194 -14 q 125 2 138 -14 q 111 48 111 18 m 111 686 q 125 732 111 716 q 165 748 138 748 q 208 732 194 748 q 221 686 221 716 q 208 640 221 656 q 165 624 194 624 q 125 640 138 624 q 111 686 111 656 z "},";":{"ha":331,"x_min":50,"x_max":220,"o":"m 197 161 l 204 145 q 177 38 193 95 q 142 -74 161 -18 q 103 -179 123 -130 l 50 -179 q 81 -59 67 -117 q 106 55 95 0 q 125 161 117 111 l 197 161 m 110 686 q 123 732 110 716 q 163 748 137 748 q 207 732 193 748 q 220 686 220 716 q 207 640 220 656 q 163 624 193 624 q 123 640 137 624 q 110 686 110 656 z "},"<":{"ha":793,"x_min":75,"x_max":718,"o":"m 718 180 l 75 475 l 75 517 l 718 825 l 718 762 l 154 497 l 718 243 l 718 180 z "},"=":{"ha":793,"x_min":77,"x_max":715,"o":"m 77 601 l 77 659 l 715 659 l 715 601 l 77 601 m 77 320 l 77 378 l 715 378 l 715 320 l 77 320 z "},">":{"ha":793,"x_min":75,"x_max":718,"o":"m 75 243 l 638 497 l 75 762 l 75 825 l 718 517 l 718 475 l 75 180 l 75 243 z "},"?":{"ha":585,"x_min":39,"x_max":537,"o":"m 198 256 l 198 280 q 208 385 198 343 q 243 460 218 427 q 315 530 269 494 q 401 601 367 568 q 453 672 435 634 q 470 766 470 711 q 415 900 470 856 q 269 944 360 944 q 162 930 212 944 q 64 892 113 917 l 39 951 q 152 992 98 978 q 272 1006 205 1006 q 466 944 395 1006 q 537 767 537 883 q 515 653 537 701 q 454 568 493 606 q 361 490 414 530 q 298 431 321 460 q 266 366 275 402 q 256 275 256 329 l 256 256 l 198 256 m 176 48 q 190 94 176 78 q 231 110 203 110 q 273 94 259 110 q 286 48 286 78 q 273 2 286 18 q 231 -14 259 -14 q 190 2 203 -14 q 176 48 176 18 z "},"@":{"ha":1230,"x_min":75,"x_max":1155,"o":"m 1155 491 q 1141 361 1155 422 q 1100 252 1128 299 q 1029 177 1072 204 q 929 150 987 150 q 828 187 867 150 q 785 286 789 224 l 781 286 q 697 184 752 218 q 574 150 643 150 q 414 216 471 150 q 358 400 358 282 q 395 560 358 490 q 498 670 432 630 q 653 710 564 710 q 757 702 707 710 q 844 680 806 693 l 832 448 q 830 397 831 423 q 828 347 828 371 q 854 238 828 273 q 932 203 880 203 q 1023 241 987 203 q 1077 344 1059 279 q 1095 491 1095 409 q 1043 724 1095 625 q 892 875 990 822 q 656 928 793 928 q 442 892 538 928 q 278 786 347 855 q 173 617 210 716 q 136 394 136 519 q 189 141 136 247 q 342 -21 242 35 q 585 -77 443 -77 q 734 -61 661 -77 q 872 -19 808 -45 l 872 -79 q 741 -119 812 -104 q 585 -134 669 -134 q 312 -70 427 -134 q 137 112 198 -6 q 75 393 75 230 q 117 639 75 530 q 235 826 158 749 q 418 944 311 903 q 656 985 525 985 q 920 924 808 985 q 1093 753 1031 864 q 1155 491 1155 643 m 422 399 q 463 253 422 303 q 581 203 503 203 q 717 264 670 203 q 770 442 764 325 l 780 637 q 723 650 755 646 q 654 655 691 655 q 529 622 581 655 q 450 531 477 589 q 422 399 422 473 z "},"A":{"ha":834,"x_min":0,"x_max":833,"o":"m 760 0 l 625 351 l 209 351 l 71 0 l 0 0 l 390 995 l 454 995 l 833 0 l 760 0 m 603 414 l 466 785 q 453 822 460 800 q 436 869 445 844 q 420 917 428 895 q 405 869 413 893 q 389 824 397 846 q 375 784 382 802 l 233 414 l 603 414 z "},"B":{"ha":871,"x_min":140,"x_max":794,"o":"m 140 991 l 412 991 q 681 934 595 991 q 766 750 766 876 q 744 646 766 693 q 679 568 722 600 q 572 525 635 536 l 572 520 q 697 478 648 509 q 770 399 746 448 q 794 282 794 350 q 750 122 794 184 q 627 30 705 60 q 445 0 548 0 l 140 0 l 140 991 m 210 551 l 429 551 q 631 600 569 551 q 694 744 694 648 q 627 886 694 843 q 412 930 559 930 l 210 930 l 210 551 m 210 490 l 210 62 l 443 62 q 650 118 581 62 q 720 285 720 174 q 688 403 720 358 q 590 469 655 448 q 429 490 526 490 l 210 490 z "},"C":{"ha":862,"x_min":86,"x_max":819,"o":"m 561 943 q 391 910 466 943 q 265 819 317 878 q 186 679 214 760 q 159 498 159 597 q 202 261 159 363 q 331 104 245 160 q 545 49 416 49 q 680 60 619 49 q 793 89 741 71 l 793 28 q 682 -2 744 9 q 538 -14 620 -14 q 289 50 389 -14 q 137 229 188 114 q 86 498 86 345 q 118 702 86 609 q 211 862 150 794 q 361 968 273 930 q 562 1006 449 1006 q 697 992 633 1006 q 819 951 762 978 l 792 890 q 680 930 737 918 q 561 943 622 943 z "},"D":{"ha":981,"x_min":140,"x_max":894,"o":"m 894 505 q 835 227 894 339 q 662 57 777 114 q 377 0 547 0 l 140 0 l 140 991 l 408 991 q 675 936 567 991 q 838 772 783 880 q 894 505 894 664 m 821 503 q 774 739 821 644 q 633 882 728 834 q 393 930 538 930 l 210 930 l 210 62 l 374 62 q 709 172 598 62 q 821 503 821 282 z "},"E":{"ha":767,"x_min":140,"x_max":682,"o":"m 682 0 l 140 0 l 140 991 l 682 991 l 682 928 l 210 928 l 210 553 l 655 553 l 655 490 l 210 490 l 210 63 l 682 63 l 682 0 z "},"F":{"ha":698,"x_min":140,"x_max":682,"o":"m 210 0 l 140 0 l 140 991 l 682 991 l 682 928 l 210 928 l 210 506 l 656 506 l 656 444 l 210 444 l 210 0 z "},"G":{"ha":1004,"x_min":86,"x_max":895,"o":"m 531 500 l 895 500 l 895 45 q 743 1 824 16 q 572 -14 663 -14 q 306 46 414 -14 q 142 220 197 106 q 86 494 86 334 q 147 760 86 644 q 321 941 208 876 q 592 1007 434 1007 q 746 992 673 1007 q 883 947 818 977 l 855 885 q 724 930 791 915 q 589 945 657 945 q 358 887 454 945 q 210 729 261 830 q 159 495 159 627 q 208 246 159 345 q 353 98 258 147 q 585 48 448 48 q 719 59 659 48 q 826 87 778 70 l 826 437 l 531 437 l 531 500 z "},"H":{"ha":999,"x_min":140,"x_max":859,"o":"m 859 0 l 789 0 l 789 488 l 210 488 l 210 0 l 140 0 l 140 991 l 210 991 l 210 552 l 789 552 l 789 991 l 859 991 l 859 0 z "},"I":{"ha":350,"x_min":140,"x_max":210,"o":"m 140 0 l 140 991 l 210 991 l 210 0 l 140 0 z "},"J":{"ha":342,"x_min":-125,"x_max":210,"o":"m -18 -250 q -81 -245 -55 -250 q -125 -233 -108 -240 l -125 -169 q -78 -181 -106 -176 q -20 -186 -50 -186 q 71 -164 35 -186 q 123 -100 106 -142 q 140 6 140 -57 l 140 991 l 210 991 l 210 7 q 185 -129 210 -71 q 110 -218 160 -187 q -18 -250 60 -250 z "},"K":{"ha":807,"x_min":140,"x_max":807,"o":"m 807 0 l 722 0 l 338 523 l 210 399 l 210 0 l 140 0 l 140 991 l 210 991 l 210 470 q 262 527 235 498 q 317 586 290 556 l 709 991 l 795 991 l 390 572 l 807 0 z "},"L":{"ha":712,"x_min":140,"x_max":682,"o":"m 140 0 l 140 991 l 210 991 l 210 64 l 682 64 l 682 0 l 140 0 z "},"M":{"ha":1199,"x_min":140,"x_max":1058,"o":"m 569 0 l 205 916 l 201 916 q 204 863 203 890 q 205 806 205 836 q 206 743 206 776 l 206 0 l 140 0 l 140 991 l 245 991 l 597 109 l 601 109 l 955 991 l 1058 991 l 1058 0 l 989 0 l 989 751 q 990 806 989 778 q 992 861 991 833 q 994 914 993 888 l 990 914 l 625 0 l 569 0 z "},"N":{"ha":1002,"x_min":140,"x_max":861,"o":"m 861 0 l 790 0 l 204 877 l 201 877 q 203 803 202 840 q 205 725 204 765 q 206 644 206 686 l 206 0 l 140 0 l 140 991 l 212 991 l 795 117 l 799 117 q 797 186 798 147 q 795 267 796 226 q 794 345 794 309 l 794 991 l 861 991 l 861 0 z "},"O":{"ha":1061,"x_min":86,"x_max":974,"o":"m 974 497 q 946 290 974 384 q 863 129 918 197 q 724 24 807 61 q 530 -14 641 -14 q 336 24 419 -14 q 197 129 252 61 q 114 291 142 197 q 86 498 86 385 q 137 764 86 649 q 289 943 189 878 q 536 1007 389 1007 q 775 946 677 1007 q 923 770 873 884 q 974 497 974 656 m 159 498 q 199 263 159 365 q 322 105 239 162 q 531 48 405 48 q 741 104 659 48 q 862 262 823 161 q 901 497 901 363 q 809 827 901 709 q 536 944 716 944 q 325 888 409 944 q 200 731 241 831 q 159 498 159 631 z "},"P":{"ha":812,"x_min":140,"x_max":736,"o":"m 383 991 q 648 924 560 991 q 736 713 736 856 q 713 583 736 640 q 643 488 690 526 q 526 429 596 449 q 362 410 456 410 l 210 410 l 210 0 l 140 0 l 140 991 l 383 991 m 376 930 l 210 930 l 210 471 l 355 471 q 521 493 452 471 q 627 568 590 515 q 665 710 665 620 q 594 877 665 825 q 376 930 524 930 z "},"Q":{"ha":1061,"x_min":86,"x_max":974,"o":"m 974 497 q 938 266 974 370 q 830 93 902 162 q 651 1 759 24 l 863 -236 l 765 -236 l 575 -12 q 553 -13 564 -12 q 530 -14 542 -14 q 336 24 419 -14 q 197 129 252 61 q 114 291 142 197 q 86 498 86 385 q 137 764 86 649 q 289 943 189 878 q 536 1007 389 1007 q 775 946 677 1007 q 923 770 873 884 q 974 497 974 656 m 159 498 q 199 263 159 365 q 322 105 239 162 q 531 48 405 48 q 741 104 659 48 q 862 262 823 161 q 901 497 901 363 q 809 827 901 709 q 536 944 716 944 q 325 888 409 944 q 200 731 241 831 q 159 498 159 631 z "},"R":{"ha":825,"x_min":140,"x_max":794,"o":"m 380 991 q 577 966 498 991 q 696 881 656 940 q 736 722 736 822 q 709 592 736 646 q 633 504 682 538 q 522 451 585 469 l 794 0 l 711 0 l 456 431 l 210 431 l 210 0 l 140 0 l 140 991 l 380 991 m 374 930 l 210 930 l 210 493 l 407 493 q 596 551 528 493 q 665 719 665 610 q 593 884 665 839 q 374 930 521 930 z "},"S":{"ha":758,"x_min":75,"x_max":686,"o":"m 686 256 q 641 107 686 167 q 519 17 596 47 q 346 -14 443 -14 q 236 -8 286 -14 q 148 7 187 -2 q 75 29 108 17 l 75 99 q 198 63 128 79 q 349 48 267 48 q 487 71 427 48 q 581 138 547 93 q 616 253 616 184 q 587 353 616 314 q 500 420 558 392 q 355 477 443 448 q 244 522 294 498 q 159 576 195 545 q 105 651 124 607 q 87 754 87 694 q 129 892 87 836 q 242 977 170 948 q 403 1006 313 1006 q 538 992 474 1006 q 662 953 602 979 l 637 892 q 518 930 578 918 q 400 943 458 943 q 276 922 330 943 q 189 860 221 901 q 157 755 157 819 q 187 650 157 690 q 271 584 216 610 q 400 532 326 557 q 552 470 488 503 q 651 387 616 437 q 686 256 686 336 z "},"T":{"ha":728,"x_min":7,"x_max":720,"o":"m 399 0 l 328 0 l 328 928 l 7 928 l 7 991 l 720 991 l 720 928 l 399 928 l 399 0 z "},"U":{"ha":999,"x_min":130,"x_max":870,"o":"m 870 991 l 870 350 q 825 153 870 234 q 697 29 781 72 q 496 -14 613 -14 q 224 82 319 -14 q 130 353 130 178 l 130 991 l 199 991 l 199 353 q 276 126 199 203 q 500 48 354 48 q 663 82 595 48 q 765 183 730 117 q 800 343 800 249 l 800 991 l 870 991 z "},"V":{"ha":802,"x_min":0,"x_max":802,"o":"m 802 991 l 435 0 l 366 0 l 0 991 l 73 991 l 345 258 q 366 196 356 226 q 385 138 376 165 q 401 84 394 110 q 416 137 408 110 q 435 194 425 163 q 457 258 445 224 l 728 991 l 802 991 z "},"W":{"ha":1239,"x_min":35,"x_max":1206,"o":"m 1206 991 l 935 0 l 867 0 l 655 749 q 642 794 648 772 q 631 834 636 815 q 622 871 626 854 q 614 903 617 888 q 609 872 612 888 q 602 840 606 857 q 593 804 597 823 q 583 766 588 786 l 371 0 l 302 0 l 35 991 l 107 991 l 294 292 q 308 239 301 264 q 319 191 314 214 q 330 145 325 168 q 339 101 335 123 q 349 146 344 123 q 359 193 353 170 q 371 242 365 217 q 386 296 378 268 l 581 991 l 650 991 l 852 292 q 867 237 861 262 q 880 188 874 211 q 890 142 885 164 q 899 98 895 120 q 910 158 905 128 q 924 220 916 187 q 943 291 932 252 l 1133 991 l 1206 991 z "},"X":{"ha":747,"x_min":-1,"x_max":747,"o":"m 747 0 l 667 0 l 374 465 l 76 0 l -1 0 l 333 515 l 29 991 l 109 991 l 376 565 l 646 991 l 723 991 l 417 516 l 747 0 z "},"Y":{"ha":733,"x_min":0,"x_max":733,"o":"m 367 450 l 656 991 l 733 991 l 403 383 l 403 0 l 333 0 l 333 378 l 0 991 l 77 991 l 367 450 z "},"Z":{"ha":800,"x_min":52,"x_max":745,"o":"m 745 0 l 52 0 l 52 51 l 640 928 l 81 928 l 81 991 l 729 991 l 729 941 l 140 64 l 745 64 l 745 0 z "},"[":{"ha":443,"x_min":118,"x_max":408,"o":"m 408 -220 l 118 -220 l 118 991 l 408 991 l 408 932 l 184 932 l 184 -160 l 408 -160 l 408 -220 z "},"\\":{"ha":473,"x_min":16,"x_max":457,"o":"m 86 991 l 457 0 l 387 0 l 16 991 l 86 991 z "},"]":{"ha":443,"x_min":35,"x_max":326,"o":"m 35 -160 l 258 -160 l 258 932 l 35 932 l 35 991 l 326 991 l 326 -220 l 35 -220 l 35 -160 z "},"^":{"ha":793,"x_min":60,"x_max":733,"o":"m 60 380 l 375 999 l 421 999 l 733 380 l 667 380 l 397 922 l 126 380 l 60 380 z "},"_":{"ha":570,"x_min":-3,"x_max":573,"o":"m 573 -181 l -3 -181 l -3 -125 l 573 -125 l 573 -181 z "},"`":{"ha":362,"x_min":56,"x_max":307,"o":"m 136 1064 q 184 995 155 1034 q 247 918 214 956 q 307 853 279 880 l 307 842 l 258 842 q 203 890 231 863 q 146 947 174 918 q 95 1003 119 976 q 56 1053 72 1031 l 56 1064 l 136 1064 z "},"a":{"ha":736,"x_min":65,"x_max":622,"o":"m 380 750 q 562 689 501 750 q 622 494 622 628 l 622 0 l 569 0 l 557 129 l 553 129 q 495 55 529 87 q 412 5 461 23 q 292 -14 363 -14 q 171 10 221 -14 q 93 79 120 34 q 65 190 65 125 q 156 357 65 300 q 417 422 247 414 l 554 429 l 554 482 q 509 644 554 595 q 377 692 465 692 q 268 677 320 692 q 161 635 215 663 l 139 692 q 253 734 192 718 q 380 750 313 750 m 553 375 l 425 370 q 211 319 284 363 q 138 189 138 276 q 181 82 138 119 q 303 45 225 45 q 489 114 425 45 q 553 302 553 183 l 553 375 z "},"b":{"ha":827,"x_min":121,"x_max":747,"o":"m 190 1055 l 190 755 q 189 671 190 717 q 186 594 187 625 l 190 594 q 282 707 216 663 q 446 752 348 752 q 668 655 590 752 q 747 371 747 558 q 711 170 747 256 q 607 35 676 83 q 433 -14 537 -14 q 279 26 338 -14 q 192 125 219 66 l 186 125 l 174 0 l 121 0 l 121 1055 l 190 1055 m 439 692 q 296 655 351 692 q 216 545 241 617 q 190 370 190 473 l 190 359 q 245 126 190 206 q 426 46 301 46 q 613 131 549 46 q 676 371 676 215 q 617 611 676 530 q 439 692 558 692 z "},"c":{"ha":660,"x_min":80,"x_max":616,"o":"m 418 -14 q 232 32 308 -14 q 118 163 157 78 q 80 365 80 248 q 124 573 80 486 q 248 705 168 659 q 436 751 328 751 q 534 742 489 751 q 616 715 580 732 l 598 655 q 517 681 560 672 q 435 690 475 690 q 281 650 345 690 q 184 537 218 610 q 151 366 151 465 q 179 201 151 273 q 267 89 208 130 q 418 47 326 47 q 520 58 471 47 q 608 86 568 69 l 608 24 q 525 -3 572 7 q 418 -14 478 -14 z "},"d":{"ha":827,"x_min":80,"x_max":705,"o":"m 389 -14 q 159 82 238 -14 q 80 359 80 177 q 163 651 80 551 q 396 751 247 751 q 507 732 460 751 q 586 679 554 712 q 636 602 618 645 l 642 602 q 637 680 639 638 q 636 755 636 721 l 636 1055 l 705 1055 l 705 0 l 649 0 l 640 135 l 636 135 q 586 60 618 94 q 505 6 553 26 q 389 -14 457 -14 m 397 46 q 582 127 527 46 q 637 359 637 208 l 637 370 q 582 609 637 526 q 403 692 527 692 q 215 606 280 692 q 151 358 151 521 q 211 125 151 205 q 397 46 272 46 z "},"e":{"ha":763,"x_min":80,"x_max":683,"o":"m 401 751 q 558 707 496 751 q 652 587 621 663 q 683 411 683 510 l 683 361 l 151 361 q 221 128 151 210 q 422 47 291 47 q 541 58 490 47 q 653 96 591 69 l 653 33 q 545 -2 599 9 q 420 -14 490 -14 q 232 33 308 -14 q 118 164 157 79 q 80 362 80 249 q 117 561 80 473 q 225 700 154 649 q 401 751 297 751 m 401 692 q 230 622 295 692 q 153 420 164 552 l 612 420 q 589 562 612 500 q 519 658 566 624 q 401 692 473 692 z "},"f":{"ha":417,"x_min":18,"x_max":496,"o":"m 397 680 l 223 680 l 223 0 l 155 0 l 155 680 l 18 680 l 18 721 l 155 739 l 155 820 q 178 955 155 901 q 249 1036 201 1009 q 370 1063 297 1063 q 439 1057 408 1063 q 496 1042 469 1051 l 480 985 q 428 998 456 993 q 371 1004 399 1004 q 258 961 293 1004 q 223 821 223 918 l 223 737 l 397 737 l 397 680 z "},"g":{"ha":722,"x_min":24,"x_max":695,"o":"m 317 -334 q 101 -280 178 -334 q 24 -130 24 -227 q 71 -2 24 -56 q 198 63 118 52 q 146 104 166 78 q 126 163 126 130 q 150 234 126 201 q 221 295 174 267 q 121 373 157 318 q 84 507 84 429 q 116 636 84 581 q 207 721 148 691 q 345 751 265 751 q 390 750 370 751 q 427 746 410 749 q 457 738 444 743 l 695 738 l 695 689 l 543 679 q 588 601 573 643 q 603 513 603 559 q 534 339 603 404 q 341 275 465 275 q 275 281 307 275 q 212 232 233 256 q 190 170 190 207 q 203 133 190 147 q 243 110 217 118 q 306 102 269 102 l 435 102 q 619 54 555 102 q 683 -90 683 5 q 588 -270 683 -206 q 317 -334 492 -334 m 322 -276 q 484 -255 419 -276 q 581 -193 549 -234 q 614 -92 614 -152 q 590 -15 614 -42 q 523 23 566 12 q 420 33 479 33 l 297 33 q 192 17 238 33 q 120 -33 146 1 q 95 -125 95 -68 q 153 -238 95 -199 q 322 -276 211 -276 m 344 330 q 484 376 435 330 q 533 509 533 422 q 483 650 533 603 q 342 696 433 696 q 205 647 255 696 q 155 507 155 597 q 203 376 155 422 q 344 330 250 330 z "},"h":{"ha":820,"x_min":122,"x_max":704,"o":"m 191 1055 l 191 711 q 190 655 191 681 q 186 603 189 629 l 191 603 q 244 678 210 645 q 329 731 278 711 q 446 751 379 751 q 587 722 530 751 q 674 634 644 693 q 704 482 704 575 l 704 0 l 636 0 l 636 478 q 586 640 636 588 q 440 691 536 691 q 303 660 359 691 q 219 565 248 628 q 191 406 191 501 l 191 0 l 122 0 l 122 1055 l 191 1055 z "},"i":{"ha":314,"x_min":109,"x_max":208,"o":"m 191 737 l 191 0 l 122 0 l 122 737 l 191 737 m 157 1010 q 195 995 183 1010 q 208 954 208 979 q 195 913 208 928 q 157 898 183 898 q 121 913 133 898 q 109 954 109 928 q 121 995 109 979 q 157 1010 133 1010 z "},"j":{"ha":314,"x_min":-72,"x_max":208,"o":"m 21 -334 q -32 -329 -9 -334 q -72 -318 -55 -325 l -72 -259 q -30 -270 -51 -267 q 16 -273 -8 -273 q 95 -241 67 -273 q 122 -144 122 -210 l 122 737 l 191 737 l 191 -146 q 170 -249 191 -207 q 111 -312 149 -291 q 21 -334 73 -334 m 109 954 q 121 995 109 979 q 157 1010 133 1010 q 195 995 183 1010 q 208 954 208 979 q 195 913 208 928 q 157 898 183 898 q 121 913 133 898 q 109 954 109 928 z "},"k":{"ha":672,"x_min":122,"x_max":672,"o":"m 191 1055 l 191 523 q 190 422 191 473 q 187 320 189 371 l 189 320 q 230 369 208 343 q 272 418 251 394 l 564 737 l 646 737 l 355 421 l 672 0 l 590 0 l 309 376 l 191 252 l 191 0 l 122 0 l 122 1055 l 191 1055 z "},"l":{"ha":314,"x_min":123,"x_max":192,"o":"m 192 0 l 123 0 l 123 1055 l 192 1055 l 192 0 z "},"m":{"ha":1227,"x_min":122,"x_max":1113,"o":"m 883 751 q 1051 690 989 751 q 1113 495 1113 628 l 1113 0 l 1046 0 l 1046 492 q 999 643 1046 595 q 876 691 952 691 q 711 630 770 691 q 652 437 652 568 l 652 0 l 584 0 l 584 492 q 563 605 584 561 q 503 670 541 648 q 414 691 465 691 q 295 663 345 691 q 218 576 245 635 q 191 427 191 517 l 191 0 l 122 0 l 122 737 l 178 737 l 188 616 l 192 616 q 241 683 210 652 q 316 732 271 713 q 422 751 361 751 q 557 716 502 751 q 634 610 612 680 l 639 610 q 731 714 669 677 q 883 751 794 751 z "},"n":{"ha":820,"x_min":122,"x_max":704,"o":"m 447 751 q 637 686 571 751 q 704 482 704 621 l 704 0 l 636 0 l 636 478 q 586 640 636 588 q 440 691 536 691 q 255 620 319 691 q 191 406 191 549 l 191 0 l 122 0 l 122 737 l 178 737 l 188 603 l 192 603 q 246 678 212 644 q 330 731 280 711 q 447 751 380 751 z "},"o":{"ha":814,"x_min":80,"x_max":734,"o":"m 734 370 q 713 214 734 284 q 650 93 692 144 q 548 14 609 42 q 405 -14 486 -14 q 267 14 328 -14 q 165 92 207 41 q 102 213 123 143 q 80 370 80 283 q 120 574 80 488 q 234 706 159 660 q 412 751 308 751 q 590 703 519 751 q 698 568 662 654 q 734 370 734 482 m 151 370 q 178 200 151 273 q 263 87 206 127 q 406 46 319 46 q 552 87 495 46 q 636 201 609 127 q 663 370 663 274 q 637 535 663 463 q 556 649 612 608 q 411 691 500 691 q 217 606 283 691 q 151 370 151 520 z "},"p":{"ha":827,"x_min":123,"x_max":748,"o":"m 449 751 q 670 656 591 751 q 748 374 748 560 q 711 162 748 249 q 605 31 673 76 q 439 -14 536 -14 q 324 6 373 -14 q 242 61 275 26 q 192 136 210 95 l 187 136 q 191 56 189 98 q 192 -24 192 14 l 192 -326 l 123 -326 l 123 737 l 180 737 l 188 590 l 192 590 q 243 669 210 632 q 328 729 277 707 q 449 751 378 751 m 440 691 q 301 655 357 691 q 219 549 246 618 q 192 379 193 479 l 192 368 q 219 188 192 260 q 299 81 245 117 q 433 46 353 46 q 566 85 512 46 q 649 197 621 123 q 677 374 677 270 q 618 610 677 530 q 440 691 559 691 z "},"q":{"ha":827,"x_min":77,"x_max":702,"o":"m 633 -326 l 633 -3 q 635 70 633 27 q 637 143 636 113 l 633 143 q 541 30 606 75 q 376 -15 475 -15 q 156 82 234 -15 q 77 367 77 178 q 112 567 77 481 q 217 703 147 654 q 391 751 288 751 q 546 710 486 751 q 632 609 605 668 l 636 609 l 647 737 l 702 737 l 702 -326 l 633 -326 m 385 45 q 527 82 472 45 q 607 189 581 119 q 634 359 633 259 l 634 377 q 578 612 634 532 q 397 692 522 692 q 211 606 274 692 q 148 366 148 519 q 207 127 148 210 q 385 45 266 45 z "},"r":{"ha":541,"x_min":123,"x_max":519,"o":"m 416 750 q 471 747 445 750 q 519 737 496 743 l 508 674 q 463 683 486 680 q 413 686 439 686 q 320 667 361 686 q 250 610 279 647 q 207 522 222 574 q 192 407 192 471 l 192 0 l 123 0 l 123 737 l 182 737 l 189 598 l 193 598 q 240 675 210 641 q 315 730 271 709 q 416 750 359 750 z "},"s":{"ha":647,"x_min":61,"x_max":583,"o":"m 583 193 q 550 81 583 127 q 454 11 517 35 q 299 -14 391 -14 q 162 0 222 -14 q 61 33 102 14 l 61 101 q 174 60 112 76 q 300 45 235 45 q 465 83 414 45 q 515 189 515 122 q 490 262 515 233 q 419 312 465 291 q 308 355 373 333 q 188 400 240 378 q 105 461 135 423 q 75 564 75 498 q 146 702 75 652 q 338 751 218 751 q 461 739 404 751 q 566 707 519 726 l 541 648 q 444 680 499 668 q 334 692 389 692 q 193 661 244 692 q 142 567 142 629 q 167 493 142 519 q 237 448 191 466 q 345 408 282 430 q 464 361 409 386 q 551 298 518 337 q 583 193 583 260 z "},"t":{"ha":465,"x_min":17,"x_max":429,"o":"m 321 45 q 381 50 353 45 q 429 62 408 55 l 429 5 q 378 -8 408 -2 q 314 -14 349 -14 q 210 10 252 -14 q 148 81 169 33 q 127 203 127 129 l 127 680 l 17 680 l 17 721 l 126 742 l 150 916 l 195 916 l 195 737 l 425 737 l 425 680 l 195 680 l 195 207 q 225 86 195 127 q 321 45 254 45 z "},"u":{"ha":820,"x_min":113,"x_max":695,"o":"m 695 737 l 695 0 l 640 0 l 629 133 l 625 133 q 572 59 606 92 q 487 6 537 26 q 370 -14 437 -14 q 228 16 286 -14 q 142 105 171 45 q 113 254 113 165 l 113 737 l 181 737 l 181 261 q 231 98 181 151 q 377 46 281 46 q 514 77 458 46 q 598 172 569 109 q 627 330 627 235 l 627 737 l 695 737 z "},"v":{"ha":638,"x_min":0,"x_max":638,"o":"m 283 0 l 0 737 l 73 737 l 262 235 q 293 148 279 189 q 317 72 307 106 l 320 72 q 345 148 331 106 q 376 235 359 190 l 565 737 l 638 737 l 355 0 l 283 0 z "},"w":{"ha":1004,"x_min":20,"x_max":984,"o":"m 711 0 l 555 495 q 541 538 547 517 q 530 577 535 558 q 519 614 524 596 q 510 650 515 632 l 507 650 q 497 614 502 632 q 487 576 492 595 q 475 536 481 556 q 462 494 469 515 l 300 0 l 229 0 l 20 737 l 92 737 l 222 266 q 241 192 233 224 q 256 133 250 159 q 267 83 262 106 l 270 83 q 279 118 274 100 q 289 159 283 137 q 302 205 294 180 q 318 258 309 229 l 476 737 l 544 737 l 696 259 q 716 193 707 224 q 732 134 725 161 q 744 83 739 107 l 748 83 q 756 133 751 106 q 771 193 762 159 q 790 266 779 226 l 915 737 l 984 737 l 784 0 l 711 0 z "},"x":{"ha":691,"x_min":32,"x_max":656,"o":"m 301 379 l 44 737 l 124 737 l 342 426 l 561 737 l 640 737 l 385 379 l 656 0 l 576 0 l 342 331 l 111 0 l 32 0 l 301 379 z "},"y":{"ha":637,"x_min":1,"x_max":639,"o":"m 1 737 l 73 737 l 252 269 q 281 193 269 228 q 303 129 294 158 q 319 77 313 100 l 323 77 q 350 157 333 108 q 389 267 367 206 l 566 737 l 639 737 l 302 -138 q 249 -247 278 -202 q 180 -314 220 -291 q 85 -336 141 -336 q 40 -333 60 -336 q 1 -323 20 -329 l 1 -264 q 37 -273 18 -269 q 78 -277 56 -277 q 145 -261 117 -277 q 195 -212 173 -245 q 237 -127 218 -178 l 288 4 l 1 737 z "},"z":{"ha":641,"x_min":56,"x_max":583,"o":"m 583 0 l 56 0 l 56 45 l 498 680 l 88 680 l 88 737 l 581 737 l 581 690 l 140 57 l 583 57 l 583 0 z "},"{":{"ha":490,"x_min":37,"x_max":441,"o":"m 441 -220 q 308 -197 362 -220 q 225 -130 253 -174 q 197 -19 197 -85 l 197 205 q 180 293 197 259 q 127 341 163 326 q 37 357 92 357 l 37 416 q 127 431 92 416 q 180 479 163 446 q 197 567 197 512 l 197 792 q 225 902 197 858 q 309 969 254 946 q 441 991 363 991 l 441 932 q 343 916 382 932 q 284 868 304 901 q 264 783 264 835 l 264 561 q 236 446 264 490 q 140 389 207 401 l 140 384 q 236 328 208 372 q 264 212 264 283 l 264 -14 q 284 -97 264 -64 q 342 -144 303 -129 q 441 -160 382 -159 l 441 -220 z "},"|":{"ha":751,"x_min":344,"x_max":404,"o":"m 344 1058 l 404 1058 l 404 -343 l 344 -343 l 344 1058 z "},"}":{"ha":490,"x_min":48,"x_max":452,"o":"m 48 -220 l 48 -160 q 146 -144 107 -159 q 205 -96 186 -128 q 224 -14 224 -64 l 224 212 q 254 327 224 283 q 350 383 283 372 l 350 389 q 254 445 283 401 q 224 560 224 490 l 224 783 q 205 868 224 836 q 147 917 186 901 q 48 932 108 932 l 48 991 q 182 969 127 991 q 265 902 237 946 q 294 791 294 857 l 294 568 q 310 479 294 513 q 362 431 327 446 q 452 416 397 416 l 452 357 q 362 341 397 357 q 310 293 327 326 q 294 206 294 260 l 294 -20 q 264 -130 294 -85 q 181 -197 235 -174 q 48 -220 126 -220 z "},"~":{"ha":793,"x_min":75,"x_max":718,"o":"m 385 463 q 310 493 343 483 q 235 504 277 504 q 154 484 196 504 q 75 425 113 465 l 75 493 q 149 544 107 526 q 239 562 191 562 q 328 551 290 562 q 413 517 365 539 q 488 487 456 498 q 559 476 521 476 q 638 495 597 476 q 718 554 680 514 l 718 488 q 647 437 688 457 q 556 418 606 418 q 472 429 510 418 q 385 463 435 439 z "}," ":{"ha":361,"x_min":0,"x_max":0,"o":""},"¡":{"ha":334,"x_min":111,"x_max":221,"o":"m 140 479 l 191 479 l 205 -256 l 125 -256 l 140 479 m 221 687 q 207 642 221 657 q 167 626 193 626 q 124 642 138 626 q 111 687 111 657 q 124 733 111 717 q 167 750 138 750 q 207 733 193 750 q 221 687 221 717 z "},"¢":{"ha":793,"x_min":121,"x_max":659,"o":"m 477 1006 l 477 890 q 576 879 532 888 q 659 853 620 870 l 641 793 q 558 819 602 810 q 477 827 515 827 q 322 788 386 827 q 225 676 258 749 q 191 503 191 603 q 220 336 191 407 q 308 225 248 265 q 460 185 367 185 q 562 196 514 185 q 650 223 609 206 l 650 162 q 573 136 616 146 q 477 123 530 125 l 477 -14 l 420 -14 l 420 125 q 254 180 321 133 q 155 309 188 227 q 121 502 121 390 q 157 696 121 614 q 260 827 193 779 q 420 886 328 875 l 420 1006 l 477 1006 z "},"£":{"ha":793,"x_min":53,"x_max":728,"o":"m 473 1004 q 596 991 543 1004 q 693 958 649 977 l 668 899 q 578 932 625 919 q 474 945 531 945 q 329 890 377 945 q 280 718 280 835 l 280 513 l 559 513 l 559 457 l 280 457 l 280 275 q 266 173 280 214 q 229 105 252 131 q 175 64 205 79 l 728 64 l 728 0 l 53 0 l 53 59 q 139 94 103 68 q 193 164 174 120 q 212 274 212 209 l 212 457 l 68 457 l 68 513 l 212 513 l 212 726 q 242 879 212 817 q 332 972 273 941 q 473 1004 390 1004 z "},"¤":{"ha":793,"x_min":81,"x_max":710,"o":"m 120 491 q 136 583 120 538 q 181 665 152 628 l 81 768 l 119 806 l 221 705 q 303 752 258 736 q 396 768 348 768 q 488 752 443 768 q 570 705 533 736 l 671 806 l 710 767 l 610 665 q 656 584 640 629 q 672 491 672 538 q 656 399 672 444 q 610 317 640 353 l 710 214 l 671 176 l 570 277 q 488 231 534 247 q 396 215 443 215 q 302 231 348 215 q 221 278 257 247 l 119 176 l 81 215 l 181 317 q 136 399 152 354 q 120 491 120 444 m 174 491 q 204 378 174 429 q 284 298 234 327 q 395 269 335 269 q 507 299 456 269 q 588 380 558 330 q 618 492 618 431 q 589 604 618 553 q 508 685 559 654 q 397 715 458 715 q 285 685 336 715 q 204 604 234 654 q 174 491 174 553 z "},"¥":{"ha":793,"x_min":29,"x_max":762,"o":"m 397 481 l 688 991 l 762 991 l 450 457 l 661 457 l 661 401 l 430 401 l 430 263 l 661 263 l 661 208 l 430 208 l 430 0 l 363 0 l 363 208 l 132 208 l 132 263 l 363 263 l 363 401 l 132 401 l 132 457 l 340 457 l 29 991 l 104 991 l 397 481 z "},"¦":{"ha":751,"x_min":344,"x_max":404,"o":"m 344 1058 l 404 1058 l 404 541 l 344 541 l 344 1058 m 344 176 l 404 176 l 404 -343 l 344 -343 l 344 176 z "},"§":{"ha":717,"x_min":87,"x_max":605,"o":"m 106 549 q 144 660 106 616 q 241 724 183 703 q 148 783 184 748 q 113 881 113 818 q 180 1010 113 964 q 368 1057 248 1057 q 490 1045 436 1057 q 590 1015 544 1034 l 566 959 q 474 989 525 978 q 364 1001 422 1001 q 225 971 273 1001 q 178 882 178 941 q 201 819 178 842 q 268 778 224 795 q 372 740 312 761 q 489 694 435 719 q 573 631 542 669 q 605 530 605 593 q 571 415 605 462 q 486 342 536 368 q 568 283 537 319 q 600 188 600 247 q 528 48 600 100 q 321 -3 457 -3 q 187 10 247 -3 q 87 43 127 24 l 87 106 q 159 78 121 91 q 239 59 198 66 q 323 52 281 52 q 485 90 437 52 q 533 184 533 127 q 510 251 533 224 q 442 297 487 277 q 332 338 397 317 q 215 384 267 360 q 135 447 164 408 q 106 549 106 486 m 168 554 q 192 478 168 507 q 260 429 216 449 q 366 387 304 409 l 430 367 q 511 429 479 389 q 543 524 543 469 q 518 599 543 568 q 440 654 492 630 q 307 699 388 677 q 209 649 250 685 q 168 554 168 613 z "},"¨":{"ha":802,"x_min":225,"x_max":574,"o":"m 225 943 q 236 981 225 967 q 269 996 248 996 q 304 981 294 996 q 315 943 315 967 q 304 905 315 919 q 269 890 294 890 q 236 905 248 890 q 225 943 225 919 m 484 943 q 495 981 484 967 q 528 996 506 996 q 563 981 551 996 q 574 943 574 967 q 563 905 574 919 q 528 890 551 890 q 495 905 506 890 q 484 943 484 919 z "},"©":{"ha":1156,"x_min":68,"x_max":1087,"o":"m 578 -12 q 373 27 467 -12 q 212 135 280 66 q 106 297 144 205 q 68 496 68 389 q 108 698 68 605 q 217 859 147 791 q 379 966 287 928 q 578 1004 471 1004 q 780 964 687 1004 q 942 853 873 924 q 1049 691 1010 783 q 1087 496 1087 599 q 1048 297 1087 389 q 940 135 1009 204 q 778 27 870 66 q 578 -12 685 -12 m 602 193 q 396 271 471 193 q 321 495 321 349 q 357 654 321 585 q 456 760 392 722 q 608 798 521 798 q 703 788 661 798 q 781 760 745 779 l 757 709 q 688 733 724 725 q 608 742 652 742 q 447 676 507 742 q 386 495 386 610 q 445 311 386 374 q 604 249 503 249 q 683 256 647 249 q 758 279 720 264 l 758 224 q 687 201 724 210 q 602 193 650 193 m 578 37 q 758 73 675 37 q 903 172 841 109 q 1000 318 965 235 q 1034 496 1034 401 q 1000 672 1034 589 q 905 818 966 755 q 760 918 844 882 q 578 954 677 954 q 397 920 480 954 q 252 823 314 885 q 155 676 190 760 q 121 496 121 593 q 154 319 121 401 q 248 173 187 236 q 392 73 309 109 q 578 37 476 37 z "},"ª":{"ha":465,"x_min":52,"x_max":393,"o":"m 239 1003 q 355 966 316 1003 q 393 857 393 930 l 393 551 l 349 551 l 339 614 q 282 565 319 585 q 195 545 246 545 q 119 559 151 545 q 70 602 87 573 q 52 673 52 630 q 76 748 52 718 q 148 794 99 778 q 270 814 196 810 l 338 817 l 338 855 q 311 930 338 907 q 237 954 283 954 q 168 945 201 954 q 103 919 135 936 l 83 965 q 156 992 116 981 q 239 1003 196 1003 m 338 771 l 273 768 q 147 743 185 765 q 109 673 109 721 q 134 613 109 633 q 203 593 159 593 q 305 629 272 593 q 338 728 338 666 l 338 771 z "},"«":{"ha":603,"x_min":43,"x_max":560,"o":"m 43 388 l 263 655 l 309 626 l 117 380 l 309 134 l 263 104 l 43 370 l 43 388 m 293 388 l 514 655 l 560 626 l 368 380 l 560 134 l 514 104 l 293 370 l 293 388 z "},"¬":{"ha":793,"x_min":74,"x_max":703,"o":"m 703 519 l 703 181 l 646 181 l 646 460 l 74 460 l 74 519 l 703 519 z "},"­":{"ha":447,"x_min":56,"x_max":392,"o":"m 56 344 l 56 407 l 392 407 l 392 344 l 56 344 z "},"®":{"ha":1156,"x_min":68,"x_max":1087,"o":"m 404 196 l 404 793 l 573 793 q 723 752 669 793 q 777 622 777 711 q 742 515 777 555 q 656 458 706 475 l 815 196 l 743 196 l 595 444 l 465 444 l 465 196 l 404 196 m 465 495 l 569 495 q 674 526 633 495 q 716 621 716 557 q 677 711 716 684 q 570 739 637 739 l 465 739 l 465 495 m 578 -12 q 373 27 467 -12 q 212 135 280 66 q 106 297 144 205 q 68 496 68 389 q 108 698 68 605 q 217 859 147 791 q 379 966 287 928 q 578 1004 471 1004 q 780 964 687 1004 q 942 853 873 924 q 1049 691 1010 783 q 1087 496 1087 599 q 1048 297 1087 389 q 940 135 1009 204 q 778 27 870 66 q 578 -12 685 -12 m 578 37 q 758 73 675 37 q 903 172 841 109 q 1000 318 965 235 q 1034 496 1034 401 q 1000 672 1034 589 q 905 818 966 755 q 760 918 844 882 q 578 954 677 954 q 397 920 480 954 q 252 823 314 885 q 155 676 190 760 q 121 496 121 593 q 154 319 121 401 q 248 173 187 236 q 392 73 309 109 q 578 37 476 37 z "},"¯":{"ha":694,"x_min":-4,"x_max":699,"o":"m 699 1055 l -4 1055 l -4 1112 l 699 1112 l 699 1055 z "},"°":{"ha":595,"x_min":90,"x_max":504,"o":"m 297 600 q 191 625 237 600 q 117 696 144 650 q 90 803 90 742 q 117 909 90 863 q 190 980 143 955 q 297 1006 237 1006 q 404 980 357 1006 q 477 908 450 954 q 504 803 504 863 q 477 696 504 742 q 404 625 450 650 q 297 600 357 600 m 297 652 q 406 695 366 652 q 447 803 447 737 q 406 912 447 871 q 297 954 365 954 q 187 912 226 954 q 148 803 148 871 q 187 695 148 737 q 297 652 226 652 z "},"±":{"ha":793,"x_min":74,"x_max":719,"o":"m 74 0 l 74 58 l 719 58 l 719 0 l 74 0 m 425 521 l 718 521 l 718 463 l 425 463 l 425 166 l 366 166 l 366 463 l 74 463 l 74 521 l 366 521 l 366 817 l 425 817 l 425 521 z "},"²":{"ha":467,"x_min":36,"x_max":426,"o":"m 426 578 l 36 578 l 36 625 l 203 792 q 289 882 255 844 q 339 954 323 920 q 355 1024 355 987 q 324 1104 355 1074 q 235 1135 293 1135 q 156 1120 192 1135 q 82 1076 119 1105 l 52 1118 q 137 1168 92 1150 q 235 1186 182 1186 q 368 1142 321 1186 q 416 1026 416 1098 q 396 939 416 979 q 337 858 376 899 q 245 763 298 817 l 113 632 l 426 632 l 426 578 z "},"³":{"ha":467,"x_min":31,"x_max":431,"o":"m 233 1183 q 368 1143 320 1183 q 416 1036 416 1103 q 386 941 416 978 q 311 893 356 905 l 311 890 q 399 842 368 878 q 431 749 431 807 q 374 618 431 666 q 208 570 317 570 q 114 579 159 570 q 31 606 70 589 l 31 663 q 119 633 75 644 q 208 621 163 621 q 330 655 289 621 q 370 750 370 690 q 329 836 370 808 q 208 863 288 863 l 120 863 l 120 913 l 208 913 q 318 944 281 913 q 355 1031 355 976 q 322 1105 355 1079 q 234 1132 290 1132 q 146 1117 186 1132 q 68 1079 106 1103 l 41 1122 q 127 1166 80 1149 q 233 1183 174 1183 z "},"´":{"ha":362,"x_min":56,"x_max":307,"o":"m 307 1064 l 307 1053 q 267 1003 291 1031 q 216 947 243 976 q 159 890 188 918 q 104 842 131 863 l 56 842 l 56 853 q 115 918 83 880 q 177 995 148 956 q 226 1064 207 1034 l 307 1064 z "},"µ":{"ha":828,"x_min":122,"x_max":705,"o":"m 705 737 l 705 0 l 648 0 l 637 119 l 633 119 q 584 51 614 81 q 509 4 554 21 q 395 -14 463 -14 q 267 12 317 -14 q 191 80 217 37 l 187 80 q 189 40 189 62 q 190 -7 189 18 q 190 -60 190 -32 l 190 -334 l 122 -334 l 122 737 l 190 737 l 190 260 q 241 100 190 153 q 397 46 292 46 q 539 79 487 46 q 614 176 591 113 q 637 331 637 240 l 637 737 l 705 737 z "},"¶":{"ha":909,"x_min":111,"x_max":734,"o":"m 734 -176 l 682 -176 l 682 1004 l 513 1004 l 513 -176 l 460 -176 l 460 450 q 413 441 437 444 q 361 438 389 438 q 225 474 281 438 q 140 580 170 511 q 111 749 111 650 q 142 922 111 854 q 234 1023 174 990 q 382 1055 294 1055 l 734 1055 l 734 -176 z "},"·":{"ha":331,"x_min":111,"x_max":221,"o":"m 111 456 q 125 502 111 486 q 165 518 138 518 q 208 502 194 518 q 221 456 221 486 q 208 410 221 427 q 165 394 194 394 q 125 410 138 394 q 111 456 111 427 z "},"¸":{"ha":285,"x_min":16,"x_max":267,"o":"m 267 -198 q 219 -297 267 -261 q 92 -334 172 -334 q 49 -331 68 -334 q 16 -326 30 -329 l 16 -276 q 50 -282 31 -280 q 93 -283 69 -283 q 176 -263 145 -283 q 208 -200 208 -242 q 173 -140 208 -159 q 71 -119 138 -121 l 132 0 l 184 0 l 142 -84 q 207 -102 179 -88 q 251 -140 235 -117 q 267 -198 267 -164 z "},"¹":{"ha":467,"x_min":52,"x_max":292,"o":"m 292 1173 l 292 578 l 233 578 l 233 964 q 234 1016 233 990 q 234 1066 234 1042 q 236 1114 235 1091 q 196 1087 216 1100 q 149 1059 176 1074 l 79 1017 l 52 1061 l 237 1173 l 292 1173 z "},"º":{"ha":502,"x_min":49,"x_max":456,"o":"m 456 774 q 403 607 456 671 q 251 543 350 543 q 102 606 156 543 q 49 774 49 669 q 104 944 49 883 q 255 1006 159 1006 q 366 976 321 1006 q 433 895 410 947 q 456 774 456 843 m 105 774 q 141 641 105 691 q 251 591 177 591 q 363 642 328 591 q 399 774 399 692 q 365 905 399 854 q 254 956 330 956 q 143 909 182 956 q 105 774 105 862 z "},"»":{"ha":603,"x_min":43,"x_max":559,"o":"m 559 372 l 338 104 l 292 134 l 485 380 l 292 627 l 338 655 l 559 390 l 559 372 m 309 372 l 89 104 l 43 134 l 235 380 l 43 627 l 89 655 l 309 390 l 309 372 z "},"¼":{"ha":994,"x_min":32,"x_max":981,"o":"m 193 0 l 743 991 l 806 991 l 256 0 l 193 0 m 214 397 l 214 784 q 214 836 214 810 q 214 886 214 861 q 216 934 215 911 q 176 907 197 920 q 128 878 156 894 l 59 836 l 32 880 l 217 991 l 273 991 l 273 397 l 214 397 m 825 0 l 825 163 l 546 163 l 546 206 l 823 599 l 886 599 l 886 216 l 981 216 l 981 163 l 886 163 l 886 0 l 825 0 m 610 216 l 825 216 l 825 407 q 825 470 825 439 q 827 531 825 502 q 802 489 817 511 q 772 446 787 468 l 610 216 z "},"½":{"ha":1048,"x_min":26,"x_max":1006,"o":"m 178 0 l 728 991 l 791 991 l 241 0 l 178 0 m 207 397 l 207 784 q 207 822 207 803 q 208 861 207 842 q 209 898 208 880 q 210 934 209 916 q 170 907 190 920 q 122 878 150 894 l 53 836 l 26 880 l 211 991 l 267 991 l 267 397 l 207 397 m 616 0 l 616 47 l 783 214 q 869 304 836 267 q 920 376 903 342 q 936 446 936 409 q 904 527 936 496 q 815 557 873 557 q 736 542 772 557 q 663 498 699 528 l 633 541 q 718 590 672 572 q 816 608 763 608 q 949 564 901 608 q 996 448 996 520 q 976 361 996 401 q 917 280 956 321 q 825 185 879 239 l 694 54 l 1006 54 l 1006 0 l 616 0 z "},"¾":{"ha":1065,"x_min":31,"x_max":1053,"o":"m 268 0 l 819 991 l 882 991 l 332 0 l 268 0 m 207 390 q 113 399 157 390 q 31 426 68 408 l 31 483 q 118 452 74 463 q 208 441 162 441 q 328 475 288 441 q 369 570 369 509 q 328 655 369 628 q 207 682 287 682 l 119 682 l 119 732 l 207 732 q 316 764 279 732 q 353 851 353 795 q 321 925 353 899 q 233 951 288 951 q 145 937 184 951 q 66 899 106 922 l 39 941 q 126 986 79 969 q 233 1003 174 1003 q 367 963 319 1003 q 414 855 414 922 q 385 761 414 798 q 311 713 355 724 l 311 709 q 398 662 367 697 q 430 568 430 626 q 373 438 430 486 q 207 390 316 390 m 895 0 l 895 163 l 616 163 l 616 206 l 894 599 l 956 599 l 956 216 l 1053 216 l 1053 163 l 956 163 l 956 0 l 895 0 m 682 216 l 895 216 l 895 407 q 896 470 895 439 q 898 531 897 502 q 873 489 887 511 q 844 446 859 468 l 682 216 z "},"¿":{"ha":585,"x_min":49,"x_max":547,"o":"m 388 484 l 388 459 q 378 354 388 397 q 343 279 368 312 q 271 210 317 245 q 185 138 220 171 q 133 67 151 105 q 116 -27 116 28 q 171 -161 116 -117 q 317 -205 227 -205 q 424 -191 375 -205 q 522 -153 473 -177 l 547 -212 q 434 -253 488 -239 q 314 -267 380 -267 q 120 -205 191 -267 q 49 -28 49 -144 q 71 86 49 39 q 133 172 93 134 q 225 249 172 210 q 288 308 265 279 q 320 374 311 337 q 330 465 330 410 l 330 484 l 388 484 m 410 691 q 396 645 410 661 q 355 629 382 629 q 314 645 327 629 q 300 691 300 661 q 314 737 300 721 q 355 753 327 753 q 396 737 382 753 q 410 691 410 721 z "},"À":{"ha":834,"x_min":0,"x_max":833,"o":"m 760 0 l 625 351 l 209 351 l 71 0 l 0 0 l 390 995 l 454 995 l 833 0 l 760 0 m 603 414 l 466 785 q 453 822 460 800 q 436 869 445 844 q 420 917 428 895 q 405 869 413 893 q 389 824 397 846 q 375 784 382 802 l 233 414 l 603 414 m 326 1318 q 374 1249 345 1288 q 436 1172 404 1210 q 497 1107 469 1135 l 497 1096 l 448 1096 q 393 1145 421 1118 q 336 1201 364 1172 q 285 1258 309 1230 q 245 1307 262 1285 l 245 1318 l 326 1318 z "},"Á":{"ha":834,"x_min":0,"x_max":833,"o":"m 760 0 l 625 351 l 209 351 l 71 0 l 0 0 l 390 995 l 454 995 l 833 0 l 760 0 m 603 414 l 466 785 q 453 822 460 800 q 436 869 445 844 q 420 917 428 895 q 405 869 413 893 q 389 824 397 846 q 375 784 382 802 l 233 414 l 603 414 m 618 1318 l 618 1307 q 578 1258 602 1285 q 527 1201 555 1230 q 471 1145 499 1172 q 416 1096 442 1118 l 367 1096 l 367 1107 q 427 1172 394 1135 q 489 1249 459 1210 q 537 1318 518 1288 l 618 1318 z "},"Â":{"ha":834,"x_min":0,"x_max":833,"o":"m 760 0 l 625 351 l 209 351 l 71 0 l 0 0 l 390 995 l 454 995 l 833 0 l 760 0 m 603 414 l 466 785 q 453 822 460 800 q 436 869 445 844 q 420 917 428 895 q 405 869 413 893 q 389 824 397 846 q 375 784 382 802 l 233 414 l 603 414 m 454 1316 q 500 1248 471 1286 q 561 1172 528 1210 q 618 1107 593 1135 l 618 1096 l 568 1096 q 492 1171 530 1128 q 421 1251 453 1213 q 350 1171 389 1213 q 273 1096 311 1128 l 224 1096 l 224 1107 q 281 1172 250 1135 q 342 1248 313 1210 q 388 1316 372 1286 l 454 1316 z "},"Ã":{"ha":834,"x_min":0,"x_max":833,"o":"m 760 0 l 625 351 l 209 351 l 71 0 l 0 0 l 390 995 l 454 995 l 833 0 l 760 0 m 603 414 l 466 785 q 453 822 460 800 q 436 869 445 844 q 420 917 428 895 q 405 869 413 893 q 389 824 397 846 q 375 784 382 802 l 233 414 l 603 414 m 163 1107 q 176 1172 166 1144 q 204 1219 186 1200 q 245 1248 221 1238 q 297 1258 269 1258 q 357 1244 330 1258 q 407 1211 384 1230 q 454 1178 431 1192 q 503 1163 477 1163 q 557 1183 534 1163 q 588 1259 581 1203 l 636 1259 q 593 1146 629 1186 q 500 1106 557 1106 q 441 1120 467 1106 q 391 1153 414 1135 q 345 1186 368 1172 q 294 1201 321 1201 q 241 1181 263 1201 q 211 1107 218 1161 l 163 1107 z "},"Ä":{"ha":834,"x_min":0,"x_max":833,"o":"m 760 0 l 625 351 l 209 351 l 71 0 l 0 0 l 390 995 l 454 995 l 833 0 l 760 0 m 603 414 l 466 785 q 453 822 460 800 q 436 869 445 844 q 420 917 428 895 q 405 869 413 893 q 389 824 397 846 q 375 784 382 802 l 233 414 l 603 414 m 245 1198 q 257 1236 245 1221 q 290 1250 268 1250 q 325 1236 314 1250 q 336 1198 336 1221 q 325 1159 336 1173 q 290 1145 314 1145 q 257 1159 268 1145 q 245 1198 245 1173 m 504 1198 q 515 1236 504 1221 q 548 1250 526 1250 q 583 1236 572 1250 q 594 1198 594 1221 q 583 1159 594 1173 q 548 1145 572 1145 q 515 1159 526 1145 q 504 1198 504 1173 z "},"Å":{"ha":834,"x_min":0,"x_max":833,"o":"m 760 0 l 625 351 l 209 351 l 71 0 l 0 0 l 390 995 l 454 995 l 833 0 l 760 0 m 603 414 l 466 785 q 453 822 460 800 q 436 869 445 844 q 420 917 428 895 q 405 869 413 893 q 389 824 397 846 q 375 784 382 802 l 233 414 l 603 414 m 418 951 q 316 989 358 951 q 274 1093 274 1028 q 315 1196 274 1156 q 418 1235 357 1235 q 521 1195 479 1235 q 563 1094 563 1155 q 521 990 563 1029 q 418 951 479 951 m 418 998 q 487 1025 460 998 q 513 1093 513 1053 q 486 1161 513 1135 q 418 1188 458 1188 q 350 1161 378 1188 q 322 1093 322 1135 q 349 1025 322 1053 q 418 998 375 998 z "},"Æ":{"ha":1122,"x_min":-1,"x_max":1078,"o":"m 1078 0 l 551 0 l 551 350 l 229 350 l 74 0 l -1 0 l 441 991 l 1078 991 l 1078 928 l 621 928 l 621 553 l 1051 553 l 1051 490 l 621 490 l 621 63 l 1078 63 l 1078 0 m 257 413 l 551 413 l 551 928 l 484 928 l 257 413 z "},"Ç":{"ha":862,"x_min":86,"x_max":819,"o":"m 561 943 q 391 910 466 943 q 265 819 317 878 q 186 679 214 760 q 159 498 159 597 q 202 261 159 363 q 331 104 245 160 q 545 49 416 49 q 680 60 619 49 q 793 89 741 71 l 793 28 q 682 -2 744 9 q 538 -14 620 -14 q 289 50 389 -14 q 137 229 188 114 q 86 498 86 345 q 118 702 86 609 q 211 862 150 794 q 361 968 273 930 q 562 1006 449 1006 q 697 992 633 1006 q 819 951 762 978 l 792 890 q 680 930 737 918 q 561 943 622 943 m 627 -198 q 580 -297 627 -261 q 452 -334 533 -334 q 410 -331 429 -334 q 376 -326 391 -329 l 376 -276 q 411 -282 392 -280 q 454 -283 430 -283 q 537 -263 506 -283 q 568 -200 568 -242 q 533 -140 568 -159 q 431 -119 498 -121 l 492 0 l 545 0 l 503 -84 q 568 -102 540 -88 q 612 -140 596 -117 q 627 -198 627 -164 z "},"È":{"ha":767,"x_min":140,"x_max":682,"o":"m 682 0 l 140 0 l 140 991 l 682 991 l 682 928 l 210 928 l 210 553 l 655 553 l 655 490 l 210 490 l 210 63 l 682 63 l 682 0 m 334 1318 q 381 1249 352 1288 q 444 1172 411 1210 q 505 1107 477 1135 l 505 1096 l 455 1096 q 400 1145 429 1118 q 344 1201 372 1172 q 293 1258 316 1230 q 253 1307 269 1285 l 253 1318 l 334 1318 z "},"É":{"ha":767,"x_min":140,"x_max":682,"o":"m 682 0 l 140 0 l 140 991 l 682 991 l 682 928 l 210 928 l 210 553 l 655 553 l 655 490 l 210 490 l 210 63 l 682 63 l 682 0 m 626 1318 l 626 1307 q 586 1258 610 1285 q 534 1201 562 1230 q 478 1145 507 1172 q 423 1096 450 1118 l 374 1096 l 374 1107 q 434 1172 401 1135 q 496 1249 467 1210 q 545 1318 526 1288 l 626 1318 z "},"Ê":{"ha":767,"x_min":140,"x_max":682,"o":"m 682 0 l 140 0 l 140 991 l 682 991 l 682 928 l 210 928 l 210 553 l 655 553 l 655 490 l 210 490 l 210 63 l 682 63 l 682 0 m 461 1316 q 507 1248 478 1286 q 567 1172 535 1210 q 625 1107 600 1135 l 625 1096 l 575 1096 q 498 1171 537 1128 q 428 1251 460 1213 q 357 1171 395 1213 q 280 1096 318 1128 l 231 1096 l 231 1107 q 288 1172 256 1135 q 349 1248 320 1210 q 395 1316 378 1286 l 461 1316 z "},"Ë":{"ha":767,"x_min":140,"x_max":682,"o":"m 682 0 l 140 0 l 140 991 l 682 991 l 682 928 l 210 928 l 210 553 l 655 553 l 655 490 l 210 490 l 210 63 l 682 63 l 682 0 m 253 1198 q 264 1236 253 1221 q 297 1250 275 1250 q 332 1236 321 1250 q 343 1198 343 1221 q 332 1159 343 1173 q 297 1145 321 1145 q 264 1159 275 1145 q 253 1198 253 1173 m 511 1198 q 523 1236 511 1221 q 555 1250 534 1250 q 590 1236 579 1250 q 602 1198 602 1221 q 590 1159 602 1173 q 555 1145 579 1145 q 523 1159 534 1145 q 511 1198 511 1173 z "},"Ì":{"ha":350,"x_min":-1,"x_max":250,"o":"m 140 0 l 140 991 l 210 991 l 210 0 l 140 0 m 79 1318 q 127 1249 98 1288 q 190 1172 157 1210 q 250 1107 222 1135 l 250 1096 l 201 1096 q 146 1145 174 1118 q 90 1201 117 1172 q 38 1258 62 1230 q -1 1307 15 1285 l -1 1318 l 79 1318 z "},"Í":{"ha":350,"x_min":109,"x_max":361,"o":"m 140 0 l 140 991 l 210 991 l 210 0 l 140 0 m 361 1318 l 361 1307 q 321 1258 345 1285 q 269 1201 297 1230 q 213 1145 241 1172 q 158 1096 184 1118 l 109 1096 l 109 1107 q 169 1172 136 1135 q 231 1249 201 1210 q 279 1318 260 1288 l 361 1318 z "},"Î":{"ha":350,"x_min":-22,"x_max":372,"o":"m 140 0 l 140 991 l 210 991 l 210 0 l 140 0 m 208 1316 q 254 1248 225 1286 q 314 1172 282 1210 q 372 1107 347 1135 l 372 1096 l 322 1096 q 245 1171 284 1128 q 175 1251 207 1213 q 104 1171 142 1213 q 27 1096 65 1128 l -22 1096 l -22 1107 q 35 1172 3 1135 q 96 1248 67 1210 q 142 1316 125 1286 l 208 1316 z "},"Ï":{"ha":350,"x_min":2,"x_max":351,"o":"m 140 0 l 140 991 l 210 991 l 210 0 l 140 0 m 2 1198 q 13 1236 2 1221 q 46 1250 24 1250 q 81 1236 71 1250 q 92 1198 92 1221 q 81 1159 92 1173 q 46 1145 71 1145 q 13 1159 24 1145 q 2 1198 2 1173 m 260 1198 q 272 1236 260 1221 q 304 1250 283 1250 q 339 1236 328 1250 q 351 1198 351 1221 q 339 1159 351 1173 q 304 1145 328 1145 q 272 1159 283 1145 q 260 1198 260 1173 z "},"Ð":{"ha":981,"x_min":31,"x_max":894,"o":"m 408 991 q 674 936 566 991 q 838 772 783 880 q 894 505 894 664 q 835 227 894 339 q 662 57 777 114 q 376 0 547 0 l 144 0 l 144 461 l 31 461 l 31 524 l 144 524 l 144 991 l 408 991 m 393 930 l 213 930 l 213 524 l 485 524 l 485 461 l 213 461 l 213 62 l 374 62 q 709 172 598 62 q 821 503 821 282 q 774 739 821 644 q 633 882 728 834 q 393 930 538 930 z "},"Ñ":{"ha":1002,"x_min":140,"x_max":861,"o":"m 861 0 l 790 0 l 204 877 l 201 877 q 203 803 202 840 q 205 725 204 765 q 206 644 206 686 l 206 0 l 140 0 l 140 991 l 212 991 l 795 117 l 799 117 q 797 186 798 147 q 795 267 796 226 q 794 345 794 309 l 794 991 l 861 991 l 861 0 m 260 1107 q 274 1172 264 1144 q 301 1219 284 1200 q 342 1248 319 1238 q 395 1258 366 1258 q 455 1244 428 1258 q 505 1211 481 1230 q 552 1178 528 1192 q 601 1163 575 1163 q 655 1183 632 1163 q 686 1259 678 1203 l 734 1259 q 691 1146 727 1186 q 598 1106 655 1106 q 538 1120 565 1106 q 489 1153 512 1135 q 443 1186 466 1172 q 391 1201 419 1201 q 338 1181 361 1201 q 309 1107 316 1161 l 260 1107 z "},"Ò":{"ha":1061,"x_min":86,"x_max":974,"o":"m 974 497 q 946 290 974 384 q 863 129 918 197 q 724 24 807 61 q 530 -14 641 -14 q 336 24 419 -14 q 197 129 252 61 q 114 291 142 197 q 86 498 86 385 q 137 764 86 649 q 289 943 189 878 q 536 1007 389 1007 q 775 946 677 1007 q 923 770 873 884 q 974 497 974 656 m 159 498 q 199 263 159 365 q 322 105 239 162 q 531 48 405 48 q 741 104 659 48 q 862 262 823 161 q 901 497 901 363 q 809 827 901 709 q 536 944 716 944 q 325 888 409 944 q 200 731 241 831 q 159 498 159 631 m 437 1318 q 485 1249 455 1288 q 547 1172 514 1210 q 608 1107 580 1135 l 608 1096 l 558 1096 q 503 1145 532 1118 q 447 1201 475 1172 q 396 1258 419 1230 q 356 1307 372 1285 l 356 1318 l 437 1318 z "},"Ó":{"ha":1061,"x_min":86,"x_max":974,"o":"m 974 497 q 946 290 974 384 q 863 129 918 197 q 724 24 807 61 q 530 -14 641 -14 q 336 24 419 -14 q 197 129 252 61 q 114 291 142 197 q 86 498 86 385 q 137 764 86 649 q 289 943 189 878 q 536 1007 389 1007 q 775 946 677 1007 q 923 770 873 884 q 974 497 974 656 m 159 498 q 199 263 159 365 q 322 105 239 162 q 531 48 405 48 q 741 104 659 48 q 862 262 823 161 q 901 497 901 363 q 809 827 901 709 q 536 944 716 944 q 325 888 409 944 q 200 731 241 831 q 159 498 159 631 m 728 1318 l 728 1307 q 688 1258 712 1285 q 637 1201 665 1230 q 581 1145 609 1172 q 526 1096 552 1118 l 477 1096 l 477 1107 q 536 1172 504 1135 q 598 1249 569 1210 q 647 1318 628 1288 l 728 1318 z "},"Ô":{"ha":1061,"x_min":86,"x_max":974,"o":"m 974 497 q 946 290 974 384 q 863 129 918 197 q 724 24 807 61 q 530 -14 641 -14 q 336 24 419 -14 q 197 129 252 61 q 114 291 142 197 q 86 498 86 385 q 137 764 86 649 q 289 943 189 878 q 536 1007 389 1007 q 775 946 677 1007 q 923 770 873 884 q 974 497 974 656 m 159 498 q 199 263 159 365 q 322 105 239 162 q 531 48 405 48 q 741 104 659 48 q 862 262 823 161 q 901 497 901 363 q 809 827 901 709 q 536 944 716 944 q 325 888 409 944 q 200 731 241 831 q 159 498 159 631 m 564 1316 q 609 1248 581 1286 q 670 1172 637 1210 q 728 1107 702 1135 l 728 1096 l 677 1096 q 601 1171 640 1128 q 530 1251 562 1213 q 459 1171 498 1213 q 382 1096 420 1128 l 333 1096 l 333 1107 q 391 1172 359 1135 q 452 1248 422 1210 q 497 1316 481 1286 l 564 1316 z "},"Õ":{"ha":1061,"x_min":86,"x_max":974,"o":"m 974 497 q 946 290 974 384 q 863 129 918 197 q 724 24 807 61 q 530 -14 641 -14 q 336 24 419 -14 q 197 129 252 61 q 114 291 142 197 q 86 498 86 385 q 137 764 86 649 q 289 943 189 878 q 536 1007 389 1007 q 775 946 677 1007 q 923 770 873 884 q 974 497 974 656 m 159 498 q 199 263 159 365 q 322 105 239 162 q 531 48 405 48 q 741 104 659 48 q 862 262 823 161 q 901 497 901 363 q 809 827 901 709 q 536 944 716 944 q 325 888 409 944 q 200 731 241 831 q 159 498 159 631 m 272 1107 q 286 1172 275 1144 q 313 1219 296 1200 q 354 1248 330 1238 q 406 1258 378 1258 q 466 1244 439 1258 q 516 1211 493 1230 q 563 1178 540 1192 q 612 1163 587 1163 q 667 1183 644 1163 q 697 1259 690 1203 l 745 1259 q 703 1146 739 1186 q 610 1106 667 1106 q 550 1120 576 1106 q 500 1153 524 1135 q 454 1186 477 1172 q 403 1201 431 1201 q 350 1181 372 1201 q 320 1107 328 1161 l 272 1107 z "},"Ö":{"ha":1061,"x_min":86,"x_max":974,"o":"m 974 497 q 946 290 974 384 q 863 129 918 197 q 724 24 807 61 q 530 -14 641 -14 q 336 24 419 -14 q 197 129 252 61 q 114 291 142 197 q 86 498 86 385 q 137 764 86 649 q 289 943 189 878 q 536 1007 389 1007 q 775 946 677 1007 q 923 770 873 884 q 974 497 974 656 m 159 498 q 199 263 159 365 q 322 105 239 162 q 531 48 405 48 q 741 104 659 48 q 862 262 823 161 q 901 497 901 363 q 809 827 901 709 q 536 944 716 944 q 325 888 409 944 q 200 731 241 831 q 159 498 159 631 m 355 1198 q 367 1236 355 1221 q 399 1250 378 1250 q 435 1236 424 1250 q 446 1198 446 1221 q 435 1159 446 1173 q 399 1145 424 1145 q 367 1159 378 1145 q 355 1198 355 1173 m 614 1198 q 625 1236 614 1221 q 658 1250 636 1250 q 693 1236 682 1250 q 704 1198 704 1221 q 693 1159 704 1173 q 658 1145 682 1145 q 625 1159 636 1145 q 614 1198 614 1173 z "},"×":{"ha":793,"x_min":95,"x_max":696,"o":"m 656 791 l 696 749 l 437 490 l 696 231 l 655 190 l 395 448 l 137 190 l 95 231 l 355 490 l 95 749 l 137 791 l 396 531 l 656 791 z "},"Ø":{"ha":1061,"x_min":86,"x_max":974,"o":"m 974 497 q 946 290 974 384 q 863 129 918 197 q 724 24 807 61 q 530 -14 641 -14 q 376 9 445 -14 q 256 74 307 31 l 174 -39 l 124 -5 l 210 114 q 118 280 149 182 q 86 498 86 378 q 137 764 86 649 q 289 943 189 878 q 536 1007 389 1007 q 682 986 615 1007 q 800 926 748 966 l 876 1031 l 924 996 l 845 888 q 941 723 907 821 q 974 497 974 624 m 901 497 q 877 689 901 605 q 804 830 852 773 l 294 128 q 397 69 338 90 q 531 48 456 48 q 741 104 659 48 q 862 262 823 161 q 901 497 901 363 m 159 498 q 182 314 159 397 q 252 172 205 231 l 762 872 q 662 926 718 907 q 536 944 606 944 q 325 888 409 944 q 200 731 241 831 q 159 498 159 631 z "},"Ù":{"ha":999,"x_min":130,"x_max":870,"o":"m 870 991 l 870 350 q 825 153 870 234 q 697 29 781 72 q 496 -14 613 -14 q 224 82 319 -14 q 130 353 130 178 l 130 991 l 199 991 l 199 353 q 276 126 199 203 q 500 48 354 48 q 663 82 595 48 q 765 183 730 117 q 800 343 800 249 l 800 991 l 870 991 m 406 1318 q 454 1249 425 1288 q 516 1172 484 1210 q 577 1107 549 1135 l 577 1096 l 528 1096 q 473 1145 501 1118 q 416 1201 444 1172 q 365 1258 389 1230 q 326 1307 342 1285 l 326 1318 l 406 1318 z "},"Ú":{"ha":999,"x_min":130,"x_max":870,"o":"m 870 991 l 870 350 q 825 153 870 234 q 697 29 781 72 q 496 -14 613 -14 q 224 82 319 -14 q 130 353 130 178 l 130 991 l 199 991 l 199 353 q 276 126 199 203 q 500 48 354 48 q 663 82 595 48 q 765 183 730 117 q 800 343 800 249 l 800 991 l 870 991 m 697 1318 l 697 1307 q 657 1258 681 1285 q 606 1201 633 1230 q 549 1145 578 1172 q 494 1096 521 1118 l 446 1096 l 446 1107 q 505 1172 473 1135 q 567 1249 538 1210 q 616 1318 597 1288 l 697 1318 z "},"Û":{"ha":999,"x_min":130,"x_max":870,"o":"m 870 991 l 870 350 q 825 153 870 234 q 697 29 781 72 q 496 -14 613 -14 q 224 82 319 -14 q 130 353 130 178 l 130 991 l 199 991 l 199 353 q 276 126 199 203 q 500 48 354 48 q 663 82 595 48 q 765 183 730 117 q 800 343 800 249 l 800 991 l 870 991 m 533 1316 q 578 1248 550 1286 q 639 1172 607 1210 q 697 1107 671 1135 l 697 1096 l 647 1096 q 570 1171 609 1128 q 500 1251 532 1213 q 429 1171 467 1213 q 352 1096 390 1128 l 302 1096 l 302 1107 q 360 1172 328 1135 q 421 1248 392 1210 q 467 1316 450 1286 l 533 1316 z "},"Ü":{"ha":999,"x_min":130,"x_max":870,"o":"m 870 991 l 870 350 q 825 153 870 234 q 697 29 781 72 q 496 -14 613 -14 q 224 82 319 -14 q 130 353 130 178 l 130 991 l 199 991 l 199 353 q 276 126 199 203 q 500 48 354 48 q 663 82 595 48 q 765 183 730 117 q 800 343 800 249 l 800 991 l 870 991 m 326 1198 q 337 1236 326 1221 q 370 1250 348 1250 q 405 1236 394 1250 q 416 1198 416 1221 q 405 1159 416 1173 q 370 1145 394 1145 q 337 1159 348 1145 q 326 1198 326 1173 m 584 1198 q 595 1236 584 1221 q 628 1250 606 1250 q 663 1236 652 1250 q 674 1198 674 1221 q 663 1159 674 1173 q 628 1145 652 1145 q 595 1159 606 1145 q 584 1198 584 1173 z "},"Ý":{"ha":733,"x_min":0,"x_max":733,"o":"m 367 450 l 656 991 l 733 991 l 403 383 l 403 0 l 333 0 l 333 378 l 0 991 l 77 991 l 367 450 m 565 1318 l 565 1307 q 525 1258 549 1285 q 473 1201 501 1230 q 417 1145 446 1172 q 362 1096 389 1118 l 313 1096 l 313 1107 q 373 1172 340 1135 q 435 1249 406 1210 q 484 1318 465 1288 l 565 1318 z "},"Þ":{"ha":812,"x_min":140,"x_max":739,"o":"m 739 530 q 715 404 739 459 q 646 309 692 348 q 528 251 599 271 q 361 231 457 231 l 210 231 l 210 0 l 140 0 l 140 991 l 210 991 l 210 812 l 391 812 q 654 743 569 812 q 739 530 739 673 m 210 292 l 353 292 q 522 315 452 292 q 629 389 592 337 q 667 528 667 440 q 598 698 667 645 q 382 751 530 751 l 210 751 l 210 292 z "},"ß":{"ha":810,"x_min":121,"x_max":742,"o":"m 653 873 q 633 790 653 823 q 585 733 614 757 q 528 688 557 709 q 480 642 500 667 q 460 579 460 616 q 474 527 460 549 q 516 482 488 505 q 589 430 545 460 q 667 371 632 401 q 722 298 701 340 q 742 196 742 257 q 714 86 742 133 q 632 13 686 39 q 500 -14 578 -14 q 390 -2 435 -14 q 309 27 345 9 l 309 93 q 368 68 337 79 q 431 51 398 57 q 499 45 464 45 q 631 85 587 45 q 674 193 674 125 q 659 271 674 239 q 614 330 643 303 q 543 384 585 356 q 462 443 496 416 q 411 502 429 471 q 393 576 393 534 q 412 655 393 625 q 460 707 431 685 q 516 750 488 729 q 564 799 545 771 q 583 871 583 827 q 536 969 583 935 q 405 1003 489 1003 q 288 980 336 1003 q 215 911 240 958 q 190 793 190 864 l 190 0 l 121 0 l 121 793 q 156 944 121 884 q 254 1033 191 1004 q 405 1063 317 1063 q 538 1040 482 1063 q 623 975 593 1017 q 653 873 653 933 z "},"à":{"ha":736,"x_min":65,"x_max":622,"o":"m 380 750 q 562 689 501 750 q 622 494 622 628 l 622 0 l 569 0 l 557 129 l 553 129 q 495 55 529 87 q 412 5 461 23 q 292 -14 363 -14 q 171 10 221 -14 q 93 79 120 34 q 65 190 65 125 q 156 357 65 300 q 417 422 247 414 l 554 429 l 554 482 q 509 644 554 595 q 377 692 465 692 q 268 677 320 692 q 161 635 215 663 l 139 692 q 253 734 192 718 q 380 750 313 750 m 553 375 l 425 370 q 211 319 284 363 q 138 189 138 276 q 181 82 138 119 q 303 45 225 45 q 489 114 425 45 q 553 302 553 183 l 553 375 m 270 1064 q 318 995 288 1034 q 380 918 347 956 q 441 853 413 880 l 441 842 l 391 842 q 336 890 365 863 q 280 947 308 918 q 229 1003 252 976 q 189 1053 205 1031 l 189 1064 l 270 1064 z "},"á":{"ha":736,"x_min":65,"x_max":622,"o":"m 380 750 q 562 689 501 750 q 622 494 622 628 l 622 0 l 569 0 l 557 129 l 553 129 q 495 55 529 87 q 412 5 461 23 q 292 -14 363 -14 q 171 10 221 -14 q 93 79 120 34 q 65 190 65 125 q 156 357 65 300 q 417 422 247 414 l 554 429 l 554 482 q 509 644 554 595 q 377 692 465 692 q 268 677 320 692 q 161 635 215 663 l 139 692 q 253 734 192 718 q 380 750 313 750 m 553 375 l 425 370 q 211 319 284 363 q 138 189 138 276 q 181 82 138 119 q 303 45 225 45 q 489 114 425 45 q 553 302 553 183 l 553 375 m 562 1064 l 562 1053 q 522 1003 546 1031 q 471 947 498 976 q 414 890 443 918 q 359 842 386 863 l 311 842 l 311 853 q 370 918 338 880 q 432 995 403 956 q 481 1064 462 1034 l 562 1064 z "},"â":{"ha":736,"x_min":65,"x_max":622,"o":"m 380 750 q 562 689 501 750 q 622 494 622 628 l 622 0 l 569 0 l 557 129 l 553 129 q 495 55 529 87 q 412 5 461 23 q 292 -14 363 -14 q 171 10 221 -14 q 93 79 120 34 q 65 190 65 125 q 156 357 65 300 q 417 422 247 414 l 554 429 l 554 482 q 509 644 554 595 q 377 692 465 692 q 268 677 320 692 q 161 635 215 663 l 139 692 q 253 734 192 718 q 380 750 313 750 m 553 375 l 425 370 q 211 319 284 363 q 138 189 138 276 q 181 82 138 119 q 303 45 225 45 q 489 114 425 45 q 553 302 553 183 l 553 375 m 397 1061 q 442 994 414 1032 q 503 918 471 956 q 561 852 535 880 l 561 842 l 511 842 q 434 916 473 874 q 363 997 395 958 q 292 916 331 958 q 216 842 254 874 l 166 842 l 166 852 q 224 918 192 880 q 285 994 256 956 q 330 1061 314 1032 l 397 1061 z "},"ã":{"ha":736,"x_min":65,"x_max":622,"o":"m 380 750 q 562 689 501 750 q 622 494 622 628 l 622 0 l 569 0 l 557 129 l 553 129 q 495 55 529 87 q 412 5 461 23 q 292 -14 363 -14 q 171 10 221 -14 q 93 79 120 34 q 65 190 65 125 q 156 357 65 300 q 417 422 247 414 l 554 429 l 554 482 q 509 644 554 595 q 377 692 465 692 q 268 677 320 692 q 161 635 215 663 l 139 692 q 253 734 192 718 q 380 750 313 750 m 553 375 l 425 370 q 211 319 284 363 q 138 189 138 276 q 181 82 138 119 q 303 45 225 45 q 489 114 425 45 q 553 302 553 183 l 553 375 m 105 852 q 119 918 109 890 q 146 965 129 946 q 187 994 163 984 q 239 1004 211 1004 q 299 989 273 1004 q 350 957 326 975 q 396 923 373 938 q 446 909 420 909 q 500 929 477 909 q 530 1004 523 949 l 578 1004 q 536 892 572 932 q 443 852 500 852 q 383 866 410 852 q 334 899 357 880 q 287 932 311 918 q 236 947 264 947 q 183 927 205 947 q 153 852 161 907 l 105 852 z "},"ä":{"ha":736,"x_min":65,"x_max":622,"o":"m 380 750 q 562 689 501 750 q 622 494 622 628 l 622 0 l 569 0 l 557 129 l 553 129 q 495 55 529 87 q 412 5 461 23 q 292 -14 363 -14 q 171 10 221 -14 q 93 79 120 34 q 65 190 65 125 q 156 357 65 300 q 417 422 247 414 l 554 429 l 554 482 q 509 644 554 595 q 377 692 465 692 q 268 677 320 692 q 161 635 215 663 l 139 692 q 253 734 192 718 q 380 750 313 750 m 553 375 l 425 370 q 211 319 284 363 q 138 189 138 276 q 181 82 138 119 q 303 45 225 45 q 489 114 425 45 q 553 302 553 183 l 553 375 m 189 943 q 200 981 189 967 q 233 996 212 996 q 269 981 258 996 q 279 943 279 967 q 269 905 279 919 q 233 890 258 890 q 200 905 212 890 q 189 943 189 919 m 448 943 q 459 981 448 967 q 492 996 470 996 q 527 981 515 996 q 538 943 538 967 q 527 905 538 919 q 492 890 515 890 q 459 905 470 890 q 448 943 448 919 z "},"å":{"ha":736,"x_min":65,"x_max":622,"o":"m 380 750 q 562 689 501 750 q 622 494 622 628 l 622 0 l 569 0 l 557 129 l 553 129 q 495 55 529 87 q 412 5 461 23 q 292 -14 363 -14 q 171 10 221 -14 q 93 79 120 34 q 65 190 65 125 q 156 357 65 300 q 417 422 247 414 l 554 429 l 554 482 q 509 644 554 595 q 377 692 465 692 q 268 677 320 692 q 161 635 215 663 l 139 692 q 253 734 192 718 q 380 750 313 750 m 553 375 l 425 370 q 211 319 284 363 q 138 189 138 276 q 181 82 138 119 q 303 45 225 45 q 489 114 425 45 q 553 302 553 183 l 553 375 m 363 846 q 260 884 302 846 q 218 988 218 923 q 260 1090 218 1051 q 363 1130 301 1130 q 465 1090 423 1130 q 507 989 507 1050 q 465 885 507 924 q 363 846 423 846 m 363 892 q 431 920 405 892 q 458 988 458 947 q 430 1056 458 1029 q 363 1083 402 1083 q 294 1056 322 1083 q 267 988 267 1029 q 293 920 267 947 q 363 892 319 892 z "},"æ":{"ha":1188,"x_min":65,"x_max":1111,"o":"m 838 751 q 989 707 928 751 q 1081 587 1050 663 q 1109 412 1111 510 l 1109 362 l 608 362 q 673 127 608 208 q 857 47 739 47 q 969 58 920 47 q 1079 96 1018 69 l 1079 33 q 972 -2 1024 9 q 856 -14 920 -14 q 728 11 784 -14 q 633 78 671 35 q 572 180 594 121 q 514 78 550 121 q 424 11 478 35 q 295 -14 370 -14 q 172 10 223 -14 q 93 79 120 34 q 65 190 65 125 q 105 313 65 263 q 222 389 145 362 q 408 422 298 416 l 538 429 l 538 484 q 494 644 538 596 q 366 692 449 692 q 260 677 313 692 q 153 635 208 663 l 132 692 q 246 734 184 718 q 370 750 308 750 q 517 708 463 750 q 588 572 571 665 q 683 702 621 652 q 838 751 746 751 m 537 375 l 416 370 q 210 319 281 363 q 138 189 138 276 q 181 82 138 119 q 302 45 224 45 q 430 76 378 45 q 509 165 482 108 q 537 302 536 223 l 537 375 m 838 692 q 682 623 745 692 q 610 420 620 553 l 1037 420 q 1016 563 1038 501 q 949 658 994 624 q 838 692 905 692 z "},"ç":{"ha":660,"x_min":80,"x_max":616,"o":"m 418 -14 q 232 32 308 -14 q 118 163 157 78 q 80 365 80 248 q 124 573 80 486 q 248 705 168 659 q 436 751 328 751 q 534 742 489 751 q 616 715 580 732 l 598 655 q 517 681 560 672 q 435 690 475 690 q 281 650 345 690 q 184 537 218 610 q 151 366 151 465 q 179 201 151 273 q 267 89 208 130 q 418 47 326 47 q 520 58 471 47 q 608 86 568 69 l 608 24 q 525 -3 572 7 q 418 -14 478 -14 m 510 -198 q 463 -297 510 -261 q 335 -334 416 -334 q 292 -331 311 -334 q 259 -326 273 -329 l 259 -276 q 294 -282 275 -280 q 336 -283 313 -283 q 420 -263 389 -283 q 451 -200 451 -242 q 416 -140 451 -159 q 314 -119 381 -121 l 375 0 l 427 0 l 385 -84 q 451 -102 422 -88 q 494 -140 479 -117 q 510 -198 510 -164 z "},"è":{"ha":763,"x_min":80,"x_max":683,"o":"m 401 751 q 558 707 496 751 q 652 587 621 663 q 683 411 683 510 l 683 361 l 151 361 q 221 128 151 210 q 422 47 291 47 q 541 58 490 47 q 653 96 591 69 l 653 33 q 545 -2 599 9 q 420 -14 490 -14 q 232 33 308 -14 q 118 164 157 79 q 80 362 80 249 q 117 561 80 473 q 225 700 154 649 q 401 751 297 751 m 401 692 q 230 622 295 692 q 153 420 164 552 l 612 420 q 589 562 612 500 q 519 658 566 624 q 401 692 473 692 m 298 1064 q 346 995 317 1034 q 409 918 376 956 q 469 853 441 880 l 469 842 l 420 842 q 365 890 393 863 q 309 947 336 918 q 257 1003 281 976 q 218 1053 234 1031 l 218 1064 l 298 1064 z "},"é":{"ha":763,"x_min":80,"x_max":683,"o":"m 401 751 q 558 707 496 751 q 652 587 621 663 q 683 411 683 510 l 683 361 l 151 361 q 221 128 151 210 q 422 47 291 47 q 541 58 490 47 q 653 96 591 69 l 653 33 q 545 -2 599 9 q 420 -14 490 -14 q 232 33 308 -14 q 118 164 157 79 q 80 362 80 249 q 117 561 80 473 q 225 700 154 649 q 401 751 297 751 m 401 692 q 230 622 295 692 q 153 420 164 552 l 612 420 q 589 562 612 500 q 519 658 566 624 q 401 692 473 692 m 589 1064 l 589 1053 q 549 1003 573 1031 q 498 947 526 976 q 441 890 470 918 q 387 842 413 863 l 338 842 l 338 853 q 397 918 365 880 q 459 995 430 956 q 508 1064 489 1034 l 589 1064 z "},"ê":{"ha":763,"x_min":80,"x_max":683,"o":"m 401 751 q 558 707 496 751 q 652 587 621 663 q 683 411 683 510 l 683 361 l 151 361 q 221 128 151 210 q 422 47 291 47 q 541 58 490 47 q 653 96 591 69 l 653 33 q 545 -2 599 9 q 420 -14 490 -14 q 232 33 308 -14 q 118 164 157 79 q 80 362 80 249 q 117 561 80 473 q 225 700 154 649 q 401 751 297 751 m 401 692 q 230 622 295 692 q 153 420 164 552 l 612 420 q 589 562 612 500 q 519 658 566 624 q 401 692 473 692 m 425 1061 q 470 994 441 1032 q 531 918 498 956 q 589 852 563 880 l 589 842 l 538 842 q 462 916 500 874 q 391 997 423 958 q 320 916 359 958 q 243 842 281 874 l 194 842 l 194 852 q 252 918 220 880 q 313 994 283 956 q 358 1061 342 1032 l 425 1061 z "},"ë":{"ha":763,"x_min":80,"x_max":683,"o":"m 401 751 q 558 707 496 751 q 652 587 621 663 q 683 411 683 510 l 683 361 l 151 361 q 221 128 151 210 q 422 47 291 47 q 541 58 490 47 q 653 96 591 69 l 653 33 q 545 -2 599 9 q 420 -14 490 -14 q 232 33 308 -14 q 118 164 157 79 q 80 362 80 249 q 117 561 80 473 q 225 700 154 649 q 401 751 297 751 m 401 692 q 230 622 295 692 q 153 420 164 552 l 612 420 q 589 562 612 500 q 519 658 566 624 q 401 692 473 692 m 217 943 q 228 981 217 967 q 261 996 239 996 q 296 981 286 996 q 307 943 307 967 q 296 905 307 919 q 261 890 286 890 q 228 905 239 890 q 217 943 217 919 m 475 943 q 487 981 475 967 q 519 996 498 996 q 554 981 543 996 q 566 943 566 967 q 554 905 566 919 q 519 890 543 890 q 487 905 498 890 q 475 943 475 919 z "},"ì":{"ha":314,"x_min":-18,"x_max":234,"o":"m 191 0 l 122 0 l 122 737 l 191 737 l 191 0 m 63 1064 q 111 995 81 1034 q 173 918 140 956 q 234 853 206 880 l 234 842 l 184 842 q 130 890 158 863 q 73 947 101 918 q 22 1003 45 976 q -18 1053 -1 1031 l -18 1064 l 63 1064 z "},"í":{"ha":314,"x_min":103,"x_max":355,"o":"m 191 0 l 122 0 l 122 737 l 191 737 l 191 0 m 355 1064 l 355 1053 q 315 1003 338 1031 q 263 947 291 976 q 207 890 235 918 q 152 842 178 863 l 103 842 l 103 853 q 163 918 130 880 q 225 995 195 956 q 273 1064 254 1034 l 355 1064 z "},"î":{"ha":314,"x_min":-41,"x_max":354,"o":"m 191 0 l 122 0 l 122 737 l 191 737 l 191 0 m 190 1061 q 235 994 207 1032 q 296 918 264 956 q 354 852 328 880 l 354 842 l 304 842 q 227 916 266 874 q 157 997 189 958 q 85 916 124 958 q 9 842 47 874 l -41 842 l -41 852 q 17 918 -15 880 q 78 994 49 956 q 123 1061 107 1032 l 190 1061 z "},"ï":{"ha":314,"x_min":-18,"x_max":331,"o":"m 191 0 l 122 0 l 122 737 l 191 737 l 191 0 m -18 943 q -6 981 -18 967 q 26 996 5 996 q 62 981 51 996 q 73 943 73 967 q 62 905 73 919 q 26 890 51 890 q -6 905 5 890 q -18 943 -18 919 m 241 943 q 252 981 241 967 q 285 996 263 996 q 320 981 309 996 q 331 943 331 967 q 320 905 331 919 q 285 890 309 890 q 252 905 263 890 q 241 943 241 919 z "},"ð":{"ha":796,"x_min":78,"x_max":715,"o":"m 290 1055 q 380 1008 338 1033 q 456 956 422 983 l 612 1048 l 642 1002 l 500 918 q 618 767 570 850 q 691 586 666 683 q 715 379 715 488 q 679 174 715 263 q 571 36 643 85 q 395 -14 500 -14 q 226 27 297 -14 q 116 141 155 67 q 78 315 78 216 q 118 494 78 419 q 230 609 159 569 q 393 650 300 650 q 496 638 452 650 q 573 606 541 627 q 627 556 605 585 l 631 557 q 563 735 611 649 q 445 886 515 822 l 265 779 l 234 825 l 399 922 q 334 967 370 945 q 260 1006 298 989 l 290 1055 m 400 591 q 267 559 323 591 q 179 464 210 526 q 148 313 148 401 q 177 170 148 230 q 262 77 206 109 q 395 45 317 45 q 582 131 517 45 q 646 378 646 216 q 634 450 646 413 q 594 520 622 488 q 519 572 566 552 q 400 591 471 591 z "},"ñ":{"ha":820,"x_min":122,"x_max":704,"o":"m 447 751 q 637 686 571 751 q 704 482 704 621 l 704 0 l 636 0 l 636 478 q 586 640 636 588 q 440 691 536 691 q 255 620 319 691 q 191 406 191 549 l 191 0 l 122 0 l 122 737 l 178 737 l 188 603 l 192 603 q 246 678 212 644 q 330 731 280 711 q 447 751 380 751 m 167 852 q 180 918 170 890 q 208 965 191 946 q 249 994 225 984 q 301 1004 273 1004 q 361 989 334 1004 q 411 957 388 975 q 458 923 435 938 q 507 909 481 909 q 562 929 538 909 q 592 1004 585 949 l 640 1004 q 597 892 633 932 q 505 852 562 852 q 445 866 471 852 q 395 899 418 880 q 349 932 372 918 q 298 947 326 947 q 245 927 267 947 q 215 852 222 907 l 167 852 z "},"ò":{"ha":814,"x_min":80,"x_max":734,"o":"m 734 370 q 713 214 734 284 q 650 93 692 144 q 548 14 609 42 q 405 -14 486 -14 q 267 14 328 -14 q 165 92 207 41 q 102 213 123 143 q 80 370 80 283 q 120 574 80 488 q 234 706 159 660 q 412 751 308 751 q 590 703 519 751 q 698 568 662 654 q 734 370 734 482 m 151 370 q 178 200 151 273 q 263 87 206 127 q 406 46 319 46 q 552 87 495 46 q 636 201 609 127 q 663 370 663 274 q 637 535 663 463 q 556 649 612 608 q 411 691 500 691 q 217 606 283 691 q 151 370 151 520 m 313 1064 q 360 995 331 1034 q 423 918 390 956 q 484 853 456 880 l 484 842 l 434 842 q 379 890 408 863 q 323 947 351 918 q 272 1003 295 976 q 232 1053 248 1031 l 232 1064 l 313 1064 z "},"ó":{"ha":814,"x_min":80,"x_max":734,"o":"m 734 370 q 713 214 734 284 q 650 93 692 144 q 548 14 609 42 q 405 -14 486 -14 q 267 14 328 -14 q 165 92 207 41 q 102 213 123 143 q 80 370 80 283 q 120 574 80 488 q 234 706 159 660 q 412 751 308 751 q 590 703 519 751 q 698 568 662 654 q 734 370 734 482 m 151 370 q 178 200 151 273 q 263 87 206 127 q 406 46 319 46 q 552 87 495 46 q 636 201 609 127 q 663 370 663 274 q 637 535 663 463 q 556 649 612 608 q 411 691 500 691 q 217 606 283 691 q 151 370 151 520 m 605 1064 l 605 1053 q 565 1003 589 1031 q 513 947 541 976 q 457 890 486 918 q 402 842 429 863 l 353 842 l 353 853 q 413 918 380 880 q 475 995 446 956 q 524 1064 505 1034 l 605 1064 z "},"ô":{"ha":814,"x_min":80,"x_max":734,"o":"m 734 370 q 713 214 734 284 q 650 93 692 144 q 548 14 609 42 q 405 -14 486 -14 q 267 14 328 -14 q 165 92 207 41 q 102 213 123 143 q 80 370 80 283 q 120 574 80 488 q 234 706 159 660 q 412 751 308 751 q 590 703 519 751 q 698 568 662 654 q 734 370 734 482 m 151 370 q 178 200 151 273 q 263 87 206 127 q 406 46 319 46 q 552 87 495 46 q 636 201 609 127 q 663 370 663 274 q 637 535 663 463 q 556 649 612 608 q 411 691 500 691 q 217 606 283 691 q 151 370 151 520 m 440 1061 q 486 994 457 1032 q 546 918 514 956 q 604 852 578 880 l 604 842 l 554 842 q 477 916 516 874 q 407 997 439 958 q 336 916 374 958 q 259 842 297 874 l 210 842 l 210 852 q 267 918 235 880 q 328 994 299 956 q 374 1061 357 1032 l 440 1061 z "},"õ":{"ha":814,"x_min":80,"x_max":734,"o":"m 734 370 q 713 214 734 284 q 650 93 692 144 q 548 14 609 42 q 405 -14 486 -14 q 267 14 328 -14 q 165 92 207 41 q 102 213 123 143 q 80 370 80 283 q 120 574 80 488 q 234 706 159 660 q 412 751 308 751 q 590 703 519 751 q 698 568 662 654 q 734 370 734 482 m 151 370 q 178 200 151 273 q 263 87 206 127 q 406 46 319 46 q 552 87 495 46 q 636 201 609 127 q 663 370 663 274 q 637 535 663 463 q 556 649 612 608 q 411 691 500 691 q 217 606 283 691 q 151 370 151 520 m 149 852 q 163 918 153 890 q 190 965 173 946 q 231 994 208 984 q 283 1004 255 1004 q 343 989 317 1004 q 394 957 370 975 q 440 923 417 938 q 490 909 464 909 q 544 929 521 909 q 574 1004 567 949 l 623 1004 q 580 892 616 932 q 487 852 544 852 q 427 866 454 852 q 378 899 401 880 q 331 932 355 918 q 280 947 308 947 q 227 927 250 947 q 197 852 205 907 l 149 852 z "},"ö":{"ha":814,"x_min":80,"x_max":734,"o":"m 734 370 q 713 214 734 284 q 650 93 692 144 q 548 14 609 42 q 405 -14 486 -14 q 267 14 328 -14 q 165 92 207 41 q 102 213 123 143 q 80 370 80 283 q 120 574 80 488 q 234 706 159 660 q 412 751 308 751 q 590 703 519 751 q 698 568 662 654 q 734 370 734 482 m 151 370 q 178 200 151 273 q 263 87 206 127 q 406 46 319 46 q 552 87 495 46 q 636 201 609 127 q 663 370 663 274 q 637 535 663 463 q 556 649 612 608 q 411 691 500 691 q 217 606 283 691 q 151 370 151 520 m 232 943 q 243 981 232 967 q 276 996 254 996 q 311 981 300 996 q 322 943 322 967 q 311 905 322 919 q 276 890 300 890 q 243 905 254 890 q 232 943 232 919 m 490 943 q 502 981 490 967 q 534 996 513 996 q 569 981 558 996 q 581 943 581 967 q 569 905 581 919 q 534 890 558 890 q 502 905 513 890 q 490 943 490 919 z "},"÷":{"ha":793,"x_min":74,"x_max":719,"o":"m 74 460 l 74 519 l 719 519 l 719 460 l 74 460 m 395 188 q 357 203 370 188 q 344 246 344 219 q 357 290 344 275 q 395 305 370 305 q 435 290 422 305 q 447 246 447 275 q 435 203 447 219 q 395 188 422 188 m 395 675 q 357 690 370 675 q 344 733 344 706 q 357 777 344 762 q 395 791 370 791 q 435 777 422 791 q 447 733 447 762 q 435 690 447 706 q 395 675 422 675 z "},"ø":{"ha":814,"x_min":76,"x_max":734,"o":"m 734 370 q 696 170 734 256 q 586 35 659 83 q 405 -14 513 -14 q 290 5 341 -14 q 201 59 239 24 l 122 -41 l 76 -7 l 159 100 q 100 219 121 151 q 80 370 80 287 q 168 650 80 548 q 412 751 256 751 q 523 734 473 751 q 609 685 572 717 l 680 777 l 728 743 l 652 646 q 713 524 692 595 q 734 370 734 454 m 151 370 q 163 251 151 304 q 199 156 175 197 l 571 635 q 503 676 543 661 q 411 691 463 691 q 217 606 283 691 q 151 370 151 520 m 663 370 q 651 491 663 435 q 610 589 638 547 l 238 109 q 310 62 268 79 q 406 46 353 46 q 552 87 495 46 q 636 201 609 127 q 663 370 663 274 z "},"ù":{"ha":820,"x_min":113,"x_max":695,"o":"m 695 737 l 695 0 l 640 0 l 629 133 l 625 133 q 572 59 606 92 q 487 6 537 26 q 370 -14 437 -14 q 228 16 286 -14 q 142 105 171 45 q 113 254 113 165 l 113 737 l 181 737 l 181 261 q 231 98 181 151 q 377 46 281 46 q 514 77 458 46 q 598 172 569 109 q 627 330 627 235 l 627 737 l 695 737 m 316 1064 q 364 995 334 1034 q 426 918 393 956 q 487 853 459 880 l 487 842 l 437 842 q 382 890 411 863 q 326 947 354 918 q 275 1003 298 976 q 235 1053 252 1031 l 235 1064 l 316 1064 z "},"ú":{"ha":820,"x_min":113,"x_max":695,"o":"m 695 737 l 695 0 l 640 0 l 629 133 l 625 133 q 572 59 606 92 q 487 6 537 26 q 370 -14 437 -14 q 228 16 286 -14 q 142 105 171 45 q 113 254 113 165 l 113 737 l 181 737 l 181 261 q 231 98 181 151 q 377 46 281 46 q 514 77 458 46 q 598 172 569 109 q 627 330 627 235 l 627 737 l 695 737 m 608 1064 l 608 1053 q 568 1003 592 1031 q 517 947 545 976 q 460 890 489 918 q 406 842 432 863 l 357 842 l 357 853 q 416 918 384 880 q 478 995 449 956 q 527 1064 508 1034 l 608 1064 z "},"û":{"ha":820,"x_min":113,"x_max":695,"o":"m 695 737 l 695 0 l 640 0 l 629 133 l 625 133 q 572 59 606 92 q 487 6 537 26 q 370 -14 437 -14 q 228 16 286 -14 q 142 105 171 45 q 113 254 113 165 l 113 737 l 181 737 l 181 261 q 231 98 181 151 q 377 46 281 46 q 514 77 458 46 q 598 172 569 109 q 627 330 627 235 l 627 737 l 695 737 m 443 1061 q 488 994 460 1032 q 549 918 517 956 q 607 852 581 880 l 607 842 l 557 842 q 480 916 519 874 q 410 997 441 958 q 338 916 377 958 q 262 842 300 874 l 212 842 l 212 852 q 270 918 238 880 q 331 994 302 956 q 376 1061 360 1032 l 443 1061 z "},"ü":{"ha":820,"x_min":113,"x_max":695,"o":"m 695 737 l 695 0 l 640 0 l 629 133 l 625 133 q 572 59 606 92 q 487 6 537 26 q 370 -14 437 -14 q 228 16 286 -14 q 142 105 171 45 q 113 254 113 165 l 113 737 l 181 737 l 181 261 q 231 98 181 151 q 377 46 281 46 q 514 77 458 46 q 598 172 569 109 q 627 330 627 235 l 627 737 l 695 737 m 235 943 q 247 981 235 967 q 279 996 258 996 q 315 981 304 996 q 326 943 326 967 q 315 905 326 919 q 279 890 304 890 q 247 905 258 890 q 235 943 235 919 m 494 943 q 505 981 494 967 q 538 996 516 996 q 573 981 562 996 q 584 943 584 967 q 573 905 584 919 q 538 890 562 890 q 505 905 516 890 q 494 943 494 919 z "},"ý":{"ha":637,"x_min":1,"x_max":639,"o":"m 1 737 l 73 737 l 252 269 q 281 193 269 228 q 303 129 294 158 q 319 77 313 100 l 323 77 q 350 157 333 108 q 389 267 367 206 l 566 737 l 639 737 l 302 -138 q 249 -247 278 -202 q 180 -314 220 -291 q 85 -336 141 -336 q 40 -333 60 -336 q 1 -323 20 -329 l 1 -264 q 37 -273 18 -269 q 78 -277 56 -277 q 145 -261 117 -277 q 195 -212 173 -245 q 237 -127 218 -178 l 288 4 l 1 737 m 515 1064 l 515 1053 q 475 1003 499 1031 q 424 947 452 976 q 368 890 396 918 q 313 842 339 863 l 264 842 l 264 853 q 323 918 291 880 q 386 995 356 956 q 434 1064 415 1034 l 515 1064 z "},"þ":{"ha":827,"x_min":123,"x_max":748,"o":"m 748 374 q 711 162 748 249 q 605 31 673 76 q 440 -14 536 -14 q 324 6 373 -14 q 242 60 275 26 q 192 136 210 94 l 187 136 q 190 85 189 113 q 191 30 191 58 q 192 -22 192 2 l 192 -326 l 123 -326 l 123 1055 l 192 1055 l 192 734 q 191 664 192 707 q 189 594 190 622 l 192 594 q 244 672 210 636 q 328 730 277 708 q 449 751 379 751 q 670 655 591 751 q 748 374 748 559 m 677 374 q 618 613 677 534 q 441 691 559 691 q 254 610 315 691 q 193 380 193 530 l 193 368 q 253 126 193 205 q 433 46 313 46 q 566 83 512 46 q 649 194 621 121 q 677 374 677 267 z "},"ÿ":{"ha":637,"x_min":1,"x_max":639,"o":"m 1 737 l 73 737 l 252 269 q 281 193 269 228 q 303 129 294 158 q 319 77 313 100 l 323 77 q 350 157 333 108 q 389 267 367 206 l 566 737 l 639 737 l 302 -138 q 249 -247 278 -202 q 180 -314 220 -291 q 85 -336 141 -336 q 40 -333 60 -336 q 1 -323 20 -329 l 1 -264 q 37 -273 18 -269 q 78 -277 56 -277 q 145 -261 117 -277 q 195 -212 173 -245 q 237 -127 218 -178 l 288 4 l 1 737 m 143 943 q 154 981 143 967 q 187 996 165 996 q 222 981 212 996 q 233 943 233 967 q 222 905 233 919 q 187 890 212 890 q 154 905 165 890 q 143 943 143 919 m 401 943 q 413 981 401 967 q 446 996 424 996 q 480 981 469 996 q 492 943 492 967 q 480 905 492 919 q 446 890 469 890 q 413 905 424 890 q 401 943 401 919 z "},"Ā":{"ha":834,"x_min":0,"x_max":833,"o":"m 760 0 l 625 351 l 209 351 l 71 0 l 0 0 l 390 995 l 454 995 l 833 0 l 760 0 m 603 414 l 466 785 q 453 822 460 800 q 436 869 445 844 q 420 917 428 895 q 405 869 413 893 q 389 824 397 846 q 375 784 382 802 l 233 414 l 603 414 m 608 1160 l 608 1103 l 232 1103 l 232 1160 l 608 1160 z "},"ā":{"ha":736,"x_min":65,"x_max":622,"o":"m 380 750 q 562 689 501 750 q 622 494 622 628 l 622 0 l 569 0 l 557 129 l 553 129 q 495 55 529 87 q 412 5 461 23 q 292 -14 363 -14 q 171 10 221 -14 q 93 79 120 34 q 65 190 65 125 q 156 357 65 300 q 417 422 247 414 l 554 429 l 554 482 q 509 644 554 595 q 377 692 465 692 q 268 677 320 692 q 161 635 215 663 l 139 692 q 253 734 192 718 q 380 750 313 750 m 553 375 l 425 370 q 211 319 284 363 q 138 189 138 276 q 181 82 138 119 q 303 45 225 45 q 489 114 425 45 q 553 302 553 183 l 553 375 m 551 906 l 551 848 l 175 848 l 175 906 l 551 906 z "},"Ă":{"ha":834,"x_min":0,"x_max":833,"o":"m 760 0 l 625 351 l 209 351 l 71 0 l 0 0 l 390 995 l 454 995 l 833 0 l 760 0 m 603 414 l 466 785 q 453 822 460 800 q 436 869 445 844 q 420 917 428 895 q 405 869 413 893 q 389 824 397 846 q 375 784 382 802 l 233 414 l 603 414 m 608 1263 q 578 1173 602 1211 q 515 1116 555 1136 q 418 1096 475 1096 q 286 1140 332 1096 q 233 1263 239 1183 l 282 1263 q 302 1201 286 1225 q 348 1165 319 1177 q 419 1154 377 1154 q 490 1166 461 1154 q 535 1202 519 1178 q 557 1263 552 1227 l 608 1263 z "},"ă":{"ha":736,"x_min":65,"x_max":622,"o":"m 380 750 q 562 689 501 750 q 622 494 622 628 l 622 0 l 569 0 l 557 129 l 553 129 q 495 55 529 87 q 412 5 461 23 q 292 -14 363 -14 q 171 10 221 -14 q 93 79 120 34 q 65 190 65 125 q 156 357 65 300 q 417 422 247 414 l 554 429 l 554 482 q 509 644 554 595 q 377 692 465 692 q 268 677 320 692 q 161 635 215 663 l 139 692 q 253 734 192 718 q 380 750 313 750 m 553 375 l 425 370 q 211 319 284 363 q 138 189 138 276 q 181 82 138 119 q 303 45 225 45 q 489 114 425 45 q 553 302 553 183 l 553 375 m 551 1008 q 522 919 545 956 q 458 862 498 882 q 362 842 418 842 q 229 885 276 842 q 176 1008 182 929 l 226 1008 q 246 947 230 971 q 292 911 262 923 q 363 899 321 899 q 434 911 405 899 q 479 948 463 924 q 500 1008 496 972 l 551 1008 z "},"Ą":{"ha":834,"x_min":0,"x_max":833,"o":"m 760 0 l 625 351 l 209 351 l 71 0 l 0 0 l 390 995 l 454 995 l 833 0 l 760 0 m 603 414 l 466 785 q 453 822 460 800 q 436 869 445 844 q 420 917 428 895 q 405 869 413 893 q 389 824 397 846 q 375 784 382 802 l 233 414 l 603 414 m 691 -174 q 710 -231 691 -211 q 766 -250 729 -250 q 803 -248 786 -250 q 832 -241 821 -245 l 832 -292 q 799 -299 818 -296 q 756 -303 780 -303 q 665 -272 699 -303 q 631 -182 631 -241 q 648 -112 631 -146 q 695 -45 665 -77 q 766 18 725 -12 l 807 0 q 725 -82 759 -40 q 691 -174 691 -125 z "},"ą":{"ha":736,"x_min":65,"x_max":653,"o":"m 380 750 q 562 689 501 750 q 622 494 622 628 l 622 0 l 569 0 l 557 129 l 553 129 q 495 55 529 87 q 412 5 461 23 q 292 -14 363 -14 q 171 10 221 -14 q 93 79 120 34 q 65 190 65 125 q 156 357 65 300 q 417 422 247 414 l 554 429 l 554 482 q 509 644 554 595 q 377 692 465 692 q 268 677 320 692 q 161 635 215 663 l 139 692 q 253 734 192 718 q 380 750 313 750 m 553 375 l 425 370 q 211 319 284 363 q 138 189 138 276 q 181 82 138 119 q 303 45 225 45 q 489 114 425 45 q 553 302 553 183 l 553 375 m 512 -174 q 531 -231 512 -211 q 587 -250 550 -250 q 624 -248 607 -250 q 653 -241 642 -245 l 653 -292 q 620 -299 639 -296 q 577 -303 601 -303 q 486 -272 519 -303 q 452 -182 452 -241 q 469 -112 452 -146 q 516 -45 486 -77 q 587 18 546 -12 l 628 0 q 546 -82 580 -40 q 512 -174 512 -125 z "},"Ć":{"ha":862,"x_min":86,"x_max":819,"o":"m 561 943 q 391 910 466 943 q 265 819 317 878 q 186 679 214 760 q 159 498 159 597 q 202 261 159 363 q 331 104 245 160 q 545 49 416 49 q 680 60 619 49 q 793 89 741 71 l 793 28 q 682 -2 744 9 q 538 -14 620 -14 q 289 50 389 -14 q 137 229 188 114 q 86 498 86 345 q 118 702 86 609 q 211 862 150 794 q 361 968 273 930 q 562 1006 449 1006 q 697 992 633 1006 q 819 951 762 978 l 792 890 q 680 930 737 918 q 561 943 622 943 m 720 1318 l 720 1307 q 680 1258 704 1285 q 629 1201 656 1230 q 572 1145 601 1172 q 517 1096 544 1118 l 469 1096 l 469 1107 q 528 1172 496 1135 q 590 1249 561 1210 q 639 1318 620 1288 l 720 1318 z "},"ć":{"ha":660,"x_min":80,"x_max":616,"o":"m 418 -14 q 232 32 308 -14 q 118 163 157 78 q 80 365 80 248 q 124 573 80 486 q 248 705 168 659 q 436 751 328 751 q 534 742 489 751 q 616 715 580 732 l 598 655 q 517 681 560 672 q 435 690 475 690 q 281 650 345 690 q 184 537 218 610 q 151 366 151 465 q 179 201 151 273 q 267 89 208 130 q 418 47 326 47 q 520 58 471 47 q 608 86 568 69 l 608 24 q 525 -3 572 7 q 418 -14 478 -14 m 592 1064 l 592 1053 q 552 1003 576 1031 q 500 947 528 976 q 444 890 473 918 q 389 842 416 863 l 340 842 l 340 853 q 400 918 368 880 q 462 995 433 956 q 511 1064 492 1034 l 592 1064 z "},"Ĉ":{"ha":862,"x_min":86,"x_max":819,"o":"m 561 943 q 391 910 466 943 q 265 819 317 878 q 186 679 214 760 q 159 498 159 597 q 202 261 159 363 q 331 104 245 160 q 545 49 416 49 q 680 60 619 49 q 793 89 741 71 l 793 28 q 682 -2 744 9 q 538 -14 620 -14 q 289 50 389 -14 q 137 229 188 114 q 86 498 86 345 q 118 702 86 609 q 211 862 150 794 q 361 968 273 930 q 562 1006 449 1006 q 697 992 633 1006 q 819 951 762 978 l 792 890 q 680 930 737 918 q 561 943 622 943 m 555 1316 q 600 1248 572 1286 q 661 1172 629 1210 q 719 1107 693 1135 l 719 1096 l 669 1096 q 592 1171 631 1128 q 522 1251 553 1213 q 450 1171 489 1213 q 374 1096 412 1128 l 324 1096 l 324 1107 q 382 1172 350 1135 q 443 1248 414 1210 q 488 1316 472 1286 l 555 1316 z "},"ĉ":{"ha":660,"x_min":80,"x_max":616,"o":"m 418 -14 q 232 32 308 -14 q 118 163 157 78 q 80 365 80 248 q 124 573 80 486 q 248 705 168 659 q 436 751 328 751 q 534 742 489 751 q 616 715 580 732 l 598 655 q 517 681 560 672 q 435 690 475 690 q 281 650 345 690 q 184 537 218 610 q 151 366 151 465 q 179 201 151 273 q 267 89 208 130 q 418 47 326 47 q 520 58 471 47 q 608 86 568 69 l 608 24 q 525 -3 572 7 q 418 -14 478 -14 m 428 1061 q 473 994 445 1032 q 534 918 502 956 q 592 852 566 880 l 592 842 l 542 842 q 465 916 504 874 q 395 997 427 958 q 323 916 362 958 q 247 842 285 874 l 197 842 l 197 852 q 255 918 223 880 q 316 994 287 956 q 361 1061 345 1032 l 428 1061 z "},"Ċ":{"ha":862,"x_min":86,"x_max":819,"o":"m 561 943 q 391 910 466 943 q 265 819 317 878 q 186 679 214 760 q 159 498 159 597 q 202 261 159 363 q 331 104 245 160 q 545 49 416 49 q 680 60 619 49 q 793 89 741 71 l 793 28 q 682 -2 744 9 q 538 -14 620 -14 q 289 50 389 -14 q 137 229 188 114 q 86 498 86 345 q 118 702 86 609 q 211 862 150 794 q 361 968 273 930 q 562 1006 449 1006 q 697 992 633 1006 q 819 951 762 978 l 792 890 q 680 930 737 918 q 561 943 622 943 m 515 1264 q 553 1249 541 1264 q 566 1208 566 1234 q 553 1167 566 1182 q 515 1152 541 1152 q 479 1167 491 1152 q 467 1208 467 1182 q 479 1249 467 1234 q 515 1264 491 1264 z "},"ċ":{"ha":660,"x_min":80,"x_max":616,"o":"m 418 -14 q 232 32 308 -14 q 118 163 157 78 q 80 365 80 248 q 124 573 80 486 q 248 705 168 659 q 436 751 328 751 q 534 742 489 751 q 616 715 580 732 l 598 655 q 517 681 560 672 q 435 690 475 690 q 281 650 345 690 q 184 537 218 610 q 151 366 151 465 q 179 201 151 273 q 267 89 208 130 q 418 47 326 47 q 520 58 471 47 q 608 86 568 69 l 608 24 q 525 -3 572 7 q 418 -14 478 -14 m 388 1010 q 426 995 414 1010 q 438 954 438 979 q 426 913 438 928 q 388 898 414 898 q 351 913 363 898 q 339 954 339 928 q 351 995 339 979 q 388 1010 363 1010 z "},"Č":{"ha":862,"x_min":86,"x_max":819,"o":"m 561 943 q 391 910 466 943 q 265 819 317 878 q 186 679 214 760 q 159 498 159 597 q 202 261 159 363 q 331 104 245 160 q 545 49 416 49 q 680 60 619 49 q 793 89 741 71 l 793 28 q 682 -2 744 9 q 538 -14 620 -14 q 289 50 389 -14 q 137 229 188 114 q 86 498 86 345 q 118 702 86 609 q 211 862 150 794 q 361 968 273 930 q 562 1006 449 1006 q 697 992 633 1006 q 819 951 762 978 l 792 890 q 680 930 737 918 q 561 943 622 943 m 486 1096 q 441 1163 469 1126 q 381 1238 412 1201 q 323 1303 349 1276 l 323 1316 l 373 1316 q 449 1241 411 1283 q 519 1159 488 1198 q 591 1241 551 1198 q 668 1316 630 1283 l 718 1316 l 718 1303 q 660 1238 692 1276 q 598 1163 627 1201 q 552 1096 569 1126 l 486 1096 z "},"č":{"ha":660,"x_min":80,"x_max":616,"o":"m 418 -14 q 232 32 308 -14 q 118 163 157 78 q 80 365 80 248 q 124 573 80 486 q 248 705 168 659 q 436 751 328 751 q 534 742 489 751 q 616 715 580 732 l 598 655 q 517 681 560 672 q 435 690 475 690 q 281 650 345 690 q 184 537 218 610 q 151 366 151 465 q 179 201 151 273 q 267 89 208 130 q 418 47 326 47 q 520 58 471 47 q 608 86 568 69 l 608 24 q 525 -3 572 7 q 418 -14 478 -14 m 359 842 q 314 909 342 871 q 254 984 286 947 q 197 1049 222 1021 l 197 1061 l 246 1061 q 322 986 284 1029 q 392 905 361 944 q 464 986 425 944 q 541 1061 503 1029 l 591 1061 l 591 1049 q 533 984 566 1021 q 471 909 500 947 q 425 842 442 871 l 359 842 z "},"Ď":{"ha":981,"x_min":140,"x_max":894,"o":"m 894 505 q 835 227 894 339 q 662 57 777 114 q 377 0 547 0 l 140 0 l 140 991 l 408 991 q 675 936 567 991 q 838 772 783 880 q 894 505 894 664 m 821 503 q 774 739 821 644 q 633 882 728 834 q 393 930 538 930 l 210 930 l 210 62 l 374 62 q 709 172 598 62 q 821 503 821 282 m 455 1096 q 410 1163 438 1126 q 350 1238 381 1201 q 292 1303 318 1276 l 292 1316 l 342 1316 q 418 1241 380 1283 q 488 1159 456 1198 q 559 1241 520 1198 q 637 1316 599 1283 l 687 1316 l 687 1303 q 629 1238 661 1276 q 567 1163 596 1201 q 521 1096 538 1126 l 455 1096 z "},"ď":{"ha":827,"x_min":80,"x_max":889,"o":"m 389 -14 q 159 82 238 -14 q 80 359 80 177 q 163 651 80 551 q 396 751 247 751 q 507 732 460 751 q 586 679 554 712 q 636 602 618 645 l 642 602 q 637 680 639 638 q 636 755 636 721 l 636 1055 l 705 1055 l 705 0 l 649 0 l 640 135 l 636 135 q 586 60 618 94 q 505 6 553 26 q 389 -14 457 -14 m 397 46 q 582 127 527 46 q 637 359 637 208 l 637 370 q 582 609 637 526 q 403 692 527 692 q 215 606 280 692 q 151 358 151 521 q 211 125 151 205 q 397 46 272 46 m 889 1055 l 889 1046 q 868 977 882 1014 q 838 902 854 939 q 800 833 821 865 l 760 833 l 760 845 q 777 888 768 862 q 794 945 786 915 q 809 1004 803 975 q 819 1055 816 1033 l 889 1055 z "},"Đ":{"ha":981,"x_min":31,"x_max":894,"o":"m 408 991 q 674 936 566 991 q 838 772 783 880 q 894 505 894 664 q 835 227 894 339 q 662 57 777 114 q 376 0 547 0 l 144 0 l 144 461 l 31 461 l 31 524 l 144 524 l 144 991 l 408 991 m 393 930 l 213 930 l 213 524 l 485 524 l 485 461 l 213 461 l 213 62 l 374 62 q 709 172 598 62 q 821 503 821 282 q 774 739 821 644 q 633 882 728 834 q 393 930 538 930 z "},"đ":{"ha":827,"x_min":80,"x_max":808,"o":"m 389 -14 q 159 81 238 -14 q 80 358 80 176 q 163 650 80 551 q 396 750 247 750 q 507 730 460 750 q 586 677 553 711 q 636 601 618 643 l 642 601 q 637 678 639 637 q 636 755 636 720 l 636 862 l 315 862 l 315 918 l 636 918 l 636 1055 l 705 1055 l 705 918 l 808 918 l 808 862 l 705 862 l 705 0 l 648 0 l 640 135 l 635 135 q 585 60 617 94 q 505 6 553 26 q 389 -14 456 -14 m 397 46 q 581 127 527 46 q 635 357 635 208 l 635 369 q 581 608 635 525 q 403 690 527 690 q 216 606 280 690 q 151 358 151 521 q 212 125 151 204 q 397 46 272 46 z "},"Ē":{"ha":767,"x_min":140,"x_max":682,"o":"m 682 0 l 140 0 l 140 991 l 682 991 l 682 928 l 210 928 l 210 553 l 655 553 l 655 490 l 210 490 l 210 63 l 682 63 l 682 0 m 614 1160 l 614 1103 l 239 1103 l 239 1160 l 614 1160 z "},"ē":{"ha":763,"x_min":80,"x_max":683,"o":"m 401 751 q 558 707 496 751 q 652 587 621 663 q 683 411 683 510 l 683 361 l 151 361 q 221 128 151 210 q 422 47 291 47 q 541 58 490 47 q 653 96 591 69 l 653 33 q 545 -2 599 9 q 420 -14 490 -14 q 232 33 308 -14 q 118 164 157 79 q 80 362 80 249 q 117 561 80 473 q 225 700 154 649 q 401 751 297 751 m 401 692 q 230 622 295 692 q 153 420 164 552 l 612 420 q 589 562 612 500 q 519 658 566 624 q 401 692 473 692 m 578 906 l 578 848 l 203 848 l 203 906 l 578 906 z "},"Ĕ":{"ha":767,"x_min":140,"x_max":682,"o":"m 682 0 l 140 0 l 140 991 l 682 991 l 682 928 l 210 928 l 210 553 l 655 553 l 655 490 l 210 490 l 210 63 l 682 63 l 682 0 m 615 1263 q 586 1173 609 1211 q 522 1116 562 1136 q 426 1096 482 1096 q 293 1140 340 1096 q 240 1263 246 1183 l 290 1263 q 310 1201 294 1225 q 355 1165 326 1177 q 427 1154 385 1154 q 497 1166 469 1154 q 543 1202 526 1178 q 564 1263 559 1227 l 615 1263 z "},"ĕ":{"ha":763,"x_min":80,"x_max":683,"o":"m 401 751 q 558 707 496 751 q 652 587 621 663 q 683 411 683 510 l 683 361 l 151 361 q 221 128 151 210 q 422 47 291 47 q 541 58 490 47 q 653 96 591 69 l 653 33 q 545 -2 599 9 q 420 -14 490 -14 q 232 33 308 -14 q 118 164 157 79 q 80 362 80 249 q 117 561 80 473 q 225 700 154 649 q 401 751 297 751 m 401 692 q 230 622 295 692 q 153 420 164 552 l 612 420 q 589 562 612 500 q 519 658 566 624 q 401 692 473 692 m 580 1008 q 550 919 574 956 q 487 862 527 882 q 391 842 447 842 q 258 885 304 842 q 205 1008 211 929 l 254 1008 q 275 947 258 971 q 320 911 291 923 q 391 899 349 899 q 462 911 433 899 q 508 948 491 924 q 529 1008 524 972 l 580 1008 z "},"Ė":{"ha":767,"x_min":140,"x_max":682,"o":"m 682 0 l 140 0 l 140 991 l 682 991 l 682 928 l 210 928 l 210 553 l 655 553 l 655 490 l 210 490 l 210 63 l 682 63 l 682 0 m 420 1264 q 458 1249 446 1264 q 471 1208 471 1234 q 458 1167 471 1182 q 420 1152 446 1152 q 384 1167 396 1152 q 372 1208 372 1182 q 384 1249 372 1234 q 420 1264 396 1264 z "},"ė":{"ha":763,"x_min":80,"x_max":683,"o":"m 401 751 q 558 707 496 751 q 652 587 621 663 q 683 411 683 510 l 683 361 l 151 361 q 221 128 151 210 q 422 47 291 47 q 541 58 490 47 q 653 96 591 69 l 653 33 q 545 -2 599 9 q 420 -14 490 -14 q 232 33 308 -14 q 118 164 157 79 q 80 362 80 249 q 117 561 80 473 q 225 700 154 649 q 401 751 297 751 m 401 692 q 230 622 295 692 q 153 420 164 552 l 612 420 q 589 562 612 500 q 519 658 566 624 q 401 692 473 692 m 385 1010 q 423 995 411 1010 q 435 954 435 979 q 423 913 435 928 q 385 898 411 898 q 349 913 361 898 q 336 954 336 928 q 349 995 336 979 q 385 1010 361 1010 z "},"Ę":{"ha":767,"x_min":140,"x_max":682,"o":"m 682 0 l 140 0 l 140 991 l 682 991 l 682 928 l 210 928 l 210 553 l 655 553 l 655 490 l 210 490 l 210 63 l 682 63 l 682 0 m 532 -174 q 551 -231 532 -211 q 607 -250 570 -250 q 645 -248 627 -250 q 673 -241 662 -245 l 673 -292 q 640 -299 659 -296 q 597 -303 621 -303 q 506 -272 540 -303 q 473 -182 473 -241 q 489 -112 473 -146 q 536 -45 506 -77 q 608 18 566 -12 l 648 0 q 566 -82 600 -40 q 532 -174 532 -125 z "},"ę":{"ha":763,"x_min":80,"x_max":683,"o":"m 507 -174 q 525 -231 507 -211 q 581 -250 544 -250 q 618 -248 601 -250 q 647 -241 635 -245 l 647 -292 q 613 -299 632 -296 q 571 -303 595 -303 q 480 -272 513 -303 q 447 -182 447 -241 q 463 -111 447 -146 q 510 -41 479 -76 q 581 27 540 -6 l 644 31 q 568 -43 599 -9 q 522 -109 537 -77 q 507 -174 507 -141 m 401 751 q 558 707 496 751 q 652 587 621 663 q 683 411 683 510 l 683 361 l 151 361 q 221 128 151 210 q 422 47 291 47 q 541 58 490 47 q 653 96 591 69 l 653 33 q 545 -2 599 9 q 420 -14 490 -14 q 232 33 308 -14 q 118 164 157 79 q 80 362 80 249 q 117 561 80 473 q 225 700 154 649 q 401 751 297 751 m 401 692 q 230 622 295 692 q 153 420 164 552 l 612 420 q 589 562 612 500 q 519 658 566 624 q 401 692 473 692 z "},"Ě":{"ha":767,"x_min":140,"x_max":682,"o":"m 682 0 l 140 0 l 140 991 l 682 991 l 682 928 l 210 928 l 210 553 l 655 553 l 655 490 l 210 490 l 210 63 l 682 63 l 682 0 m 393 1096 q 347 1163 376 1126 q 287 1238 319 1201 q 230 1303 256 1276 l 230 1316 l 279 1316 q 356 1241 317 1283 q 425 1159 394 1198 q 497 1241 458 1198 q 574 1316 536 1283 l 625 1316 l 625 1303 q 566 1238 599 1276 q 505 1163 534 1201 q 458 1096 475 1126 l 393 1096 z "},"ě":{"ha":763,"x_min":80,"x_max":683,"o":"m 401 751 q 558 707 496 751 q 652 587 621 663 q 683 411 683 510 l 683 361 l 151 361 q 221 128 151 210 q 422 47 291 47 q 541 58 490 47 q 653 96 591 69 l 653 33 q 545 -2 599 9 q 420 -14 490 -14 q 232 33 308 -14 q 118 164 157 79 q 80 362 80 249 q 117 561 80 473 q 225 700 154 649 q 401 751 297 751 m 401 692 q 230 622 295 692 q 153 420 164 552 l 612 420 q 589 562 612 500 q 519 658 566 624 q 401 692 473 692 m 356 842 q 311 909 339 871 q 251 984 282 947 q 193 1049 219 1021 l 193 1061 l 243 1061 q 319 986 281 1029 q 389 905 357 944 q 460 986 421 944 q 538 1061 500 1029 l 588 1061 l 588 1049 q 530 984 562 1021 q 468 909 497 947 q 422 842 439 871 l 356 842 z "},"Ĝ":{"ha":1004,"x_min":86,"x_max":895,"o":"m 531 500 l 895 500 l 895 45 q 743 1 824 16 q 572 -14 663 -14 q 306 46 414 -14 q 142 220 197 106 q 86 494 86 334 q 147 760 86 644 q 321 941 208 876 q 592 1007 434 1007 q 746 992 673 1007 q 883 947 818 977 l 855 885 q 724 930 791 915 q 589 945 657 945 q 358 887 454 945 q 210 729 261 830 q 159 495 159 627 q 208 246 159 345 q 353 98 258 147 q 585 48 448 48 q 719 59 659 48 q 826 87 778 70 l 826 437 l 531 437 l 531 500 m 589 1316 q 635 1248 606 1286 q 695 1172 663 1210 q 753 1107 728 1135 l 753 1096 l 703 1096 q 627 1171 665 1128 q 556 1251 588 1213 q 485 1171 524 1213 q 408 1096 446 1128 l 359 1096 l 359 1107 q 416 1172 385 1135 q 477 1248 448 1210 q 523 1316 507 1286 l 589 1316 z "},"ĝ":{"ha":722,"x_min":24,"x_max":695,"o":"m 317 -334 q 101 -280 178 -334 q 24 -130 24 -227 q 71 -2 24 -56 q 198 63 118 52 q 146 104 166 78 q 126 163 126 130 q 150 234 126 201 q 221 295 174 267 q 121 373 157 318 q 84 507 84 429 q 116 636 84 581 q 207 721 148 691 q 345 751 265 751 q 390 750 370 751 q 427 746 410 749 q 457 738 444 743 l 695 738 l 695 689 l 543 679 q 588 601 573 643 q 603 513 603 559 q 534 339 603 404 q 341 275 465 275 q 275 281 307 275 q 212 232 233 256 q 190 170 190 207 q 203 133 190 147 q 243 110 217 118 q 306 102 269 102 l 435 102 q 619 54 555 102 q 683 -90 683 5 q 588 -270 683 -206 q 317 -334 492 -334 m 322 -276 q 484 -255 419 -276 q 581 -193 549 -234 q 614 -92 614 -152 q 590 -15 614 -42 q 523 23 566 12 q 420 33 479 33 l 297 33 q 192 17 238 33 q 120 -33 146 1 q 95 -125 95 -68 q 153 -238 95 -199 q 322 -276 211 -276 m 344 330 q 484 376 435 330 q 533 509 533 422 q 483 650 533 603 q 342 696 433 696 q 205 647 255 696 q 155 507 155 597 q 203 376 155 422 q 344 330 250 330 m 377 1061 q 422 994 394 1032 q 483 918 451 956 q 541 852 515 880 l 541 842 l 491 842 q 414 916 453 874 q 344 997 376 958 q 273 916 311 958 q 196 842 234 874 l 146 842 l 146 852 q 204 918 172 880 q 265 994 236 956 q 311 1061 294 1032 l 377 1061 z "},"Ğ":{"ha":1004,"x_min":86,"x_max":895,"o":"m 531 500 l 895 500 l 895 45 q 743 1 824 16 q 572 -14 663 -14 q 306 46 414 -14 q 142 220 197 106 q 86 494 86 334 q 147 760 86 644 q 321 941 208 876 q 592 1007 434 1007 q 746 992 673 1007 q 883 947 818 977 l 855 885 q 724 930 791 915 q 589 945 657 945 q 358 887 454 945 q 210 729 261 830 q 159 495 159 627 q 208 246 159 345 q 353 98 258 147 q 585 48 448 48 q 719 59 659 48 q 826 87 778 70 l 826 437 l 531 437 l 531 500 m 743 1263 q 713 1173 736 1211 q 650 1116 690 1136 q 553 1096 610 1096 q 420 1140 467 1096 q 368 1263 374 1183 l 417 1263 q 437 1201 421 1225 q 483 1165 454 1177 q 554 1154 512 1154 q 625 1166 596 1154 q 670 1202 654 1178 q 692 1263 687 1227 l 743 1263 z "},"ğ":{"ha":722,"x_min":24,"x_max":695,"o":"m 317 -334 q 101 -280 178 -334 q 24 -130 24 -227 q 71 -2 24 -56 q 198 63 118 52 q 146 104 166 78 q 126 163 126 130 q 150 234 126 201 q 221 295 174 267 q 121 373 157 318 q 84 507 84 429 q 116 636 84 581 q 207 721 148 691 q 345 751 265 751 q 390 750 370 751 q 427 746 410 749 q 457 738 444 743 l 695 738 l 695 689 l 543 679 q 588 601 573 643 q 603 513 603 559 q 534 339 603 404 q 341 275 465 275 q 275 281 307 275 q 212 232 233 256 q 190 170 190 207 q 203 133 190 147 q 243 110 217 118 q 306 102 269 102 l 435 102 q 619 54 555 102 q 683 -90 683 5 q 588 -270 683 -206 q 317 -334 492 -334 m 322 -276 q 484 -255 419 -276 q 581 -193 549 -234 q 614 -92 614 -152 q 590 -15 614 -42 q 523 23 566 12 q 420 33 479 33 l 297 33 q 192 17 238 33 q 120 -33 146 1 q 95 -125 95 -68 q 153 -238 95 -199 q 322 -276 211 -276 m 344 330 q 484 376 435 330 q 533 509 533 422 q 483 650 533 603 q 342 696 433 696 q 205 647 255 696 q 155 507 155 597 q 203 376 155 422 q 344 330 250 330 m 532 1008 q 502 919 526 956 q 439 862 479 882 q 342 842 399 842 q 210 885 256 842 q 157 1008 163 929 l 206 1008 q 227 947 210 971 q 272 911 243 923 q 343 899 301 899 q 414 911 385 899 q 459 948 443 924 q 481 1008 476 972 l 532 1008 z "},"Ġ":{"ha":1004,"x_min":86,"x_max":895,"o":"m 531 500 l 895 500 l 895 45 q 743 1 824 16 q 572 -14 663 -14 q 306 46 414 -14 q 142 220 197 106 q 86 494 86 334 q 147 760 86 644 q 321 941 208 876 q 592 1007 434 1007 q 746 992 673 1007 q 883 947 818 977 l 855 885 q 724 930 791 915 q 589 945 657 945 q 358 887 454 945 q 210 729 261 830 q 159 495 159 627 q 208 246 159 345 q 353 98 258 147 q 585 48 448 48 q 719 59 659 48 q 826 87 778 70 l 826 437 l 531 437 l 531 500 m 550 1264 q 588 1249 576 1264 q 600 1208 600 1234 q 588 1167 600 1182 q 550 1152 576 1152 q 513 1167 526 1152 q 501 1208 501 1182 q 513 1249 501 1234 q 550 1264 526 1264 z "},"ġ":{"ha":722,"x_min":24,"x_max":695,"o":"m 317 -334 q 101 -280 178 -334 q 24 -130 24 -227 q 71 -2 24 -56 q 198 63 118 52 q 146 104 166 78 q 126 163 126 130 q 150 234 126 201 q 221 295 174 267 q 121 373 157 318 q 84 507 84 429 q 116 636 84 581 q 207 721 148 691 q 345 751 265 751 q 390 750 370 751 q 427 746 410 749 q 457 738 444 743 l 695 738 l 695 689 l 543 679 q 588 601 573 643 q 603 513 603 559 q 534 339 603 404 q 341 275 465 275 q 275 281 307 275 q 212 232 233 256 q 190 170 190 207 q 203 133 190 147 q 243 110 217 118 q 306 102 269 102 l 435 102 q 619 54 555 102 q 683 -90 683 5 q 588 -270 683 -206 q 317 -334 492 -334 m 322 -276 q 484 -255 419 -276 q 581 -193 549 -234 q 614 -92 614 -152 q 590 -15 614 -42 q 523 23 566 12 q 420 33 479 33 l 297 33 q 192 17 238 33 q 120 -33 146 1 q 95 -125 95 -68 q 153 -238 95 -199 q 322 -276 211 -276 m 344 330 q 484 376 435 330 q 533 509 533 422 q 483 650 533 603 q 342 696 433 696 q 205 647 255 696 q 155 507 155 597 q 203 376 155 422 q 344 330 250 330 m 344 1010 q 382 995 370 1010 q 394 954 394 979 q 382 913 394 928 q 344 898 370 898 q 307 913 319 898 q 295 954 295 928 q 307 995 295 979 q 344 1010 319 1010 z "},"Ģ":{"ha":1004,"x_min":86,"x_max":895,"o":"m 531 500 l 895 500 l 895 45 q 743 1 824 16 q 572 -14 663 -14 q 306 46 414 -14 q 142 220 197 106 q 86 494 86 334 q 147 760 86 644 q 321 941 208 876 q 592 1007 434 1007 q 746 992 673 1007 q 883 947 818 977 l 855 885 q 724 930 791 915 q 589 945 657 945 q 358 887 454 945 q 210 729 261 830 q 159 495 159 627 q 208 246 159 345 q 353 98 258 147 q 585 48 448 48 q 719 59 659 48 q 826 87 778 70 l 826 437 l 531 437 l 531 500 m 606 -85 l 606 -94 q 585 -163 599 -126 q 553 -238 572 -201 q 513 -307 535 -275 l 474 -307 l 474 -295 q 497 -235 485 -273 q 521 -156 510 -197 q 536 -85 532 -115 l 606 -85 z "},"ģ":{"ha":722,"x_min":24,"x_max":695,"o":"m 422 1060 l 422 1048 q 398 988 412 1027 q 375 909 385 950 q 360 838 364 867 l 290 838 l 290 848 q 311 917 298 880 q 342 991 324 954 q 382 1060 361 1028 l 422 1060 m 317 -334 q 101 -280 178 -334 q 24 -130 24 -227 q 71 -2 24 -56 q 198 63 118 52 q 146 104 166 78 q 126 163 126 130 q 150 234 126 201 q 221 295 174 267 q 121 373 157 318 q 84 507 84 429 q 116 636 84 581 q 207 721 148 691 q 345 751 265 751 q 390 750 370 751 q 427 746 410 749 q 457 738 444 743 l 695 738 l 695 689 l 543 679 q 588 601 573 643 q 603 513 603 559 q 534 339 603 404 q 341 275 465 275 q 275 281 307 275 q 212 232 233 256 q 190 170 190 207 q 203 133 190 147 q 243 110 217 118 q 306 102 269 102 l 435 102 q 619 54 555 102 q 683 -90 683 5 q 588 -270 683 -206 q 317 -334 492 -334 m 322 -276 q 484 -255 419 -276 q 581 -193 549 -234 q 614 -92 614 -152 q 590 -15 614 -42 q 523 23 566 12 q 420 33 479 33 l 297 33 q 192 17 238 33 q 120 -33 146 1 q 95 -125 95 -68 q 153 -238 95 -199 q 322 -276 211 -276 m 344 330 q 484 376 435 330 q 533 509 533 422 q 483 650 533 603 q 342 696 433 696 q 205 647 255 696 q 155 507 155 597 q 203 376 155 422 q 344 330 250 330 z "},"Ĥ":{"ha":999,"x_min":140,"x_max":859,"o":"m 859 0 l 789 0 l 789 488 l 210 488 l 210 0 l 140 0 l 140 991 l 210 991 l 210 552 l 789 552 l 789 991 l 859 991 l 859 0 m 539 1316 q 585 1248 556 1286 q 645 1172 613 1210 q 703 1107 677 1135 l 703 1096 l 653 1096 q 576 1171 615 1128 q 506 1251 538 1213 q 435 1171 473 1213 q 358 1096 396 1128 l 309 1096 l 309 1107 q 366 1172 334 1135 q 427 1248 398 1210 q 473 1316 456 1286 l 539 1316 z "},"ĥ":{"ha":820,"x_min":-41,"x_max":704,"o":"m 191 1055 l 191 711 q 190 655 191 681 q 186 603 189 629 l 191 603 q 244 678 210 645 q 329 731 278 711 q 446 751 379 751 q 587 722 530 751 q 674 634 644 693 q 704 482 704 575 l 704 0 l 636 0 l 636 478 q 586 640 636 588 q 440 691 536 691 q 303 660 359 691 q 219 565 248 628 q 191 406 191 501 l 191 0 l 122 0 l 122 1055 l 191 1055 m 189 1379 q 235 1312 206 1350 q 295 1236 263 1274 q 353 1171 328 1198 l 353 1160 l 303 1160 q 227 1234 265 1192 q 156 1315 188 1276 q 85 1234 123 1276 q 8 1160 46 1192 l -41 1160 l -41 1171 q 16 1236 -16 1198 q 77 1312 48 1274 q 123 1379 106 1350 l 189 1379 z "},"Ħ":{"ha":999,"x_min":0,"x_max":998,"o":"m 140 0 l 140 749 l 0 749 l 0 808 l 140 808 l 140 991 l 210 991 l 210 808 l 789 808 l 789 991 l 859 991 l 859 808 l 998 808 l 998 749 l 859 749 l 859 0 l 789 0 l 789 488 l 210 488 l 210 0 l 140 0 m 210 552 l 789 552 l 789 749 l 210 749 l 210 552 z "},"ħ":{"ha":820,"x_min":19,"x_max":704,"o":"m 191 1055 l 191 918 l 511 918 l 511 861 l 191 861 l 191 700 q 190 645 191 671 q 186 593 189 620 l 191 593 q 244 668 210 635 q 329 722 278 702 q 446 741 380 741 q 587 712 530 741 q 674 624 644 684 q 704 472 704 564 l 704 0 l 636 0 l 636 468 q 586 629 636 577 q 440 681 536 681 q 303 649 359 681 q 219 555 248 618 q 191 396 191 492 l 191 0 l 122 0 l 122 861 l 19 861 l 19 918 l 122 918 l 122 1055 l 191 1055 z "},"Ĩ":{"ha":350,"x_min":-60,"x_max":413,"o":"m 140 0 l 140 991 l 210 991 l 210 0 l 140 0 m -60 1107 q -47 1172 -57 1144 q -19 1219 -37 1200 q 22 1248 -2 1238 q 74 1258 45 1258 q 134 1244 107 1258 q 184 1211 161 1230 q 231 1178 208 1192 q 280 1163 254 1163 q 334 1183 311 1163 q 365 1259 357 1203 l 413 1259 q 370 1146 406 1186 q 277 1106 334 1106 q 218 1120 244 1106 q 168 1153 191 1135 q 122 1186 145 1172 q 71 1201 98 1201 q 18 1181 40 1201 q -12 1107 -5 1161 l -60 1107 z "},"ĩ":{"ha":314,"x_min":-102,"x_max":372,"o":"m 191 0 l 122 0 l 122 737 l 191 737 l 191 0 m -102 852 q -88 918 -98 890 q -61 965 -78 946 q -20 994 -43 984 q 33 1004 4 1004 q 93 989 66 1004 q 143 957 119 975 q 190 923 166 938 q 239 909 213 909 q 293 929 270 909 q 323 1004 316 949 l 372 1004 q 329 892 365 932 q 236 852 293 852 q 176 866 203 852 q 127 899 150 880 q 80 932 104 918 q 29 947 57 947 q -24 927 -1 947 q -54 852 -46 907 l -102 852 z "},"Ī":{"ha":350,"x_min":-12,"x_max":363,"o":"m 140 0 l 140 991 l 210 991 l 210 0 l 140 0 m 363 1160 l 363 1103 l -12 1103 l -12 1160 l 363 1160 z "},"ī":{"ha":314,"x_min":-32,"x_max":344,"o":"m 191 0 l 122 0 l 122 737 l 191 737 l 191 0 m 344 906 l 344 848 l -32 848 l -32 906 l 344 906 z "},"Ĭ":{"ha":350,"x_min":-12,"x_max":363,"o":"m 140 0 l 140 991 l 210 991 l 210 0 l 140 0 m 363 1263 q 334 1173 357 1211 q 271 1116 311 1136 q 174 1096 231 1096 q 41 1140 88 1096 q -12 1263 -5 1183 l 38 1263 q 58 1201 42 1225 q 104 1165 75 1177 q 175 1154 133 1154 q 246 1166 217 1154 q 291 1202 275 1178 q 313 1263 308 1227 l 363 1263 z "},"ĭ":{"ha":314,"x_min":-31,"x_max":345,"o":"m 191 0 l 122 0 l 122 737 l 191 737 l 191 0 m 345 1008 q 315 919 338 956 q 252 862 292 882 q 155 842 212 842 q 22 885 69 842 q -31 1008 -24 929 l 19 1008 q 39 947 23 971 q 85 911 56 923 q 156 899 114 899 q 227 911 198 899 q 272 948 256 924 q 294 1008 289 972 l 345 1008 z "},"Į":{"ha":350,"x_min":34,"x_max":235,"o":"m 140 0 l 140 991 l 210 991 l 210 0 l 140 0 m 94 -174 q 113 -231 94 -211 q 168 -250 132 -250 q 206 -248 189 -250 q 235 -241 223 -245 l 235 -292 q 201 -299 220 -296 q 159 -303 182 -303 q 67 -272 101 -303 q 34 -182 34 -241 q 51 -112 34 -146 q 97 -45 67 -77 q 169 18 127 -12 l 210 0 q 127 -82 161 -40 q 94 -174 94 -125 z "},"į":{"ha":314,"x_min":12,"x_max":213,"o":"m 191 737 l 191 0 l 122 0 l 122 737 l 191 737 m 157 1010 q 195 995 183 1010 q 208 954 208 979 q 195 913 208 928 q 157 898 183 898 q 121 913 133 898 q 109 954 109 928 q 121 995 109 979 q 157 1010 133 1010 m 72 -174 q 91 -231 72 -211 q 146 -250 110 -250 q 184 -248 167 -250 q 213 -241 201 -245 l 213 -292 q 180 -299 199 -296 q 137 -303 161 -303 q 46 -272 79 -303 q 12 -182 12 -241 q 29 -112 12 -146 q 76 -45 45 -77 q 147 18 106 -12 l 188 0 q 106 -82 140 -40 q 72 -174 72 -125 z "},"İ":{"ha":350,"x_min":127,"x_max":226,"o":"m 140 0 l 140 991 l 210 991 l 210 0 l 140 0 m 176 1264 q 214 1249 201 1264 q 226 1208 226 1234 q 214 1167 226 1182 q 176 1152 201 1152 q 139 1167 151 1152 q 127 1208 127 1182 q 139 1249 127 1234 q 176 1264 151 1264 z "},"Ĳ":{"ha":692,"x_min":140,"x_max":559,"o":"m 140 0 l 140 991 l 210 991 l 210 0 l 140 0 m 332 -250 q 269 -245 295 -250 q 224 -233 242 -240 l 224 -169 q 272 -181 244 -176 q 330 -186 300 -186 q 420 -164 385 -186 q 473 -100 456 -142 q 490 6 490 -57 l 490 991 l 559 991 l 559 7 q 535 -129 559 -71 q 460 -218 510 -187 q 332 -250 410 -250 z "},"ĳ":{"ha":628,"x_min":109,"x_max":522,"o":"m 191 737 l 191 0 l 122 0 l 122 737 l 191 737 m 157 1010 q 195 995 183 1010 q 208 954 208 979 q 195 913 208 928 q 157 898 183 898 q 121 913 133 898 q 109 954 109 928 q 121 995 109 979 q 157 1010 133 1010 m 335 -334 q 282 -329 305 -334 q 242 -318 259 -325 l 242 -259 q 284 -270 263 -267 q 330 -273 306 -273 q 409 -241 381 -273 q 436 -144 436 -210 l 436 737 l 505 737 l 505 -146 q 484 -249 505 -207 q 425 -312 463 -291 q 335 -334 387 -334 m 422 954 q 435 995 422 979 q 471 1010 447 1010 q 509 995 497 1010 q 522 954 522 979 q 509 913 522 928 q 471 898 497 898 q 435 913 447 898 q 422 954 422 928 z "},"Ĵ":{"ha":342,"x_min":-125,"x_max":372,"o":"m -18 -250 q -81 -245 -55 -250 q -125 -233 -108 -240 l -125 -169 q -78 -181 -106 -176 q -20 -186 -50 -186 q 71 -164 35 -186 q 123 -100 106 -142 q 140 6 140 -57 l 140 991 l 210 991 l 210 7 q 185 -129 210 -71 q 110 -218 160 -187 q -18 -250 60 -250 m 208 1316 q 253 1248 224 1286 q 314 1172 281 1210 q 372 1107 346 1135 l 372 1096 l 321 1096 q 245 1171 283 1128 q 174 1251 206 1213 q 103 1171 142 1213 q 26 1096 64 1128 l -23 1096 l -23 1107 q 35 1172 3 1135 q 96 1248 66 1210 q 141 1316 125 1286 l 208 1316 z "},"ĵ":{"ha":314,"x_min":-72,"x_max":354,"o":"m 21 -334 q -32 -329 -9 -334 q -72 -318 -55 -325 l -72 -259 q -30 -270 -51 -267 q 16 -273 -8 -273 q 95 -241 67 -273 q 122 -144 122 -210 l 122 737 l 191 737 l 191 -146 q 170 -249 191 -207 q 111 -312 149 -291 q 21 -334 73 -334 m 190 1061 q 235 994 207 1032 q 296 918 264 956 q 354 852 328 880 l 354 842 l 304 842 q 227 916 266 874 q 157 997 189 958 q 85 916 124 958 q 9 842 47 874 l -41 842 l -41 852 q 17 918 -15 880 q 78 994 49 956 q 123 1061 107 1032 l 190 1061 z "},"Ķ":{"ha":807,"x_min":140,"x_max":807,"o":"m 807 0 l 722 0 l 338 523 l 210 399 l 210 0 l 140 0 l 140 991 l 210 991 l 210 470 q 262 527 235 498 q 317 586 290 556 l 709 991 l 795 991 l 390 572 l 807 0 m 492 -85 l 492 -94 q 471 -163 485 -126 q 439 -238 458 -201 q 399 -307 421 -275 l 360 -307 l 360 -295 q 384 -235 371 -273 q 407 -156 396 -197 q 422 -85 418 -115 l 492 -85 z "},"ķ":{"ha":672,"x_min":122,"x_max":672,"o":"m 191 1055 l 191 523 q 190 422 191 473 q 187 320 189 371 l 189 320 q 230 369 208 343 q 272 418 251 394 l 564 737 l 646 737 l 355 421 l 672 0 l 590 0 l 309 376 l 191 252 l 191 0 l 122 0 l 122 1055 l 191 1055 m 408 -85 l 408 -94 q 387 -163 401 -126 q 355 -238 374 -201 q 315 -307 337 -275 l 276 -307 l 276 -295 q 299 -235 287 -273 q 323 -156 312 -197 q 338 -85 334 -115 l 408 -85 z "},"ĸ":{"ha":672,"x_min":122,"x_max":672,"o":"m 646 737 l 363 416 l 672 0 l 591 0 l 315 372 l 194 247 l 194 0 l 122 0 l 122 737 l 194 737 l 194 541 q 193 421 194 479 q 189 313 192 364 l 189 313 q 225 355 210 336 q 260 395 241 374 l 561 737 l 646 737 z "},"Ĺ":{"ha":712,"x_min":124,"x_max":682,"o":"m 140 0 l 140 991 l 210 991 l 210 64 l 682 64 l 682 0 l 140 0 m 376 1318 l 376 1307 q 336 1258 359 1285 q 284 1201 312 1230 q 228 1145 256 1172 q 173 1096 199 1118 l 124 1096 l 124 1107 q 184 1172 151 1135 q 246 1249 216 1210 q 294 1318 275 1288 l 376 1318 z "},"ĺ":{"ha":314,"x_min":103,"x_max":355,"o":"m 192 0 l 123 0 l 123 1055 l 192 1055 l 192 0 m 355 1382 l 355 1371 q 315 1321 338 1349 q 263 1265 291 1294 q 207 1208 235 1236 q 152 1160 178 1181 l 103 1160 l 103 1171 q 163 1236 130 1198 q 225 1313 195 1274 q 273 1382 254 1352 l 355 1382 z "},"Ļ":{"ha":712,"x_min":140,"x_max":682,"o":"m 140 0 l 140 991 l 210 991 l 210 64 l 682 64 l 682 0 l 140 0 m 460 -85 l 460 -94 q 439 -163 453 -126 q 408 -238 426 -201 q 368 -307 389 -275 l 328 -307 l 328 -295 q 352 -235 339 -273 q 375 -156 364 -197 q 390 -85 387 -115 l 460 -85 z "},"ļ":{"ha":314,"x_min":78,"x_max":210,"o":"m 192 0 l 123 0 l 123 1055 l 192 1055 l 192 0 m 210 -85 l 210 -94 q 189 -163 203 -126 q 157 -238 176 -201 q 117 -307 139 -275 l 78 -307 l 78 -295 q 101 -235 89 -273 q 125 -156 114 -197 q 140 -85 136 -115 l 210 -85 z "},"Ľ":{"ha":712,"x_min":140,"x_max":682,"o":"m 140 0 l 140 991 l 210 991 l 210 64 l 682 64 l 682 0 l 140 0 m 669 991 l 669 982 q 648 913 662 950 q 618 839 635 876 q 581 770 601 802 l 541 770 l 541 781 q 557 825 549 798 q 575 881 566 851 q 590 940 583 911 q 599 991 596 969 l 669 991 z "},"ľ":{"ha":314,"x_min":123,"x_max":374,"o":"m 192 0 l 123 0 l 123 1055 l 192 1055 l 192 0 m 374 1055 l 374 1046 q 353 977 366 1014 q 322 902 339 939 q 285 833 305 865 l 245 833 l 245 845 q 262 888 253 862 q 279 945 271 915 q 294 1004 288 975 q 303 1055 300 1033 l 374 1055 z "},"Ŀ":{"ha":712,"x_min":140,"x_max":682,"o":"m 140 0 l 140 991 l 210 991 l 210 64 l 682 64 l 682 0 l 140 0 m 509 584 q 547 569 535 584 q 559 528 559 553 q 547 487 559 502 q 509 472 535 472 q 473 487 485 472 q 460 528 460 502 q 473 569 460 553 q 509 584 485 584 z "},"ŀ":{"ha":319,"x_min":123,"x_max":367,"o":"m 192 0 l 123 0 l 123 1055 l 192 1055 l 192 0 m 317 592 q 355 577 342 592 q 367 536 367 562 q 355 495 367 510 q 317 480 342 480 q 280 495 292 480 q 268 536 268 510 q 280 577 268 562 q 317 592 292 592 z "},"Ł":{"ha":712,"x_min":16,"x_max":682,"o":"m 140 0 l 140 374 l 47 316 l 16 366 l 140 444 l 140 991 l 210 991 l 210 486 l 429 624 l 461 572 l 210 416 l 210 64 l 682 64 l 682 0 l 140 0 z "},"ł":{"ha":314,"x_min":4,"x_max":324,"o":"m 123 0 l 123 443 l 35 385 l 4 433 l 123 511 l 123 1055 l 191 1055 l 191 553 l 294 624 l 324 576 l 191 487 l 191 0 l 123 0 z "},"Ń":{"ha":1002,"x_min":140,"x_max":861,"o":"m 861 0 l 790 0 l 204 877 l 201 877 q 203 803 202 840 q 205 725 204 765 q 206 644 206 686 l 206 0 l 140 0 l 140 991 l 212 991 l 795 117 l 799 117 q 797 186 798 147 q 795 267 796 226 q 794 345 794 309 l 794 991 l 861 991 l 861 0 m 700 1318 l 700 1307 q 660 1258 684 1285 q 608 1201 636 1230 q 552 1145 581 1172 q 497 1096 524 1118 l 448 1096 l 448 1107 q 508 1172 475 1135 q 570 1249 541 1210 q 618 1318 600 1288 l 700 1318 z "},"ń":{"ha":820,"x_min":122,"x_max":704,"o":"m 447 751 q 637 686 571 751 q 704 482 704 621 l 704 0 l 636 0 l 636 478 q 586 640 636 588 q 440 691 536 691 q 255 620 319 691 q 191 406 191 549 l 191 0 l 122 0 l 122 737 l 178 737 l 188 603 l 192 603 q 246 678 212 644 q 330 731 280 711 q 447 751 380 751 m 623 1064 l 623 1053 q 583 1003 606 1031 q 531 947 559 976 q 475 890 503 918 q 420 842 446 863 l 371 842 l 371 853 q 431 918 398 880 q 493 995 463 956 q 541 1064 522 1034 l 623 1064 z "},"Ņ":{"ha":1002,"x_min":140,"x_max":861,"o":"m 861 0 l 790 0 l 204 877 l 201 877 q 203 803 202 840 q 205 725 204 765 q 206 644 206 686 l 206 0 l 140 0 l 140 991 l 212 991 l 795 117 l 799 117 q 797 186 798 147 q 795 267 796 226 q 794 345 794 309 l 794 991 l 861 991 l 861 0 m 555 -85 l 555 -94 q 534 -163 548 -126 q 503 -238 521 -201 q 463 -307 484 -275 l 423 -307 l 423 -295 q 447 -235 434 -273 q 470 -156 459 -197 q 485 -85 481 -115 l 555 -85 z "},"ņ":{"ha":820,"x_min":122,"x_max":704,"o":"m 447 751 q 637 686 571 751 q 704 482 704 621 l 704 0 l 636 0 l 636 478 q 586 640 636 588 q 440 691 536 691 q 255 620 319 691 q 191 406 191 549 l 191 0 l 122 0 l 122 737 l 178 737 l 188 603 l 192 603 q 246 678 212 644 q 330 731 280 711 q 447 751 380 751 m 469 -85 l 469 -94 q 448 -163 461 -126 q 416 -238 434 -201 q 376 -307 397 -275 l 336 -307 l 336 -295 q 360 -235 347 -273 q 384 -156 372 -197 q 398 -85 395 -115 l 469 -85 z "},"Ň":{"ha":1002,"x_min":140,"x_max":861,"o":"m 861 0 l 790 0 l 204 877 l 201 877 q 203 803 202 840 q 205 725 204 765 q 206 644 206 686 l 206 0 l 140 0 l 140 991 l 212 991 l 795 117 l 799 117 q 797 186 798 147 q 795 267 796 226 q 794 345 794 309 l 794 991 l 861 991 l 861 0 m 466 1096 q 420 1163 449 1126 q 360 1238 392 1201 q 303 1303 329 1276 l 303 1316 l 353 1316 q 429 1241 391 1283 q 498 1159 467 1198 q 570 1241 531 1198 q 648 1316 610 1283 l 698 1316 l 698 1303 q 640 1238 672 1276 q 578 1163 607 1201 q 532 1096 549 1126 l 466 1096 z "},"ň":{"ha":820,"x_min":122,"x_max":704,"o":"m 447 751 q 637 686 571 751 q 704 482 704 621 l 704 0 l 636 0 l 636 478 q 586 640 636 588 q 440 691 536 691 q 255 620 319 691 q 191 406 191 549 l 191 0 l 122 0 l 122 737 l 178 737 l 188 603 l 192 603 q 246 678 212 644 q 330 731 280 711 q 447 751 380 751 m 389 842 q 344 909 372 871 q 284 984 315 947 q 227 1049 252 1021 l 227 1061 l 276 1061 q 352 986 314 1029 q 422 905 391 944 q 494 986 454 944 q 571 1061 533 1029 l 621 1061 l 621 1049 q 563 984 595 1021 q 501 909 530 947 q 455 842 472 871 l 389 842 z "},"ŉ":{"ha":861,"x_min":1,"x_max":745,"o":"m 488 751 q 679 686 612 751 q 745 482 745 621 l 745 0 l 677 0 l 677 478 q 627 640 677 588 q 481 691 577 691 q 296 620 360 691 q 232 406 232 549 l 232 0 l 163 0 l 163 737 l 219 737 l 229 603 l 233 603 q 287 678 253 644 q 372 731 321 711 q 488 751 422 751 m 147 991 l 157 978 q 130 867 146 924 q 92 755 113 810 q 50 652 72 701 l 1 652 q 27 733 14 689 q 51 822 40 777 q 69 911 61 867 q 81 991 77 954 l 147 991 z "},"Ŋ":{"ha":1002,"x_min":140,"x_max":861,"o":"m 633 -250 q 571 -244 601 -250 q 525 -232 542 -239 l 525 -171 q 575 -182 547 -178 q 633 -186 603 -186 q 719 -166 682 -186 q 774 -104 755 -147 q 794 8 794 -62 l 204 877 l 201 877 q 203 803 202 842 q 205 721 204 763 q 206 637 206 680 l 206 0 l 140 0 l 140 991 l 212 991 l 795 127 l 799 127 q 797 199 798 160 q 795 280 795 239 q 794 361 794 322 l 794 991 l 861 991 l 861 5 q 834 -134 861 -77 q 757 -220 808 -191 q 633 -250 706 -250 z "},"ŋ":{"ha":820,"x_min":122,"x_max":705,"o":"m 538 -334 q 488 -329 509 -334 q 449 -318 466 -325 l 449 -259 q 489 -270 469 -267 q 532 -273 510 -273 q 609 -241 583 -273 q 636 -144 636 -210 l 636 479 q 586 640 636 588 q 441 691 536 691 q 304 660 360 691 q 219 565 248 628 q 191 407 191 503 l 191 0 l 122 0 l 122 737 l 178 737 l 189 603 l 193 603 q 246 678 212 644 q 330 731 280 711 q 446 751 380 751 q 588 723 530 751 q 675 634 645 694 q 705 483 705 575 l 705 -146 q 684 -249 705 -207 q 626 -312 663 -291 q 538 -334 589 -334 z "},"Ō":{"ha":1061,"x_min":86,"x_max":974,"o":"m 974 497 q 946 290 974 384 q 863 129 918 197 q 724 24 807 61 q 530 -14 641 -14 q 336 24 419 -14 q 197 129 252 61 q 114 291 142 197 q 86 498 86 385 q 137 764 86 649 q 289 943 189 878 q 536 1007 389 1007 q 775 946 677 1007 q 923 770 873 884 q 974 497 974 656 m 159 498 q 199 263 159 365 q 322 105 239 162 q 531 48 405 48 q 741 104 659 48 q 862 262 823 161 q 901 497 901 363 q 809 827 901 709 q 536 944 716 944 q 325 888 409 944 q 200 731 241 831 q 159 498 159 631 m 717 1160 l 717 1103 l 341 1103 l 341 1160 l 717 1160 z "},"ō":{"ha":814,"x_min":80,"x_max":734,"o":"m 734 370 q 713 214 734 284 q 650 93 692 144 q 548 14 609 42 q 405 -14 486 -14 q 267 14 328 -14 q 165 92 207 41 q 102 213 123 143 q 80 370 80 283 q 120 574 80 488 q 234 706 159 660 q 412 751 308 751 q 590 703 519 751 q 698 568 662 654 q 734 370 734 482 m 151 370 q 178 200 151 273 q 263 87 206 127 q 406 46 319 46 q 552 87 495 46 q 636 201 609 127 q 663 370 663 274 q 637 535 663 463 q 556 649 612 608 q 411 691 500 691 q 217 606 283 691 q 151 370 151 520 m 594 906 l 594 848 l 218 848 l 218 906 l 594 906 z "},"Ŏ":{"ha":1061,"x_min":86,"x_max":974,"o":"m 974 497 q 946 290 974 384 q 863 129 918 197 q 724 24 807 61 q 530 -14 641 -14 q 336 24 419 -14 q 197 129 252 61 q 114 291 142 197 q 86 498 86 385 q 137 764 86 649 q 289 943 189 878 q 536 1007 389 1007 q 775 946 677 1007 q 923 770 873 884 q 974 497 974 656 m 159 498 q 199 263 159 365 q 322 105 239 162 q 531 48 405 48 q 741 104 659 48 q 862 262 823 161 q 901 497 901 363 q 809 827 901 709 q 536 944 716 944 q 325 888 409 944 q 200 731 241 831 q 159 498 159 631 m 718 1263 q 689 1173 712 1211 q 625 1116 665 1136 q 529 1096 585 1096 q 396 1140 443 1096 q 343 1263 349 1183 l 393 1263 q 413 1201 397 1225 q 458 1165 429 1177 q 530 1154 488 1154 q 601 1166 572 1154 q 646 1202 629 1178 q 667 1263 663 1227 l 718 1263 z "},"ŏ":{"ha":814,"x_min":80,"x_max":734,"o":"m 734 370 q 713 214 734 284 q 650 93 692 144 q 548 14 609 42 q 405 -14 486 -14 q 267 14 328 -14 q 165 92 207 41 q 102 213 123 143 q 80 370 80 283 q 120 574 80 488 q 234 706 159 660 q 412 751 308 751 q 590 703 519 751 q 698 568 662 654 q 734 370 734 482 m 151 370 q 178 200 151 273 q 263 87 206 127 q 406 46 319 46 q 552 87 495 46 q 636 201 609 127 q 663 370 663 274 q 637 535 663 463 q 556 649 612 608 q 411 691 500 691 q 217 606 283 691 q 151 370 151 520 m 594 1008 q 565 919 588 956 q 501 862 541 882 q 405 842 461 842 q 272 885 319 842 q 219 1008 225 929 l 269 1008 q 289 947 273 971 q 334 911 305 923 q 406 899 363 899 q 476 911 448 899 q 522 948 505 924 q 543 1008 538 972 l 594 1008 z "},"Ő":{"ha":1061,"x_min":86,"x_max":974,"o":"m 974 497 q 946 290 974 384 q 863 129 918 197 q 724 24 807 61 q 530 -14 641 -14 q 336 24 419 -14 q 197 129 252 61 q 114 291 142 197 q 86 498 86 385 q 137 764 86 649 q 289 943 189 878 q 536 1007 389 1007 q 775 946 677 1007 q 923 770 873 884 q 974 497 974 656 m 159 498 q 199 263 159 365 q 322 105 239 162 q 531 48 405 48 q 741 104 659 48 q 862 262 823 161 q 901 497 901 363 q 809 827 901 709 q 536 944 716 944 q 325 888 409 944 q 200 731 241 831 q 159 498 159 631 m 820 1318 l 820 1307 q 786 1257 806 1284 q 743 1201 766 1230 q 695 1145 720 1172 q 649 1096 671 1118 l 604 1096 l 604 1107 q 654 1172 627 1135 q 705 1248 680 1209 q 744 1318 729 1287 l 820 1318 m 590 1318 l 590 1307 q 556 1257 576 1284 q 513 1201 536 1230 q 465 1145 489 1172 q 418 1096 440 1118 l 374 1096 l 374 1107 q 423 1172 397 1135 q 474 1248 450 1209 q 513 1318 498 1287 l 590 1318 z "},"ő":{"ha":814,"x_min":80,"x_max":734,"o":"m 734 370 q 713 214 734 284 q 650 93 692 144 q 548 14 609 42 q 405 -14 486 -14 q 267 14 328 -14 q 165 92 207 41 q 102 213 123 143 q 80 370 80 283 q 120 574 80 488 q 234 706 159 660 q 412 751 308 751 q 590 703 519 751 q 698 568 662 654 q 734 370 734 482 m 151 370 q 178 200 151 273 q 263 87 206 127 q 406 46 319 46 q 552 87 495 46 q 636 201 609 127 q 663 370 663 274 q 637 535 663 463 q 556 649 612 608 q 411 691 500 691 q 217 606 283 691 q 151 370 151 520 m 696 1064 l 696 1053 q 663 1003 683 1030 q 620 946 643 975 q 572 890 596 918 q 526 842 547 863 l 481 842 l 481 853 q 530 918 504 880 q 581 994 557 955 q 621 1064 606 1033 l 696 1064 m 467 1064 l 467 1053 q 433 1003 453 1030 q 389 946 413 975 q 341 890 366 918 q 294 842 317 863 l 250 842 l 250 853 q 300 918 273 880 q 351 994 326 955 q 390 1064 375 1033 l 467 1064 z "},"Œ":{"ha":1263,"x_min":86,"x_max":1179,"o":"m 530 1000 q 593 998 565 1000 q 655 991 622 996 l 1179 991 l 1179 928 l 718 928 l 718 553 l 1152 553 l 1152 490 l 718 490 l 718 63 l 1179 63 l 1179 0 l 650 0 q 594 -5 624 -3 q 530 -7 565 -7 q 283 56 382 -7 q 135 233 184 119 q 86 498 86 347 q 137 762 86 650 q 287 937 188 875 q 530 1000 386 1000 m 534 937 q 368 906 439 937 q 251 817 298 875 q 182 678 205 759 q 159 498 159 597 q 199 264 159 364 q 322 109 239 164 q 531 54 405 54 q 597 58 567 54 q 649 66 627 61 l 649 925 q 599 934 628 930 q 534 937 570 937 z "},"œ":{"ha":1332,"x_min":79,"x_max":1252,"o":"m 972 751 q 1128 707 1066 751 q 1221 587 1190 663 q 1252 411 1252 510 l 1252 361 l 726 361 q 794 127 726 207 q 992 47 863 47 q 1112 58 1061 47 q 1223 96 1162 69 l 1223 33 q 1115 -2 1168 9 q 991 -14 1061 -14 q 798 42 871 -14 q 692 195 724 98 q 588 43 660 99 q 403 -14 515 -14 q 228 34 300 -14 q 117 168 155 82 q 79 370 79 254 q 119 574 79 488 q 232 705 158 659 q 409 751 306 751 q 592 693 523 751 q 692 539 662 635 q 751 649 713 602 q 845 724 789 697 q 972 751 900 751 m 407 691 q 215 607 280 691 q 151 370 151 523 q 178 198 151 271 q 261 86 205 125 q 403 46 317 46 q 547 86 491 46 q 629 198 603 125 q 656 368 656 270 q 630 536 656 463 q 550 650 605 610 q 407 691 496 691 m 972 692 q 803 623 867 692 q 728 420 739 553 l 1180 420 q 1158 563 1181 501 q 1089 658 1136 624 q 972 692 1043 692 z "},"Ŕ":{"ha":825,"x_min":140,"x_max":794,"o":"m 380 991 q 577 966 498 991 q 696 881 656 940 q 736 722 736 822 q 709 592 736 646 q 633 504 682 538 q 522 451 585 469 l 794 0 l 711 0 l 456 431 l 210 431 l 210 0 l 140 0 l 140 991 l 380 991 m 374 930 l 210 930 l 210 493 l 407 493 q 596 551 528 493 q 665 719 665 610 q 593 884 665 839 q 374 930 521 930 m 627 1318 l 627 1307 q 587 1258 611 1285 q 536 1201 564 1230 q 479 1145 508 1172 q 425 1096 451 1118 l 376 1096 l 376 1107 q 435 1172 403 1135 q 497 1249 468 1210 q 546 1318 527 1288 l 627 1318 z "},"ŕ":{"ha":541,"x_min":123,"x_max":519,"o":"m 416 750 q 471 747 445 750 q 519 737 496 743 l 508 674 q 463 683 486 680 q 413 686 439 686 q 320 667 361 686 q 250 610 279 647 q 207 522 222 574 q 192 407 192 471 l 192 0 l 123 0 l 123 737 l 182 737 l 189 598 l 193 598 q 240 675 210 641 q 315 730 271 709 q 416 750 359 750 m 510 1064 l 510 1053 q 470 1003 494 1031 q 418 947 446 976 q 362 890 391 918 q 307 842 334 863 l 258 842 l 258 853 q 318 918 286 880 q 380 995 351 956 q 429 1064 410 1034 l 510 1064 z "},"Ŗ":{"ha":825,"x_min":140,"x_max":794,"o":"m 380 991 q 577 966 498 991 q 696 881 656 940 q 736 722 736 822 q 709 592 736 646 q 633 504 682 538 q 522 451 585 469 l 794 0 l 711 0 l 456 431 l 210 431 l 210 0 l 140 0 l 140 991 l 380 991 m 374 930 l 210 930 l 210 493 l 407 493 q 596 551 528 493 q 665 719 665 610 q 593 884 665 839 q 374 930 521 930 m 491 -85 l 491 -94 q 470 -163 484 -126 q 438 -238 456 -201 q 398 -307 420 -275 l 359 -307 l 359 -295 q 382 -235 370 -273 q 406 -156 395 -197 q 420 -85 417 -115 l 491 -85 z "},"ŗ":{"ha":541,"x_min":78,"x_max":519,"o":"m 416 750 q 471 747 445 750 q 519 737 496 743 l 508 674 q 463 683 486 680 q 413 686 439 686 q 320 667 361 686 q 250 610 279 647 q 207 522 222 574 q 192 407 192 471 l 192 0 l 123 0 l 123 737 l 182 737 l 189 598 l 193 598 q 240 675 210 641 q 315 730 271 709 q 416 750 359 750 m 210 -85 l 210 -94 q 189 -163 203 -126 q 157 -238 176 -201 q 117 -307 139 -275 l 78 -307 l 78 -295 q 101 -235 89 -273 q 125 -156 114 -197 q 140 -85 136 -115 l 210 -85 z "},"Ř":{"ha":825,"x_min":140,"x_max":794,"o":"m 380 991 q 577 966 498 991 q 696 881 656 940 q 736 722 736 822 q 709 592 736 646 q 633 504 682 538 q 522 451 585 469 l 794 0 l 711 0 l 456 431 l 210 431 l 210 0 l 140 0 l 140 991 l 380 991 m 374 930 l 210 930 l 210 493 l 407 493 q 596 551 528 493 q 665 719 665 610 q 593 884 665 839 q 374 930 521 930 m 394 1096 q 349 1163 377 1126 q 289 1238 320 1201 q 231 1303 257 1276 l 231 1316 l 281 1316 q 357 1241 319 1283 q 427 1159 395 1198 q 498 1241 459 1198 q 576 1316 538 1283 l 626 1316 l 626 1303 q 568 1238 600 1276 q 506 1163 535 1201 q 460 1096 477 1126 l 394 1096 z "},"ř":{"ha":541,"x_min":114,"x_max":519,"o":"m 416 750 q 471 747 445 750 q 519 737 496 743 l 508 674 q 463 683 486 680 q 413 686 439 686 q 320 667 361 686 q 250 610 279 647 q 207 522 222 574 q 192 407 192 471 l 192 0 l 123 0 l 123 737 l 182 737 l 189 598 l 193 598 q 240 675 210 641 q 315 730 271 709 q 416 750 359 750 m 277 842 q 231 909 260 871 q 171 984 203 947 q 114 1049 140 1021 l 114 1061 l 163 1061 q 240 986 201 1029 q 309 905 278 944 q 381 986 342 944 q 458 1061 420 1029 l 509 1061 l 509 1049 q 450 984 483 1021 q 389 909 418 947 q 342 842 359 871 l 277 842 z "},"Ś":{"ha":758,"x_min":75,"x_max":686,"o":"m 686 256 q 641 107 686 167 q 519 17 596 47 q 346 -14 443 -14 q 236 -8 286 -14 q 148 7 187 -2 q 75 29 108 17 l 75 99 q 198 63 128 79 q 349 48 267 48 q 487 71 427 48 q 581 138 547 93 q 616 253 616 184 q 587 353 616 314 q 500 420 558 392 q 355 477 443 448 q 244 522 294 498 q 159 576 195 545 q 105 651 124 607 q 87 754 87 694 q 129 892 87 836 q 242 977 170 948 q 403 1006 313 1006 q 538 992 474 1006 q 662 953 602 979 l 637 892 q 518 930 578 918 q 400 943 458 943 q 276 922 330 943 q 189 860 221 901 q 157 755 157 819 q 187 650 157 690 q 271 584 216 610 q 400 532 326 557 q 552 470 488 503 q 651 387 616 437 q 686 256 686 336 m 592 1318 l 592 1307 q 552 1258 576 1285 q 500 1201 528 1230 q 444 1145 473 1172 q 389 1096 416 1118 l 340 1096 l 340 1107 q 400 1172 368 1135 q 462 1249 433 1210 q 511 1318 492 1288 l 592 1318 z "},"ś":{"ha":647,"x_min":61,"x_max":583,"o":"m 583 193 q 550 81 583 127 q 454 11 517 35 q 299 -14 391 -14 q 162 0 222 -14 q 61 33 102 14 l 61 101 q 174 60 112 76 q 300 45 235 45 q 465 83 414 45 q 515 189 515 122 q 490 262 515 233 q 419 312 465 291 q 308 355 373 333 q 188 400 240 378 q 105 461 135 423 q 75 564 75 498 q 146 702 75 652 q 338 751 218 751 q 461 739 404 751 q 566 707 519 726 l 541 648 q 444 680 499 668 q 334 692 389 692 q 193 661 244 692 q 142 567 142 629 q 167 493 142 519 q 237 448 191 466 q 345 408 282 430 q 464 361 409 386 q 551 298 518 337 q 583 193 583 260 m 522 1064 l 522 1053 q 481 1003 505 1031 q 430 947 458 976 q 374 890 402 918 q 319 842 345 863 l 270 842 l 270 853 q 330 918 297 880 q 392 995 362 956 q 440 1064 421 1034 l 522 1064 z "},"Ŝ":{"ha":758,"x_min":75,"x_max":686,"o":"m 686 256 q 641 107 686 167 q 519 17 596 47 q 346 -14 443 -14 q 236 -8 286 -14 q 148 7 187 -2 q 75 29 108 17 l 75 99 q 198 63 128 79 q 349 48 267 48 q 487 71 427 48 q 581 138 547 93 q 616 253 616 184 q 587 353 616 314 q 500 420 558 392 q 355 477 443 448 q 244 522 294 498 q 159 576 195 545 q 105 651 124 607 q 87 754 87 694 q 129 892 87 836 q 242 977 170 948 q 403 1006 313 1006 q 538 992 474 1006 q 662 953 602 979 l 637 892 q 518 930 578 918 q 400 943 458 943 q 276 922 330 943 q 189 860 221 901 q 157 755 157 819 q 187 650 157 690 q 271 584 216 610 q 400 532 326 557 q 552 470 488 503 q 651 387 616 437 q 686 256 686 336 m 428 1316 q 473 1248 445 1286 q 534 1172 502 1210 q 592 1107 566 1135 l 592 1096 l 542 1096 q 465 1171 504 1128 q 395 1251 427 1213 q 323 1171 362 1213 q 247 1096 285 1128 l 197 1096 l 197 1107 q 255 1172 223 1135 q 316 1248 287 1210 q 361 1316 345 1286 l 428 1316 z "},"ŝ":{"ha":647,"x_min":61,"x_max":583,"o":"m 583 193 q 550 81 583 127 q 454 11 517 35 q 299 -14 391 -14 q 162 0 222 -14 q 61 33 102 14 l 61 101 q 174 60 112 76 q 300 45 235 45 q 465 83 414 45 q 515 189 515 122 q 490 262 515 233 q 419 312 465 291 q 308 355 373 333 q 188 400 240 378 q 105 461 135 423 q 75 564 75 498 q 146 702 75 652 q 338 751 218 751 q 461 739 404 751 q 566 707 519 726 l 541 648 q 444 680 499 668 q 334 692 389 692 q 193 661 244 692 q 142 567 142 629 q 167 493 142 519 q 237 448 191 466 q 345 408 282 430 q 464 361 409 386 q 551 298 518 337 q 583 193 583 260 m 357 1061 q 403 994 374 1032 q 464 918 431 956 q 522 852 496 880 l 522 842 l 471 842 q 395 916 433 874 q 324 997 356 958 q 253 916 292 958 q 176 842 214 874 l 127 842 l 127 852 q 184 918 153 880 q 245 994 216 956 q 291 1061 275 1032 l 357 1061 z "},"Ş":{"ha":758,"x_min":75,"x_max":686,"o":"m 686 256 q 641 107 686 167 q 519 17 596 47 q 346 -14 443 -14 q 236 -8 286 -14 q 148 7 187 -2 q 75 29 108 17 l 75 99 q 198 63 128 79 q 349 48 267 48 q 487 71 427 48 q 581 138 547 93 q 616 253 616 184 q 587 353 616 314 q 500 420 558 392 q 355 477 443 448 q 244 522 294 498 q 159 576 195 545 q 105 651 124 607 q 87 754 87 694 q 129 892 87 836 q 242 977 170 948 q 403 1006 313 1006 q 538 992 474 1006 q 662 953 602 979 l 637 892 q 518 930 578 918 q 400 943 458 943 q 276 922 330 943 q 189 860 221 901 q 157 755 157 819 q 187 650 157 690 q 271 584 216 610 q 400 532 326 557 q 552 470 488 503 q 651 387 616 437 q 686 256 686 336 m 486 -198 q 438 -297 486 -261 q 311 -334 391 -334 q 268 -331 287 -334 q 235 -326 249 -329 l 235 -276 q 269 -282 250 -280 q 312 -283 288 -283 q 395 -263 364 -283 q 427 -200 427 -242 q 392 -140 427 -159 q 290 -119 357 -121 l 351 0 l 403 0 l 361 -84 q 426 -102 398 -88 q 470 -140 454 -117 q 486 -198 486 -164 z "},"ş":{"ha":647,"x_min":61,"x_max":583,"o":"m 583 193 q 550 81 583 127 q 454 11 517 35 q 299 -14 391 -14 q 162 0 222 -14 q 61 33 102 14 l 61 101 q 174 60 112 76 q 300 45 235 45 q 465 83 414 45 q 515 189 515 122 q 490 262 515 233 q 419 312 465 291 q 308 355 373 333 q 188 400 240 378 q 105 461 135 423 q 75 564 75 498 q 146 702 75 652 q 338 751 218 751 q 461 739 404 751 q 566 707 519 726 l 541 648 q 444 680 499 668 q 334 692 389 692 q 193 661 244 692 q 142 567 142 629 q 167 493 142 519 q 237 448 191 466 q 345 408 282 430 q 464 361 409 386 q 551 298 518 337 q 583 193 583 260 m 443 -198 q 396 -297 443 -261 q 268 -334 349 -334 q 225 -331 244 -334 q 192 -326 206 -329 l 192 -276 q 227 -282 208 -280 q 269 -283 245 -283 q 353 -263 321 -283 q 384 -200 384 -242 q 349 -140 384 -159 q 247 -119 314 -121 l 308 0 l 360 0 l 318 -84 q 384 -102 355 -88 q 427 -140 412 -117 q 443 -198 443 -164 z "},"Š":{"ha":758,"x_min":75,"x_max":686,"o":"m 686 256 q 641 107 686 167 q 519 17 596 47 q 346 -14 443 -14 q 236 -8 286 -14 q 148 7 187 -2 q 75 29 108 17 l 75 99 q 198 63 128 79 q 349 48 267 48 q 487 71 427 48 q 581 138 547 93 q 616 253 616 184 q 587 353 616 314 q 500 420 558 392 q 355 477 443 448 q 244 522 294 498 q 159 576 195 545 q 105 651 124 607 q 87 754 87 694 q 129 892 87 836 q 242 977 170 948 q 403 1006 313 1006 q 538 992 474 1006 q 662 953 602 979 l 637 892 q 518 930 578 918 q 400 943 458 943 q 276 922 330 943 q 189 860 221 901 q 157 755 157 819 q 187 650 157 690 q 271 584 216 610 q 400 532 326 557 q 552 470 488 503 q 651 387 616 437 q 686 256 686 336 m 359 1096 q 313 1163 342 1126 q 253 1238 285 1201 q 196 1303 222 1276 l 196 1316 l 245 1316 q 322 1241 283 1283 q 391 1159 360 1198 q 463 1241 424 1198 q 541 1316 503 1283 l 591 1316 l 591 1303 q 532 1238 565 1276 q 471 1163 500 1201 q 425 1096 441 1126 l 359 1096 z "},"š":{"ha":647,"x_min":61,"x_max":583,"o":"m 583 193 q 550 81 583 127 q 454 11 517 35 q 299 -14 391 -14 q 162 0 222 -14 q 61 33 102 14 l 61 101 q 174 60 112 76 q 300 45 235 45 q 465 83 414 45 q 515 189 515 122 q 490 262 515 233 q 419 312 465 291 q 308 355 373 333 q 188 400 240 378 q 105 461 135 423 q 75 564 75 498 q 146 702 75 652 q 338 751 218 751 q 461 739 404 751 q 566 707 519 726 l 541 648 q 444 680 499 668 q 334 692 389 692 q 193 661 244 692 q 142 567 142 629 q 167 493 142 519 q 237 448 191 466 q 345 408 282 430 q 464 361 409 386 q 551 298 518 337 q 583 193 583 260 m 288 842 q 243 909 271 871 q 183 984 214 947 q 125 1049 151 1021 l 125 1061 l 175 1061 q 251 986 213 1029 q 321 905 290 944 q 393 986 353 944 q 470 1061 432 1029 l 520 1061 l 520 1049 q 462 984 494 1021 q 400 909 429 947 q 354 842 371 871 l 288 842 z "},"Ț":{"ha":728,"x_min":7,"x_max":720,"o":"m 399 0 l 328 0 l 328 928 l 7 928 l 7 991 l 720 991 l 720 928 l 399 928 l 399 0 m 417 -85 l 417 -94 q 396 -163 410 -126 q 364 -238 382 -201 q 324 -307 346 -275 l 285 -307 l 285 -295 q 308 -235 296 -273 q 332 -156 321 -197 q 347 -85 343 -115 l 417 -85 z "},"ț":{"ha":465,"x_min":17,"x_max":429,"o":"m 321 45 q 381 50 353 45 q 429 62 408 55 l 429 5 q 378 -8 408 -2 q 314 -14 349 -14 q 210 10 252 -14 q 148 81 169 33 q 127 203 127 129 l 127 680 l 17 680 l 17 721 l 126 742 l 150 916 l 195 916 l 195 737 l 425 737 l 425 680 l 195 680 l 195 207 q 225 86 195 127 q 321 45 254 45 m 328 -85 l 328 -94 q 307 -163 320 -126 q 275 -238 293 -201 q 235 -307 256 -275 l 195 -307 l 195 -295 q 219 -235 206 -273 q 242 -156 231 -197 q 257 -85 254 -115 l 328 -85 z "},"Ť":{"ha":728,"x_min":7,"x_max":720,"o":"m 399 0 l 328 0 l 328 928 l 7 928 l 7 991 l 720 991 l 720 928 l 399 928 l 399 0 m 328 1096 q 283 1163 311 1126 q 223 1238 254 1201 q 165 1303 191 1276 l 165 1316 l 215 1316 q 291 1241 253 1283 q 361 1159 330 1198 q 433 1241 393 1198 q 510 1316 472 1283 l 560 1316 l 560 1303 q 502 1238 534 1276 q 440 1163 469 1201 q 394 1096 411 1126 l 328 1096 z "},"ť":{"ha":465,"x_min":17,"x_max":563,"o":"m 321 45 q 381 50 353 45 q 429 62 408 55 l 429 5 q 378 -8 408 -2 q 314 -14 349 -14 q 210 10 252 -14 q 148 81 169 33 q 127 203 127 129 l 127 680 l 17 680 l 17 721 l 126 742 l 150 916 l 195 916 l 195 737 l 425 737 l 425 680 l 195 680 l 195 207 q 225 86 195 127 q 321 45 254 45 m 563 1055 l 563 1046 q 542 977 555 1014 q 511 902 528 939 q 474 833 494 865 l 434 833 l 434 845 q 451 888 442 862 q 468 945 460 915 q 483 1004 477 975 q 492 1055 490 1033 l 563 1055 z "},"Ŧ":{"ha":728,"x_min":7,"x_max":720,"o":"m 328 0 l 328 477 l 85 477 l 85 538 l 328 538 l 328 928 l 7 928 l 7 991 l 720 991 l 720 928 l 397 928 l 397 538 l 639 538 l 639 477 l 397 477 l 397 0 l 328 0 z "},"ŧ":{"ha":465,"x_min":17,"x_max":429,"o":"m 28 393 l 28 450 l 404 450 l 404 393 l 28 393 m 321 45 q 381 50 353 45 q 429 62 408 55 l 429 5 q 378 -8 408 -2 q 314 -14 349 -14 q 210 10 252 -14 q 148 81 169 33 q 127 203 127 129 l 127 680 l 17 680 l 17 721 l 126 742 l 150 916 l 195 916 l 195 737 l 425 737 l 425 680 l 195 680 l 195 207 q 225 86 195 127 q 321 45 254 45 z "},"Ũ":{"ha":999,"x_min":130,"x_max":870,"o":"m 870 991 l 870 350 q 825 153 870 234 q 697 29 781 72 q 496 -14 613 -14 q 224 82 319 -14 q 130 353 130 178 l 130 991 l 199 991 l 199 353 q 276 126 199 203 q 500 48 354 48 q 663 82 595 48 q 765 183 730 117 q 800 343 800 249 l 800 991 l 870 991 m 264 1107 q 277 1172 267 1144 q 305 1219 288 1200 q 346 1248 322 1238 q 398 1258 370 1258 q 458 1244 431 1258 q 508 1211 485 1230 q 555 1178 532 1192 q 604 1163 578 1163 q 659 1183 635 1163 q 689 1259 682 1203 l 737 1259 q 694 1146 730 1186 q 602 1106 659 1106 q 542 1120 568 1106 q 492 1153 515 1135 q 446 1186 469 1172 q 395 1201 422 1201 q 342 1181 364 1201 q 312 1107 319 1161 l 264 1107 z "},"ũ":{"ha":820,"x_min":113,"x_max":695,"o":"m 695 737 l 695 0 l 640 0 l 629 133 l 625 133 q 572 59 606 92 q 487 6 537 26 q 370 -14 437 -14 q 228 16 286 -14 q 142 105 171 45 q 113 254 113 165 l 113 737 l 181 737 l 181 261 q 231 98 181 151 q 377 46 281 46 q 514 77 458 46 q 598 172 569 109 q 627 330 627 235 l 627 737 l 695 737 m 169 852 q 182 918 172 890 q 210 965 193 946 q 251 994 227 984 q 303 1004 275 1004 q 363 989 336 1004 q 413 957 390 975 q 460 923 437 938 q 509 909 484 909 q 564 929 541 909 q 594 1004 587 949 l 642 1004 q 600 892 635 932 q 507 852 564 852 q 447 866 473 852 q 397 899 420 880 q 351 932 374 918 q 300 947 328 947 q 247 927 269 947 q 217 852 224 907 l 169 852 z "},"Ū":{"ha":999,"x_min":130,"x_max":870,"o":"m 870 991 l 870 350 q 825 153 870 234 q 697 29 781 72 q 496 -14 613 -14 q 224 82 319 -14 q 130 353 130 178 l 130 991 l 199 991 l 199 353 q 276 126 199 203 q 500 48 354 48 q 663 82 595 48 q 765 183 730 117 q 800 343 800 249 l 800 991 l 870 991 m 687 1160 l 687 1103 l 311 1103 l 311 1160 l 687 1160 z "},"ū":{"ha":820,"x_min":113,"x_max":695,"o":"m 695 737 l 695 0 l 640 0 l 629 133 l 625 133 q 572 59 606 92 q 487 6 537 26 q 370 -14 437 -14 q 228 16 286 -14 q 142 105 171 45 q 113 254 113 165 l 113 737 l 181 737 l 181 261 q 231 98 181 151 q 377 46 281 46 q 514 77 458 46 q 598 172 569 109 q 627 330 627 235 l 627 737 l 695 737 m 597 906 l 597 848 l 221 848 l 221 906 l 597 906 z "},"Ŭ":{"ha":999,"x_min":130,"x_max":870,"o":"m 870 991 l 870 350 q 825 153 870 234 q 697 29 781 72 q 496 -14 613 -14 q 224 82 319 -14 q 130 353 130 178 l 130 991 l 199 991 l 199 353 q 276 126 199 203 q 500 48 354 48 q 663 82 595 48 q 765 183 730 117 q 800 343 800 249 l 800 991 l 870 991 m 688 1263 q 658 1173 682 1211 q 595 1116 635 1136 q 498 1096 555 1096 q 366 1140 412 1096 q 313 1263 319 1183 l 362 1263 q 382 1201 366 1225 q 428 1165 399 1177 q 499 1154 457 1154 q 570 1166 541 1154 q 615 1202 599 1178 q 637 1263 632 1227 l 688 1263 z "},"ŭ":{"ha":820,"x_min":113,"x_max":695,"o":"m 695 737 l 695 0 l 640 0 l 629 133 l 625 133 q 572 59 606 92 q 487 6 537 26 q 370 -14 437 -14 q 228 16 286 -14 q 142 105 171 45 q 113 254 113 165 l 113 737 l 181 737 l 181 261 q 231 98 181 151 q 377 46 281 46 q 514 77 458 46 q 598 172 569 109 q 627 330 627 235 l 627 737 l 695 737 m 597 1008 q 568 919 591 956 q 505 862 545 882 q 408 842 465 842 q 275 885 322 842 q 222 1008 229 929 l 272 1008 q 292 947 276 971 q 338 911 309 923 q 409 899 367 899 q 480 911 451 899 q 525 948 509 924 q 547 1008 542 972 l 597 1008 z "},"Ů":{"ha":999,"x_min":130,"x_max":870,"o":"m 870 991 l 870 350 q 825 153 870 234 q 697 29 781 72 q 496 -14 613 -14 q 224 82 319 -14 q 130 353 130 178 l 130 991 l 199 991 l 199 353 q 276 126 199 203 q 500 48 354 48 q 663 82 595 48 q 765 183 730 117 q 800 343 800 249 l 800 991 l 870 991 m 499 1100 q 397 1139 439 1100 q 355 1242 355 1177 q 396 1345 355 1305 q 499 1384 437 1384 q 602 1344 559 1384 q 644 1243 644 1304 q 602 1139 644 1178 q 499 1100 559 1100 m 499 1147 q 568 1174 541 1147 q 594 1242 594 1202 q 566 1311 594 1284 q 499 1337 538 1337 q 431 1311 458 1337 q 403 1242 403 1284 q 429 1174 403 1202 q 499 1147 456 1147 z "},"ů":{"ha":820,"x_min":113,"x_max":695,"o":"m 695 737 l 695 0 l 640 0 l 629 133 l 625 133 q 572 59 606 92 q 487 6 537 26 q 370 -14 437 -14 q 228 16 286 -14 q 142 105 171 45 q 113 254 113 165 l 113 737 l 181 737 l 181 261 q 231 98 181 151 q 377 46 281 46 q 514 77 458 46 q 598 172 569 109 q 627 330 627 235 l 627 737 l 695 737 m 409 846 q 307 884 349 846 q 264 988 264 923 q 306 1090 264 1051 q 409 1130 347 1130 q 511 1090 469 1130 q 553 989 553 1050 q 511 885 553 924 q 409 846 469 846 m 409 892 q 477 920 451 892 q 504 988 504 947 q 476 1056 504 1029 q 409 1083 448 1083 q 340 1056 368 1083 q 313 988 313 1029 q 339 920 313 947 q 409 892 366 892 z "},"Ű":{"ha":999,"x_min":130,"x_max":870,"o":"m 870 991 l 870 350 q 825 153 870 234 q 697 29 781 72 q 496 -14 613 -14 q 224 82 319 -14 q 130 353 130 178 l 130 991 l 199 991 l 199 353 q 276 126 199 203 q 500 48 354 48 q 663 82 595 48 q 765 183 730 117 q 800 343 800 249 l 800 991 l 870 991 m 789 1318 l 789 1307 q 756 1257 776 1284 q 712 1201 736 1230 q 665 1145 689 1172 q 618 1096 640 1118 l 574 1096 l 574 1107 q 623 1172 597 1135 q 674 1248 650 1209 q 713 1318 699 1287 l 789 1318 m 559 1318 l 559 1307 q 526 1257 546 1284 q 482 1201 506 1230 q 434 1145 458 1172 q 387 1096 410 1118 l 343 1096 l 343 1107 q 393 1172 366 1135 q 444 1248 419 1209 q 483 1318 468 1287 l 559 1318 z "},"ű":{"ha":820,"x_min":113,"x_max":699,"o":"m 695 737 l 695 0 l 640 0 l 629 133 l 625 133 q 572 59 606 92 q 487 6 537 26 q 370 -14 437 -14 q 228 16 286 -14 q 142 105 171 45 q 113 254 113 165 l 113 737 l 181 737 l 181 261 q 231 98 181 151 q 377 46 281 46 q 514 77 458 46 q 598 172 569 109 q 627 330 627 235 l 627 737 l 695 737 m 699 1064 l 699 1053 q 666 1003 686 1030 q 622 946 646 975 q 574 890 599 918 q 528 842 550 863 l 484 842 l 484 853 q 533 918 507 880 q 584 994 559 955 q 623 1064 608 1033 l 699 1064 m 469 1064 l 469 1053 q 436 1003 456 1030 q 392 946 416 975 q 344 890 368 918 q 297 842 319 863 l 253 842 l 253 853 q 302 918 276 880 q 353 994 329 955 q 393 1064 378 1033 l 469 1064 z "},"Ų":{"ha":999,"x_min":130,"x_max":870,"o":"m 617 -161 q 636 -230 617 -209 q 690 -250 654 -250 q 729 -248 711 -250 q 758 -241 746 -245 l 758 -292 q 724 -299 743 -296 q 682 -303 705 -303 q 591 -271 624 -303 q 557 -170 557 -239 q 578 -82 557 -124 q 630 -3 598 -40 q 699 64 663 35 l 743 61 q 683 -7 711 28 q 635 -80 654 -42 q 617 -161 617 -118 m 870 991 l 870 350 q 825 153 870 234 q 697 29 781 72 q 496 -14 613 -14 q 224 82 319 -14 q 130 353 130 178 l 130 991 l 199 991 l 199 353 q 276 126 199 203 q 500 48 354 48 q 663 82 595 48 q 765 183 730 117 q 800 343 800 249 l 800 991 l 870 991 z "},"ų":{"ha":820,"x_min":113,"x_max":712,"o":"m 695 737 l 695 0 l 640 0 l 629 133 l 625 133 q 572 59 606 92 q 487 6 537 26 q 370 -14 437 -14 q 228 16 286 -14 q 142 105 171 45 q 113 254 113 165 l 113 737 l 181 737 l 181 261 q 231 98 181 151 q 377 46 281 46 q 514 77 458 46 q 598 172 569 109 q 627 330 627 235 l 627 737 l 695 737 m 571 -174 q 590 -231 571 -211 q 646 -250 609 -250 q 683 -248 666 -250 q 712 -241 701 -245 l 712 -292 q 679 -299 698 -296 q 636 -303 660 -303 q 545 -272 578 -303 q 511 -182 511 -241 q 528 -112 511 -146 q 575 -45 545 -77 q 646 18 605 -12 l 687 0 q 605 -82 639 -40 q 571 -174 571 -125 z "},"Ŵ":{"ha":1239,"x_min":35,"x_max":1206,"o":"m 1206 991 l 935 0 l 867 0 l 655 749 q 642 794 648 772 q 631 834 636 815 q 622 871 626 854 q 614 903 617 888 q 609 872 612 888 q 602 840 606 857 q 593 804 597 823 q 583 766 588 786 l 371 0 l 302 0 l 35 991 l 107 991 l 294 292 q 308 239 301 264 q 319 191 314 214 q 330 145 325 168 q 339 101 335 123 q 349 146 344 123 q 359 193 353 170 q 371 242 365 217 q 386 296 378 268 l 581 991 l 650 991 l 852 292 q 867 237 861 262 q 880 188 874 211 q 890 142 885 164 q 899 98 895 120 q 910 158 905 128 q 924 220 916 187 q 943 291 932 252 l 1133 991 l 1206 991 m 652 1316 q 698 1248 669 1286 q 759 1172 726 1210 q 817 1107 791 1135 l 817 1096 l 766 1096 q 690 1171 728 1128 q 619 1251 651 1213 q 548 1171 587 1213 q 471 1096 509 1128 l 422 1096 l 422 1107 q 479 1172 448 1135 q 541 1248 511 1210 q 586 1316 570 1286 l 652 1316 z "},"ŵ":{"ha":1004,"x_min":20,"x_max":984,"o":"m 711 0 l 555 495 q 541 538 547 517 q 530 577 535 558 q 519 614 524 596 q 510 650 515 632 l 507 650 q 497 614 502 632 q 487 576 492 595 q 475 536 481 556 q 462 494 469 515 l 300 0 l 229 0 l 20 737 l 92 737 l 222 266 q 241 192 233 224 q 256 133 250 159 q 267 83 262 106 l 270 83 q 279 118 274 100 q 289 159 283 137 q 302 205 294 180 q 318 258 309 229 l 476 737 l 544 737 l 696 259 q 716 193 707 224 q 732 134 725 161 q 744 83 739 107 l 748 83 q 756 133 751 106 q 771 193 762 159 q 790 266 779 226 l 915 737 l 984 737 l 784 0 l 711 0 m 545 1061 q 590 994 562 1032 q 651 918 618 956 q 709 852 683 880 l 709 842 l 659 842 q 582 916 621 874 q 511 997 543 958 q 440 916 479 958 q 363 842 401 874 l 314 842 l 314 852 q 372 918 340 880 q 433 994 404 956 q 478 1061 462 1032 l 545 1061 z "},"Ŷ":{"ha":733,"x_min":0,"x_max":733,"o":"m 367 450 l 656 991 l 733 991 l 403 383 l 403 0 l 333 0 l 333 378 l 0 991 l 77 991 l 367 450 m 399 1316 q 445 1248 416 1286 q 506 1172 473 1210 q 564 1107 538 1135 l 564 1096 l 513 1096 q 437 1171 475 1128 q 366 1251 398 1213 q 295 1171 334 1213 q 218 1096 256 1128 l 169 1096 l 169 1107 q 227 1172 195 1135 q 288 1248 258 1210 q 333 1316 317 1286 l 399 1316 z "},"ŷ":{"ha":637,"x_min":1,"x_max":639,"o":"m 1 737 l 73 737 l 252 269 q 281 193 269 228 q 303 129 294 158 q 319 77 313 100 l 323 77 q 350 157 333 108 q 389 267 367 206 l 566 737 l 639 737 l 302 -138 q 249 -247 278 -202 q 180 -314 220 -291 q 85 -336 141 -336 q 40 -333 60 -336 q 1 -323 20 -329 l 1 -264 q 37 -273 18 -269 q 78 -277 56 -277 q 145 -261 117 -277 q 195 -212 173 -245 q 237 -127 218 -178 l 288 4 l 1 737 m 351 1061 q 397 994 368 1032 q 457 918 425 956 q 515 852 490 880 l 515 842 l 465 842 q 389 916 427 874 q 318 997 350 958 q 247 916 286 958 q 170 842 208 874 l 121 842 l 121 852 q 178 918 146 880 q 239 994 210 956 q 285 1061 269 1032 l 351 1061 z "},"Ÿ":{"ha":733,"x_min":0,"x_max":733,"o":"m 367 450 l 656 991 l 733 991 l 403 383 l 403 0 l 333 0 l 333 378 l 0 991 l 77 991 l 367 450 m 192 1198 q 203 1236 192 1221 q 236 1250 214 1250 q 271 1236 260 1250 q 282 1198 282 1221 q 271 1159 282 1173 q 236 1145 260 1145 q 203 1159 214 1145 q 192 1198 192 1173 m 450 1198 q 461 1236 450 1221 q 494 1250 473 1250 q 529 1236 518 1250 q 541 1198 541 1221 q 529 1159 541 1173 q 494 1145 518 1145 q 461 1159 473 1145 q 450 1198 450 1173 z "},"Ź":{"ha":800,"x_min":52,"x_max":745,"o":"m 745 0 l 52 0 l 52 51 l 640 928 l 81 928 l 81 991 l 729 991 l 729 941 l 140 64 l 745 64 l 745 0 m 601 1318 l 601 1307 q 561 1258 585 1285 q 509 1201 537 1230 q 453 1145 481 1172 q 398 1096 425 1118 l 349 1096 l 349 1107 q 409 1172 376 1135 q 471 1249 441 1210 q 519 1318 500 1288 l 601 1318 z "},"ź":{"ha":641,"x_min":56,"x_max":583,"o":"m 583 0 l 56 0 l 56 45 l 498 680 l 88 680 l 88 737 l 581 737 l 581 690 l 140 57 l 583 57 l 583 0 m 517 1064 l 517 1053 q 477 1003 501 1031 q 426 947 454 976 q 370 890 398 918 q 315 842 341 863 l 266 842 l 266 853 q 326 918 293 880 q 388 995 358 956 q 436 1064 417 1034 l 517 1064 z "},"Ż":{"ha":800,"x_min":52,"x_max":745,"o":"m 745 0 l 52 0 l 52 51 l 640 928 l 81 928 l 81 991 l 729 991 l 729 941 l 140 64 l 745 64 l 745 0 m 397 1264 q 435 1249 422 1264 q 447 1208 447 1234 q 435 1167 447 1182 q 397 1152 422 1152 q 360 1167 372 1152 q 348 1208 348 1182 q 360 1249 348 1234 q 397 1264 372 1264 z "},"ż":{"ha":641,"x_min":56,"x_max":583,"o":"m 583 0 l 56 0 l 56 45 l 498 680 l 88 680 l 88 737 l 581 737 l 581 690 l 140 57 l 583 57 l 583 0 m 313 1010 q 351 995 339 1010 q 363 954 363 979 q 351 913 363 928 q 313 898 339 898 q 277 913 289 898 q 264 954 264 928 q 277 995 264 979 q 313 1010 289 1010 z "},"Ž":{"ha":800,"x_min":52,"x_max":745,"o":"m 745 0 l 52 0 l 52 51 l 640 928 l 81 928 l 81 991 l 729 991 l 729 941 l 140 64 l 745 64 l 745 0 m 368 1096 q 322 1163 351 1126 q 262 1238 294 1201 q 205 1303 231 1276 l 205 1316 l 254 1316 q 331 1241 292 1283 q 400 1159 369 1198 q 472 1241 433 1198 q 549 1316 511 1283 l 600 1316 l 600 1303 q 541 1238 574 1276 q 479 1163 509 1201 q 433 1096 450 1126 l 368 1096 z "},"ž":{"ha":641,"x_min":56,"x_max":583,"o":"m 583 0 l 56 0 l 56 45 l 498 680 l 88 680 l 88 737 l 581 737 l 581 690 l 140 57 l 583 57 l 583 0 m 284 842 q 239 909 267 871 q 179 984 210 947 q 121 1049 147 1021 l 121 1061 l 171 1061 q 247 986 209 1029 q 317 905 286 944 q 389 986 349 944 q 466 1061 428 1029 l 516 1061 l 516 1049 q 458 984 490 1021 q 396 909 425 947 q 350 842 367 871 l 284 842 z "},"ſ":{"ha":425,"x_min":123,"x_max":458,"o":"m 345 1003 q 231 954 269 1003 q 192 806 192 905 l 192 0 l 123 0 l 123 808 q 149 948 123 892 q 225 1034 175 1004 q 345 1063 275 1063 q 406 1058 378 1063 q 458 1044 433 1053 l 443 986 q 397 998 421 994 q 345 1003 374 1003 z "},"ƒ":{"ha":793,"x_min":129,"x_max":685,"o":"m 561 1006 q 626 1000 596 1006 q 685 985 656 994 l 668 927 q 618 941 645 935 q 559 946 591 946 q 448 901 484 946 q 412 749 412 855 l 412 637 l 603 637 l 603 579 l 413 579 l 413 -119 q 391 -236 413 -189 q 328 -309 370 -284 q 224 -334 286 -334 q 170 -329 193 -334 q 129 -321 146 -325 l 129 -260 q 173 -270 151 -266 q 220 -273 195 -273 q 313 -235 283 -273 q 343 -114 343 -196 l 343 579 l 205 579 l 205 620 l 343 638 l 343 751 q 367 895 343 838 q 440 978 391 951 q 561 1006 488 1006 z "},"Ǻ":{"ha":833,"x_min":-7,"x_max":839,"o":"m -7 0 l 375 819 q 302 865 330 830 q 273 958 273 900 q 314 1061 273 1022 q 420 1101 355 1101 q 526 1062 485 1101 q 567 957 567 1023 q 539 867 567 902 q 465 818 511 832 l 839 0 l 764 0 l 627 302 l 207 302 l 66 0 l -7 0 m 233 366 l 602 366 l 461 682 q 448 712 455 696 q 433 748 441 729 q 420 785 426 766 q 409 756 414 770 q 399 729 404 743 q 389 704 394 716 q 379 682 384 692 l 233 366 m 419 854 q 492 881 464 854 q 519 957 519 908 q 492 1029 519 1002 q 419 1056 465 1056 q 347 1029 374 1056 q 319 957 319 1002 q 347 881 319 908 q 419 854 375 854 m 383 1145 l 383 1156 q 436 1212 409 1181 q 488 1275 463 1243 q 529 1337 512 1308 l 610 1337 l 610 1326 q 575 1282 595 1305 q 531 1235 555 1259 q 483 1188 508 1211 q 432 1145 457 1165 l 383 1145 z "},"ǻ":{"ha":736,"x_min":65,"x_max":622,"o":"m 380 750 q 562 689 501 750 q 622 494 622 628 l 622 0 l 569 0 l 557 129 l 553 129 q 495 55 529 87 q 412 5 461 23 q 292 -14 363 -14 q 171 10 221 -14 q 93 79 120 34 q 65 190 65 125 q 156 357 65 300 q 417 422 247 414 l 554 429 l 554 482 q 509 644 554 595 q 377 692 465 692 q 268 677 320 692 q 161 635 215 663 l 139 692 q 253 734 192 718 q 380 750 313 750 m 553 375 l 425 370 q 211 319 284 363 q 138 189 138 276 q 181 82 138 119 q 303 45 225 45 q 489 114 425 45 q 553 302 553 183 l 553 375 m 380 1052 q 311 1025 338 1052 q 283 957 283 998 q 310 888 283 916 q 380 861 336 861 q 448 888 422 861 q 474 957 474 916 q 446 1025 474 998 q 380 1052 418 1052 m 380 1098 q 452 1080 420 1098 q 505 1030 485 1062 q 524 957 524 998 q 482 854 524 892 q 380 815 440 815 q 277 853 319 815 q 235 957 235 892 q 276 1059 235 1020 q 380 1098 318 1098 m 556 1324 l 556 1314 q 503 1259 536 1289 q 434 1199 471 1229 q 364 1145 397 1170 l 313 1145 l 313 1155 q 366 1207 338 1178 q 419 1267 393 1236 q 462 1324 444 1297 l 556 1324 z "},"Ǽ":{"ha":1122,"x_min":-1,"x_max":1078,"o":"m 1078 0 l 551 0 l 551 350 l 229 350 l 74 0 l -1 0 l 441 991 l 1078 991 l 1078 928 l 621 928 l 621 553 l 1051 553 l 1051 490 l 621 490 l 621 63 l 1078 63 l 1078 0 m 257 413 l 551 413 l 551 928 l 484 928 l 257 413 m 804 1318 l 804 1307 q 764 1258 788 1285 q 713 1201 741 1230 q 656 1145 685 1172 q 602 1096 628 1118 l 553 1096 l 553 1107 q 612 1172 580 1135 q 674 1249 645 1210 q 723 1318 704 1288 l 804 1318 z "},"ǽ":{"ha":1188,"x_min":65,"x_max":1111,"o":"m 838 751 q 989 707 928 751 q 1081 587 1050 663 q 1109 412 1111 510 l 1109 362 l 608 362 q 673 127 608 208 q 857 47 739 47 q 969 58 920 47 q 1079 96 1018 69 l 1079 33 q 972 -2 1024 9 q 856 -14 920 -14 q 728 11 784 -14 q 633 78 671 35 q 572 180 594 121 q 514 78 550 121 q 424 11 478 35 q 295 -14 370 -14 q 172 10 223 -14 q 93 79 120 34 q 65 190 65 125 q 105 313 65 263 q 222 389 145 362 q 408 422 298 416 l 538 429 l 538 484 q 494 644 538 596 q 366 692 449 692 q 260 677 313 692 q 153 635 208 663 l 132 692 q 246 734 184 718 q 370 750 308 750 q 517 708 463 750 q 588 572 571 665 q 683 702 621 652 q 838 751 746 751 m 537 375 l 416 370 q 210 319 281 363 q 138 189 138 276 q 181 82 138 119 q 302 45 224 45 q 430 76 378 45 q 509 165 482 108 q 537 302 536 223 l 537 375 m 838 692 q 682 623 745 692 q 610 420 620 553 l 1037 420 q 1016 563 1038 501 q 949 658 994 624 q 838 692 905 692 m 793 1064 l 793 1053 q 753 1003 777 1031 q 702 947 730 976 q 646 890 674 918 q 591 842 617 863 l 542 842 l 542 853 q 602 918 569 880 q 664 995 634 956 q 712 1064 693 1034 l 793 1064 z "},"Ǿ":{"ha":1061,"x_min":86,"x_max":974,"o":"m 974 497 q 946 290 974 384 q 863 129 918 197 q 724 24 807 61 q 530 -14 641 -14 q 376 9 445 -14 q 256 74 307 31 l 174 -39 l 124 -5 l 210 114 q 118 280 149 182 q 86 498 86 378 q 137 764 86 649 q 289 943 189 878 q 536 1007 389 1007 q 682 986 615 1007 q 800 926 748 966 l 876 1031 l 924 996 l 845 888 q 941 723 907 821 q 974 497 974 624 m 901 497 q 877 689 901 605 q 804 830 852 773 l 294 128 q 397 69 338 90 q 531 48 456 48 q 741 104 659 48 q 862 262 823 161 q 901 497 901 363 m 159 498 q 182 314 159 397 q 252 172 205 231 l 762 872 q 662 926 718 907 q 536 944 606 944 q 325 888 409 944 q 200 731 241 831 q 159 498 159 631 m 728 1318 l 728 1307 q 688 1258 712 1285 q 637 1201 665 1230 q 581 1145 609 1172 q 526 1096 552 1118 l 477 1096 l 477 1107 q 536 1172 504 1135 q 598 1249 569 1210 q 647 1318 628 1288 l 728 1318 z "},"ǿ":{"ha":814,"x_min":76,"x_max":734,"o":"m 734 370 q 696 170 734 256 q 586 35 659 83 q 405 -14 513 -14 q 290 5 341 -14 q 201 59 239 24 l 122 -41 l 76 -7 l 159 100 q 100 219 121 151 q 80 370 80 287 q 168 650 80 548 q 412 751 256 751 q 523 734 473 751 q 609 685 572 717 l 680 777 l 728 743 l 652 646 q 713 524 692 595 q 734 370 734 454 m 151 370 q 163 251 151 304 q 199 156 175 197 l 571 635 q 503 676 543 661 q 411 691 463 691 q 217 606 283 691 q 151 370 151 520 m 663 370 q 651 491 663 435 q 610 589 638 547 l 238 109 q 310 62 268 79 q 406 46 353 46 q 552 87 495 46 q 636 201 609 127 q 663 370 663 274 m 605 1064 l 605 1053 q 565 1003 589 1031 q 513 947 541 976 q 457 890 486 918 q 402 842 429 863 l 353 842 l 353 853 q 413 918 380 880 q 475 995 446 956 q 524 1064 505 1034 l 605 1064 z "},"Ș":{"ha":758,"x_min":75,"x_max":686,"o":"m 686 256 q 641 107 686 167 q 519 17 596 47 q 346 -14 443 -14 q 236 -8 286 -14 q 148 7 187 -2 q 75 29 108 17 l 75 99 q 198 63 128 79 q 349 48 267 48 q 487 71 427 48 q 581 138 547 93 q 616 253 616 184 q 587 353 616 314 q 500 420 558 392 q 355 477 443 448 q 244 522 294 498 q 159 576 195 545 q 105 651 124 607 q 87 754 87 694 q 129 892 87 836 q 242 977 170 948 q 403 1006 313 1006 q 538 992 474 1006 q 662 953 602 979 l 637 892 q 518 930 578 918 q 400 943 458 943 q 276 922 330 943 q 189 860 221 901 q 157 755 157 819 q 187 650 157 690 q 271 584 216 610 q 400 532 326 557 q 552 470 488 503 q 651 387 616 437 q 686 256 686 336 m 419 -85 l 419 -94 q 398 -163 412 -126 q 366 -238 385 -201 q 326 -307 348 -275 l 287 -307 l 287 -295 q 310 -235 298 -273 q 334 -156 323 -197 q 349 -85 345 -115 l 419 -85 z "},"ș":{"ha":647,"x_min":61,"x_max":583,"o":"m 583 193 q 550 81 583 127 q 454 11 517 35 q 299 -14 391 -14 q 162 0 222 -14 q 61 33 102 14 l 61 101 q 174 60 112 76 q 300 45 235 45 q 465 83 414 45 q 515 189 515 122 q 490 262 515 233 q 419 312 465 291 q 308 355 373 333 q 188 400 240 378 q 105 461 135 423 q 75 564 75 498 q 146 702 75 652 q 338 751 218 751 q 461 739 404 751 q 566 707 519 726 l 541 648 q 444 680 499 668 q 334 692 389 692 q 193 661 244 692 q 142 567 142 629 q 167 493 142 519 q 237 448 191 466 q 345 408 282 430 q 464 361 409 386 q 551 298 518 337 q 583 193 583 260 m 377 -85 l 377 -94 q 356 -163 370 -126 q 324 -238 342 -201 q 284 -307 306 -275 l 245 -307 l 245 -295 q 268 -235 256 -273 q 292 -156 281 -197 q 307 -85 303 -115 l 377 -85 z "},"ˆ":{"ha":506,"x_min":56,"x_max":450,"o":"m 286 1061 q 332 994 303 1032 q 392 918 360 956 q 450 852 425 880 l 450 842 l 400 842 q 323 916 362 874 q 253 997 285 958 q 182 916 220 958 q 105 842 143 874 l 56 842 l 56 852 q 113 918 81 880 q 174 994 145 956 q 220 1061 203 1032 l 286 1061 z "},"ˇ":{"ha":506,"x_min":56,"x_max":450,"o":"m 218 842 q 173 909 201 871 q 113 984 144 947 q 56 1049 81 1021 l 56 1061 l 105 1061 q 181 986 143 1029 q 251 905 220 944 q 323 986 283 944 q 400 1061 362 1029 l 450 1061 l 450 1049 q 392 984 425 1021 q 330 909 359 947 q 284 842 301 871 l 218 842 z "},"ˉ":{"ha":487,"x_min":56,"x_max":431,"o":"m 431 906 l 431 848 l 56 848 l 56 906 l 431 906 z "},"˘":{"ha":486,"x_min":56,"x_max":431,"o":"m 431 1008 q 401 919 425 956 q 338 862 378 882 q 241 842 298 842 q 109 885 155 842 q 56 1008 62 929 l 105 1008 q 125 947 109 971 q 171 911 142 923 q 242 899 200 899 q 313 911 284 899 q 358 948 342 924 q 380 1008 375 972 l 431 1008 z "},"˙":{"ha":210,"x_min":56,"x_max":155,"o":"m 104 1010 q 142 995 130 1010 q 155 954 155 979 q 142 913 155 928 q 104 898 130 898 q 68 913 80 898 q 56 954 56 928 q 68 995 56 979 q 104 1010 80 1010 z "},"˚":{"ha":400,"x_min":56,"x_max":345,"o":"m 200 846 q 98 884 140 846 q 56 988 56 923 q 97 1090 56 1051 q 200 1130 138 1130 q 302 1090 260 1130 q 345 989 345 1050 q 302 885 345 924 q 200 846 260 846 m 200 892 q 269 920 242 892 q 295 988 295 947 q 267 1056 295 1029 q 200 1083 239 1083 q 132 1056 159 1083 q 104 988 104 1029 q 130 920 104 947 q 200 892 157 892 z "},"˛":{"ha":312,"x_min":56,"x_max":256,"o":"m 115 -174 q 134 -231 115 -211 q 190 -250 153 -250 q 228 -248 210 -250 q 256 -241 245 -245 l 256 -292 q 223 -299 242 -296 q 180 -303 204 -303 q 89 -272 123 -303 q 56 -182 56 -241 q 72 -112 56 -146 q 119 -45 89 -77 q 191 18 149 -12 l 231 0 q 149 -82 183 -40 q 115 -174 115 -125 z "},"˜":{"ha":584,"x_min":56,"x_max":529,"o":"m 56 852 q 69 918 59 890 q 97 965 79 946 q 138 994 114 984 q 190 1004 161 1004 q 250 989 223 1004 q 300 957 277 975 q 347 923 323 938 q 396 909 370 909 q 450 929 427 909 q 481 1004 473 949 l 529 1004 q 486 892 522 932 q 393 852 450 852 q 334 866 360 852 q 284 899 307 880 q 238 932 261 918 q 186 947 214 947 q 134 927 156 947 q 104 852 111 907 l 56 852 z "},"˝":{"ha":557,"x_min":56,"x_max":502,"o":"m 502 1064 l 502 1053 q 468 1003 488 1030 q 425 946 448 975 q 377 890 401 918 q 331 842 353 863 l 286 842 l 286 853 q 336 918 309 880 q 387 994 362 955 q 426 1064 411 1033 l 502 1064 m 272 1064 l 272 1053 q 238 1003 258 1030 q 195 946 218 975 q 146 890 171 918 q 100 842 122 863 l 56 842 l 56 853 q 105 918 79 880 q 156 994 132 955 q 195 1064 180 1033 l 272 1064 z "},"΄":{"ha":802,"x_min":360,"x_max":504,"o":"m 360 842 l 360 854 q 381 914 370 881 q 401 982 392 947 q 418 1053 411 1018 q 430 1120 426 1088 l 504 1120 l 504 1106 q 480 1020 497 1068 q 444 926 464 972 q 405 842 424 879 l 360 842 z "},"΅":{"ha":802,"x_min":211,"x_max":593,"o":"m 505 1164 l 505 1152 q 479 1083 496 1121 q 442 1005 462 1044 q 403 934 422 966 l 364 934 l 364 946 q 390 1015 377 977 q 412 1092 402 1053 q 428 1164 422 1131 l 505 1164 m 255 996 q 290 981 279 996 q 300 943 300 967 q 290 905 300 919 q 255 890 279 890 q 222 905 233 890 q 211 943 211 919 q 222 981 211 967 q 255 996 233 996 m 547 996 q 582 981 570 996 q 593 943 593 967 q 582 905 593 919 q 547 890 570 890 q 514 905 524 890 q 503 943 503 919 q 514 981 503 967 q 547 996 524 996 z "},"Ά":{"ha":834,"x_min":0,"x_max":833,"o":"m 760 0 l 625 351 l 209 351 l 71 0 l 0 0 l 390 995 l 454 995 l 833 0 l 760 0 m 603 414 l 466 785 q 453 822 460 800 q 436 869 445 844 q 420 917 428 895 q 405 869 413 893 q 389 824 397 846 q 375 784 382 802 l 233 414 l 603 414 m 47 766 l 47 779 q 68 839 57 806 q 88 907 79 871 q 105 978 98 943 q 117 1044 113 1013 l 191 1044 l 191 1031 q 167 945 184 993 q 131 850 151 897 q 92 766 111 804 l 47 766 z "},"·":{"ha":331,"x_min":111,"x_max":221,"o":"m 111 686 q 125 732 111 716 q 165 748 138 748 q 208 732 194 748 q 221 686 221 716 q 208 640 221 656 q 165 624 194 624 q 125 640 138 624 q 111 686 111 656 z "},"Έ":{"ha":844,"x_min":0,"x_max":758,"o":"m 758 0 l 216 0 l 216 991 l 758 991 l 758 928 l 286 928 l 286 553 l 732 553 l 732 490 l 286 490 l 286 63 l 758 63 l 758 0 m 0 766 l 0 779 q 21 839 10 806 q 41 907 32 871 q 58 978 51 943 q 70 1044 66 1013 l 144 1044 l 144 1031 q 120 945 137 993 q 84 850 104 897 q 45 766 64 804 l 0 766 z "},"Ή":{"ha":1076,"x_min":0,"x_max":935,"o":"m 935 0 l 865 0 l 865 488 l 286 488 l 286 0 l 216 0 l 216 991 l 286 991 l 286 552 l 865 552 l 865 991 l 935 991 l 935 0 m 0 766 l 0 779 q 21 839 10 806 q 41 907 32 871 q 58 978 51 943 q 70 1044 66 1013 l 144 1044 l 144 1031 q 120 945 137 993 q 84 850 104 897 q 45 766 64 804 l 0 766 z "},"Ί":{"ha":417,"x_min":-1,"x_max":277,"o":"m 207 0 l 207 991 l 277 991 l 277 0 l 207 0 m -1 766 l -1 779 q 20 839 9 806 q 40 907 31 871 q 57 978 50 943 q 68 1044 64 1013 l 142 1044 l 142 1031 q 119 945 136 993 q 82 850 102 897 q 43 766 62 804 l -1 766 z "},"Ό":{"ha":1090,"x_min":0,"x_max":1003,"o":"m 1003 497 q 975 290 1003 384 q 892 129 947 197 q 753 24 836 61 q 559 -14 670 -14 q 365 24 448 -14 q 226 129 281 61 q 143 291 171 197 q 115 498 115 385 q 166 764 115 649 q 318 943 218 878 q 565 1007 418 1007 q 804 946 706 1007 q 952 770 902 884 q 1003 497 1003 656 m 189 498 q 229 263 189 365 q 351 105 269 162 q 560 48 434 48 q 770 104 688 48 q 891 262 852 161 q 930 497 930 363 q 838 827 930 709 q 565 944 745 944 q 354 888 438 944 q 230 731 271 831 q 189 498 189 631 m 0 766 l 0 779 q 21 839 10 806 q 41 907 32 871 q 58 978 51 943 q 70 1044 66 1013 l 144 1044 l 144 1031 q 120 945 137 993 q 84 850 104 897 q 45 766 64 804 l 0 766 z "},"Ύ":{"ha":918,"x_min":0,"x_max":918,"o":"m 552 450 l 842 991 l 918 991 l 588 383 l 588 0 l 518 0 l 518 378 l 185 991 l 262 991 l 552 450 m 0 766 l 0 779 q 21 839 10 806 q 41 907 32 871 q 58 978 51 943 q 70 1044 66 1013 l 144 1044 l 144 1031 q 120 945 137 993 q 84 850 104 897 q 45 766 64 804 l 0 766 z "},"Ώ":{"ha":1104,"x_min":0,"x_max":1048,"o":"m 564 944 q 366 895 450 944 q 237 756 282 846 q 191 543 191 666 q 224 339 191 427 q 318 183 256 252 q 468 57 380 115 l 468 0 l 83 0 l 83 63 l 373 63 q 243 178 301 111 q 152 335 186 244 q 118 545 118 425 q 173 787 118 683 q 329 949 229 891 q 564 1007 429 1007 q 804 952 703 1007 q 959 793 905 897 q 1014 545 1014 690 q 981 334 1014 425 q 891 177 949 243 q 760 63 834 111 l 1048 63 l 1048 0 l 663 0 l 663 57 q 818 184 757 115 q 910 342 880 254 q 941 543 941 430 q 895 759 941 669 q 765 897 850 849 q 564 944 681 944 m 0 767 l 0 780 q 21 839 10 806 q 41 908 32 872 q 58 979 51 943 q 70 1045 66 1014 l 144 1045 l 144 1031 q 120 946 137 994 q 84 851 104 898 q 45 767 64 804 l 0 767 z "},"ΐ":{"ha":427,"x_min":-31,"x_max":404,"o":"m 180 737 l 180 207 q 212 83 180 121 q 312 45 245 45 q 361 49 336 45 q 404 58 387 53 l 404 1 q 359 -9 387 -5 q 304 -14 332 -14 q 201 7 244 -14 q 135 75 158 28 q 113 200 113 122 l 113 737 l 180 737 m 264 1164 l 264 1152 q 237 1083 254 1121 q 201 1005 220 1044 q 161 934 181 966 l 123 934 l 123 946 q 148 1015 136 977 q 171 1092 161 1053 q 186 1164 181 1131 l 264 1164 m 14 996 q 48 981 38 996 q 59 943 59 967 q 48 905 59 919 q 14 890 38 890 q -19 905 -8 890 q -31 943 -31 919 q -19 981 -31 967 q 14 996 -8 996 m 305 996 q 340 981 329 996 q 351 943 351 967 q 340 905 351 919 q 305 890 329 890 q 272 905 283 890 q 262 943 262 919 q 272 981 262 967 q 305 996 283 996 z "},"Α":{"ha":834,"x_min":0,"x_max":833,"o":"m 760 0 l 625 351 l 209 351 l 71 0 l 0 0 l 390 995 l 454 995 l 833 0 l 760 0 m 603 414 l 466 785 q 453 822 460 800 q 436 869 445 844 q 420 917 428 895 q 405 869 413 893 q 389 824 397 846 q 375 784 382 802 l 233 414 l 603 414 z "},"Β":{"ha":871,"x_min":140,"x_max":794,"o":"m 140 991 l 412 991 q 681 934 595 991 q 766 750 766 876 q 744 646 766 693 q 679 568 722 600 q 572 525 635 536 l 572 520 q 697 478 648 509 q 770 399 746 448 q 794 282 794 350 q 750 122 794 184 q 627 30 705 60 q 445 0 548 0 l 140 0 l 140 991 m 210 551 l 429 551 q 631 600 569 551 q 694 744 694 648 q 627 886 694 843 q 412 930 559 930 l 210 930 l 210 551 m 210 490 l 210 62 l 443 62 q 650 118 581 62 q 720 285 720 174 q 688 403 720 358 q 590 469 655 448 q 429 490 526 490 l 210 490 z "},"Γ":{"ha":697,"x_min":140,"x_max":683,"o":"m 683 991 l 683 928 l 210 928 l 210 0 l 140 0 l 140 991 l 683 991 z "},"Δ":{"ha":793,"x_min":14,"x_max":779,"o":"m 431 991 l 779 39 l 779 0 l 14 0 l 14 40 l 362 991 l 431 991 m 698 63 l 457 727 q 433 796 444 762 q 411 860 421 830 q 395 913 401 890 q 380 862 389 890 q 360 801 371 833 q 338 734 350 769 l 93 63 l 698 63 z "},"Ε":{"ha":767,"x_min":140,"x_max":682,"o":"m 682 0 l 140 0 l 140 991 l 682 991 l 682 928 l 210 928 l 210 553 l 655 553 l 655 490 l 210 490 l 210 63 l 682 63 l 682 0 z "},"Ζ":{"ha":800,"x_min":52,"x_max":745,"o":"m 745 0 l 52 0 l 52 51 l 640 928 l 81 928 l 81 991 l 729 991 l 729 941 l 140 64 l 745 64 l 745 0 z "},"Η":{"ha":999,"x_min":140,"x_max":859,"o":"m 859 0 l 789 0 l 789 488 l 210 488 l 210 0 l 140 0 l 140 991 l 210 991 l 210 552 l 789 552 l 789 991 l 859 991 l 859 0 z "},"Θ":{"ha":1061,"x_min":86,"x_max":974,"o":"m 755 533 l 755 471 l 304 471 l 304 533 l 755 533 m 974 497 q 946 290 974 384 q 863 129 918 197 q 724 24 807 61 q 530 -14 641 -14 q 336 24 419 -14 q 197 129 252 61 q 114 291 142 197 q 86 498 86 385 q 137 764 86 649 q 289 943 189 878 q 536 1007 389 1007 q 775 946 677 1007 q 923 770 873 884 q 974 497 974 656 m 159 498 q 199 263 159 365 q 322 105 239 162 q 531 48 405 48 q 741 104 659 48 q 862 262 823 161 q 901 497 901 363 q 809 827 901 709 q 536 944 716 944 q 325 888 409 944 q 200 731 241 831 q 159 498 159 631 z "},"Ι":{"ha":350,"x_min":140,"x_max":210,"o":"m 140 0 l 140 991 l 210 991 l 210 0 l 140 0 z "},"Κ":{"ha":807,"x_min":140,"x_max":807,"o":"m 807 0 l 722 0 l 338 523 l 210 399 l 210 0 l 140 0 l 140 991 l 210 991 l 210 470 q 262 527 235 498 q 317 586 290 556 l 709 991 l 795 991 l 390 572 l 807 0 z "},"Λ":{"ha":806,"x_min":0,"x_max":805,"o":"m 437 991 l 805 0 l 731 0 l 461 730 q 439 794 450 763 q 418 854 428 825 q 401 909 409 884 q 385 856 394 884 q 366 797 376 828 q 342 730 355 766 l 74 0 l 0 0 l 367 991 l 437 991 z "},"Μ":{"ha":1199,"x_min":140,"x_max":1058,"o":"m 569 0 l 205 916 l 201 916 q 204 863 203 890 q 205 806 205 836 q 206 743 206 776 l 206 0 l 140 0 l 140 991 l 245 991 l 597 109 l 601 109 l 955 991 l 1058 991 l 1058 0 l 989 0 l 989 751 q 990 806 989 778 q 992 861 991 833 q 994 914 993 888 l 990 914 l 625 0 l 569 0 z "},"Ν":{"ha":1002,"x_min":140,"x_max":861,"o":"m 861 0 l 790 0 l 204 877 l 201 877 q 203 803 202 840 q 205 725 204 765 q 206 644 206 686 l 206 0 l 140 0 l 140 991 l 212 991 l 795 117 l 799 117 q 797 186 798 147 q 795 267 796 226 q 794 345 794 309 l 794 991 l 861 991 l 861 0 z "},"Ξ":{"ha":738,"x_min":28,"x_max":709,"o":"m 28 0 l 28 63 l 709 63 l 709 0 l 28 0 m 111 489 l 111 552 l 626 552 l 626 489 l 111 489 m 56 928 l 56 991 l 682 991 l 682 928 l 56 928 z "},"Ο":{"ha":1061,"x_min":86,"x_max":974,"o":"m 974 497 q 946 290 974 384 q 863 129 918 197 q 724 24 807 61 q 530 -14 641 -14 q 336 24 419 -14 q 197 129 252 61 q 114 291 142 197 q 86 498 86 385 q 137 764 86 649 q 289 943 189 878 q 536 1007 389 1007 q 775 946 677 1007 q 923 770 873 884 q 974 497 974 656 m 159 498 q 199 263 159 365 q 322 105 239 162 q 531 48 405 48 q 741 104 659 48 q 862 262 823 161 q 901 497 901 363 q 809 827 901 709 q 536 944 716 944 q 325 888 409 944 q 200 731 241 831 q 159 498 159 631 z "},"Π":{"ha":992,"x_min":140,"x_max":851,"o":"m 140 0 l 140 991 l 851 991 l 851 0 l 783 0 l 783 928 l 210 928 l 210 0 l 140 0 z "},"Ρ":{"ha":812,"x_min":140,"x_max":736,"o":"m 383 991 q 648 924 560 991 q 736 713 736 856 q 713 583 736 640 q 643 488 690 526 q 526 429 596 449 q 362 410 456 410 l 210 410 l 210 0 l 140 0 l 140 991 l 383 991 m 376 930 l 210 930 l 210 471 l 355 471 q 521 493 452 471 q 627 568 590 515 q 665 710 665 620 q 594 877 665 825 q 376 930 524 930 z "},"Σ":{"ha":766,"x_min":41,"x_max":744,"o":"m 41 0 l 41 57 l 408 517 l 50 936 l 50 991 l 704 991 l 704 927 l 285 927 q 236 927 261 927 q 187 927 212 927 q 138 928 163 928 l 490 519 l 125 63 q 213 63 170 63 q 299 64 256 64 l 744 64 l 744 0 l 41 0 z "},"Τ":{"ha":728,"x_min":7,"x_max":720,"o":"m 399 0 l 328 0 l 328 928 l 7 928 l 7 991 l 720 991 l 720 928 l 399 928 l 399 0 z "},"Υ":{"ha":733,"x_min":0,"x_max":733,"o":"m 367 450 l 656 991 l 733 991 l 403 383 l 403 0 l 333 0 l 333 378 l 0 991 l 77 991 l 367 450 z "},"Φ":{"ha":1059,"x_min":75,"x_max":985,"o":"m 564 1006 l 564 884 q 795 841 702 882 q 937 719 889 799 q 985 521 985 640 q 958 365 985 434 q 878 245 930 295 q 746 167 825 195 q 564 138 667 140 l 564 -14 l 495 -14 l 495 138 q 312 167 391 140 q 180 243 233 194 q 101 361 127 292 q 75 515 75 430 q 100 667 75 600 q 178 782 125 734 q 309 856 230 829 q 495 884 388 882 l 495 1006 l 564 1006 m 495 823 q 301 786 379 821 q 184 683 224 751 q 145 516 145 616 q 186 342 145 412 q 304 237 227 273 q 495 198 382 201 l 495 823 m 564 823 l 564 198 q 755 238 677 201 q 873 346 833 275 q 913 522 913 416 q 876 688 913 623 q 760 787 838 754 q 564 823 683 821 z "},"Χ":{"ha":747,"x_min":-1,"x_max":747,"o":"m 747 0 l 667 0 l 374 465 l 76 0 l -1 0 l 333 515 l 29 991 l 109 991 l 376 565 l 646 991 l 723 991 l 417 516 l 747 0 z "},"Ψ":{"ha":1061,"x_min":83,"x_max":964,"o":"m 964 991 l 964 664 q 940 506 964 572 q 864 395 915 439 q 737 330 813 351 q 557 307 661 308 l 557 0 l 489 0 l 489 307 q 308 330 385 308 q 182 395 232 351 q 108 506 132 439 q 83 664 83 573 l 83 991 l 153 991 l 153 667 q 188 496 153 562 q 297 401 223 431 q 489 368 372 370 l 489 991 l 557 991 l 557 368 q 749 401 675 370 q 858 496 823 431 q 893 667 893 562 l 893 991 l 964 991 z "},"Ω":{"ha":1076,"x_min":56,"x_max":1021,"o":"m 536 944 q 338 895 422 944 q 209 756 254 846 q 163 543 163 666 q 196 339 163 427 q 291 183 229 252 q 440 57 353 115 l 440 0 l 56 0 l 56 63 l 345 63 q 216 178 273 111 q 124 335 158 244 q 90 545 90 425 q 145 787 90 683 q 301 949 201 891 q 536 1007 401 1007 q 776 952 675 1007 q 931 793 877 897 q 986 545 986 690 q 954 334 986 425 q 864 177 921 243 q 732 63 806 111 l 1021 63 l 1021 0 l 635 0 l 635 57 q 790 184 729 115 q 882 342 852 254 q 913 543 913 430 q 867 759 913 669 q 738 897 822 849 q 536 944 653 944 z "},"Ϊ":{"ha":350,"x_min":2,"x_max":351,"o":"m 140 0 l 140 991 l 210 991 l 210 0 l 140 0 m 2 1198 q 13 1236 2 1221 q 46 1250 24 1250 q 81 1236 71 1250 q 92 1198 92 1221 q 81 1159 92 1173 q 46 1145 71 1145 q 13 1159 24 1145 q 2 1198 2 1173 m 260 1198 q 272 1236 260 1221 q 304 1250 283 1250 q 339 1236 328 1250 q 351 1198 351 1221 q 339 1159 351 1173 q 304 1145 328 1145 q 272 1159 283 1145 q 260 1198 260 1173 z "},"Ϋ":{"ha":733,"x_min":0,"x_max":733,"o":"m 367 450 l 656 991 l 733 991 l 403 383 l 403 0 l 333 0 l 333 378 l 0 991 l 77 991 l 367 450 m 192 1198 q 203 1236 192 1221 q 236 1250 214 1250 q 271 1236 260 1250 q 282 1198 282 1221 q 271 1159 282 1173 q 236 1145 260 1145 q 203 1159 214 1145 q 192 1198 192 1173 m 450 1198 q 461 1236 450 1221 q 494 1250 473 1250 q 529 1236 518 1250 q 541 1198 541 1221 q 529 1159 541 1173 q 494 1145 518 1145 q 461 1159 473 1145 q 450 1198 450 1173 z "},"ά":{"ha":820,"x_min":80,"x_max":811,"o":"m 393 46 q 529 83 477 46 q 605 190 581 120 q 629 360 629 260 l 629 382 q 573 617 629 544 q 399 691 517 691 q 214 607 278 691 q 151 366 151 522 q 210 127 151 209 q 393 46 270 46 m 385 -14 q 159 83 238 -14 q 80 366 80 180 q 164 652 80 552 q 396 751 248 751 q 543 716 485 751 q 631 612 602 681 l 635 612 q 647 677 637 645 q 669 737 656 710 l 726 737 q 710 667 717 707 q 701 579 704 627 q 697 472 697 530 l 697 165 q 714 71 697 96 q 763 45 731 45 q 789 47 776 45 q 811 53 802 50 l 811 -1 q 794 -7 804 -4 q 772 -12 784 -9 q 749 -14 760 -14 q 665 20 692 -14 q 633 134 639 54 l 628 134 q 578 60 610 94 q 500 6 547 26 q 385 -14 452 -14 m 371 842 l 371 854 q 392 914 381 881 q 412 982 403 947 q 429 1053 422 1018 q 441 1120 437 1088 l 515 1120 l 515 1106 q 491 1020 508 1068 q 455 926 475 972 q 416 842 435 879 l 371 842 z "},"έ":{"ha":629,"x_min":63,"x_max":578,"o":"m 459 419 l 459 360 l 369 360 q 240 343 293 360 q 160 290 187 326 q 132 199 132 254 q 157 116 132 151 q 231 64 182 82 q 349 45 279 45 q 472 59 416 45 q 577 93 528 73 l 577 31 q 480 0 538 13 q 346 -14 422 -14 q 133 45 202 -14 q 63 196 63 104 q 106 321 63 273 q 227 388 150 368 l 227 393 q 121 456 154 414 q 89 558 89 498 q 124 668 89 625 q 219 731 160 711 q 350 751 279 751 q 474 739 422 751 q 578 705 526 727 l 553 648 q 459 680 510 667 q 351 692 409 692 q 205 656 254 692 q 156 555 156 621 q 214 453 156 486 q 383 419 272 419 l 459 419 m 307 842 l 307 854 q 328 914 317 881 q 349 982 339 947 q 366 1053 358 1018 q 377 1120 373 1088 l 451 1120 l 451 1106 q 428 1020 444 1068 q 391 926 411 972 q 352 842 371 879 l 307 842 z "},"ή":{"ha":820,"x_min":122,"x_max":704,"o":"m 447 751 q 587 723 530 751 q 674 634 644 694 q 704 482 704 575 l 704 -334 l 636 -334 l 636 478 q 586 640 636 588 q 440 691 536 691 q 304 660 359 691 q 219 565 248 628 q 191 406 191 502 l 191 0 l 122 0 l 122 737 l 178 737 l 188 603 l 192 603 q 246 678 212 644 q 330 731 280 711 q 447 751 380 751 m 391 842 l 391 854 q 412 914 401 881 q 433 982 423 947 q 450 1053 442 1018 q 461 1120 457 1088 l 535 1120 l 535 1106 q 512 1020 528 1068 q 475 926 495 972 q 436 842 455 879 l 391 842 z "},"ί":{"ha":427,"x_min":113,"x_max":404,"o":"m 180 737 l 180 207 q 212 83 180 121 q 312 45 245 45 q 361 49 336 45 q 404 58 387 53 l 404 1 q 359 -9 387 -5 q 304 -14 332 -14 q 201 7 244 -14 q 135 75 158 28 q 113 200 113 122 l 113 737 l 180 737 m 117 842 l 117 854 q 138 914 127 881 q 158 982 149 947 q 175 1053 168 1018 q 186 1120 182 1088 l 260 1120 l 260 1106 q 237 1020 254 1068 q 200 926 220 972 q 161 842 180 879 l 117 842 z "},"ΰ":{"ha":826,"x_min":113,"x_max":738,"o":"m 408 -14 q 240 27 305 -14 q 144 143 175 67 q 113 327 113 220 l 113 737 l 180 737 l 180 332 q 239 117 180 188 q 414 45 298 45 q 604 135 540 45 q 667 408 667 224 q 657 576 667 496 q 625 737 648 657 l 695 737 q 719 631 709 684 q 733 523 728 578 q 738 406 738 467 q 655 91 738 195 q 408 -14 572 -14 m 515 1164 l 515 1152 q 489 1083 506 1121 q 452 1005 472 1044 q 413 934 433 966 l 374 934 l 374 946 q 400 1015 387 977 q 422 1092 412 1053 q 438 1164 433 1131 l 515 1164 m 265 996 q 300 981 290 996 q 311 943 311 967 q 300 905 311 919 q 265 890 290 890 q 232 905 243 890 q 221 943 221 919 q 232 981 221 967 q 265 996 243 996 m 557 996 q 592 981 581 996 q 603 943 603 967 q 592 905 603 919 q 557 890 581 890 q 524 905 534 890 q 513 943 513 919 q 524 981 513 967 q 557 996 534 996 z "},"α":{"ha":820,"x_min":80,"x_max":811,"o":"m 393 46 q 529 83 477 46 q 605 190 581 120 q 629 360 629 260 l 629 382 q 573 617 629 544 q 399 691 517 691 q 214 607 278 691 q 151 366 151 522 q 210 127 151 209 q 393 46 270 46 m 385 -14 q 159 83 238 -14 q 80 366 80 180 q 164 652 80 552 q 396 751 248 751 q 543 716 485 751 q 631 612 602 681 l 635 612 q 647 677 637 645 q 669 737 656 710 l 726 737 q 710 667 717 707 q 701 579 704 627 q 697 472 697 530 l 697 165 q 714 71 697 96 q 763 45 731 45 q 789 47 776 45 q 811 53 802 50 l 811 -1 q 794 -7 804 -4 q 772 -12 784 -9 q 749 -14 760 -14 q 665 20 692 -14 q 633 134 639 54 l 628 134 q 578 60 610 94 q 500 6 547 26 q 385 -14 452 -14 z "},"β":{"ha":844,"x_min":123,"x_max":776,"o":"m 443 1063 q 598 1033 532 1063 q 700 945 664 1003 q 736 804 736 888 q 686 643 736 707 q 543 562 635 579 l 543 558 q 715 476 654 543 q 776 287 776 410 q 736 130 776 196 q 623 27 696 63 q 445 -9 549 -9 q 310 8 371 -9 q 192 60 250 26 l 192 -334 l 123 -334 l 123 747 q 162 918 123 848 q 273 1026 201 989 q 443 1063 345 1063 m 442 1003 q 309 975 366 1003 q 222 888 253 946 q 192 742 192 830 l 192 124 q 308 70 248 89 q 441 51 367 51 q 638 115 570 51 q 707 290 707 178 q 677 418 707 366 q 589 498 648 471 q 439 526 530 526 l 360 526 l 360 586 l 433 586 q 604 641 544 586 q 665 802 665 696 q 607 950 665 897 q 442 1003 549 1003 z "},"γ":{"ha":667,"x_min":3,"x_max":652,"o":"m 652 737 l 385 43 q 344 -86 360 -20 q 319 -215 328 -152 q 311 -334 311 -279 l 238 -334 q 248 -219 238 -281 q 272 -94 257 -156 q 303 16 287 -33 l 3 737 l 75 737 l 274 256 q 297 198 286 227 q 318 140 309 168 q 335 87 328 113 l 339 87 q 355 139 346 111 q 375 197 364 168 q 395 253 385 227 l 580 737 l 652 737 z "},"δ":{"ha":807,"x_min":79,"x_max":727,"o":"m 435 1063 q 570 1045 507 1063 q 697 995 633 1027 l 667 940 q 554 987 610 970 q 433 1003 498 1003 q 309 967 351 1003 q 267 871 267 930 q 287 797 267 828 q 351 736 308 765 q 458 669 393 707 q 597 578 536 626 q 692 467 658 530 q 727 315 727 404 q 689 140 727 214 q 578 26 651 66 q 404 -14 506 -14 q 233 23 307 -14 q 119 129 160 60 q 79 294 79 197 q 113 447 79 379 q 214 564 146 515 q 380 644 281 614 q 280 709 321 677 q 218 780 239 741 q 197 872 197 819 q 264 1012 197 962 q 435 1063 331 1063 m 438 609 q 291 550 357 588 q 188 449 226 511 q 150 294 150 387 q 181 162 150 218 q 269 76 212 106 q 404 46 326 46 q 541 78 485 46 q 627 170 597 109 q 656 315 656 230 q 597 489 656 420 q 438 609 538 558 z "},"ε":{"ha":629,"x_min":63,"x_max":578,"o":"m 459 419 l 459 360 l 369 360 q 240 343 293 360 q 160 290 187 326 q 132 199 132 254 q 157 116 132 151 q 231 64 182 82 q 349 45 279 45 q 472 59 416 45 q 577 93 528 73 l 577 31 q 480 0 538 13 q 346 -14 422 -14 q 133 45 202 -14 q 63 196 63 104 q 106 321 63 273 q 227 388 150 368 l 227 393 q 121 456 154 414 q 89 558 89 498 q 124 668 89 625 q 219 731 160 711 q 350 751 279 751 q 474 739 422 751 q 578 705 526 727 l 553 648 q 459 680 510 667 q 351 692 409 692 q 205 656 254 692 q 156 555 156 621 q 214 453 156 486 q 383 419 272 419 l 459 419 z "},"ζ":{"ha":649,"x_min":80,"x_max":610,"o":"m 604 -87 q 582 -182 604 -137 q 526 -272 560 -228 l 454 -272 q 497 -211 478 -242 q 525 -152 515 -180 q 534 -100 535 -123 q 517 -45 533 -66 q 463 -11 501 -24 q 357 14 425 2 q 201 66 263 29 q 110 163 140 102 q 80 311 80 224 q 110 491 80 408 q 196 651 139 573 q 335 814 252 730 q 524 998 418 898 q 477 997 505 998 q 416 996 449 997 q 349 996 384 996 l 124 996 l 124 1055 l 610 1055 l 610 1002 q 387 785 476 879 q 247 614 298 691 q 173 465 195 536 q 151 315 151 393 q 178 188 151 237 q 261 112 206 139 q 400 70 317 85 q 513 40 467 58 q 581 -8 558 22 q 604 -87 604 -38 z "},"η":{"ha":820,"x_min":122,"x_max":704,"o":"m 447 751 q 587 723 530 751 q 674 634 644 694 q 704 482 704 575 l 704 -334 l 636 -334 l 636 478 q 586 640 636 588 q 440 691 536 691 q 304 660 359 691 q 219 565 248 628 q 191 406 191 502 l 191 0 l 122 0 l 122 737 l 178 737 l 188 603 l 192 603 q 246 678 212 644 q 330 731 280 711 q 447 751 380 751 z "},"θ":{"ha":792,"x_min":77,"x_max":715,"o":"m 715 538 q 680 232 715 355 q 573 48 644 109 q 394 -14 502 -14 q 157 124 237 -14 q 77 536 77 262 q 113 832 77 713 q 219 1011 148 951 q 395 1071 290 1071 q 634 937 554 1071 q 715 538 715 802 m 394 45 q 580 162 519 45 q 645 514 642 279 l 147 514 q 211 163 151 281 q 394 45 271 45 m 395 1012 q 213 903 274 1012 q 147 574 152 793 l 644 574 q 579 903 640 793 q 395 1012 518 1012 z "},"ι":{"ha":427,"x_min":113,"x_max":404,"o":"m 180 737 l 180 207 q 212 83 180 121 q 312 45 245 45 q 361 49 336 45 q 404 58 387 53 l 404 1 q 359 -9 387 -5 q 304 -14 332 -14 q 201 7 244 -14 q 135 75 158 28 q 113 200 113 122 l 113 737 l 180 737 z "},"κ":{"ha":672,"x_min":122,"x_max":672,"o":"m 646 737 l 363 416 l 672 0 l 591 0 l 315 372 l 194 247 l 194 0 l 122 0 l 122 737 l 194 737 l 194 541 q 193 421 194 479 q 189 313 192 364 l 189 313 q 225 355 210 336 q 260 395 241 374 l 561 737 l 646 737 z "},"λ":{"ha":699,"x_min":-8,"x_max":705,"o":"m -8 0 l 312 741 l 267 873 q 213 975 242 945 q 132 1004 184 1004 q 95 1001 111 1004 q 65 994 79 998 l 65 1053 q 87 1059 76 1057 q 113 1063 99 1061 q 143 1064 127 1064 q 229 1047 195 1064 q 287 990 262 1029 q 334 884 311 951 l 601 116 q 620 75 610 90 q 642 54 630 60 q 668 47 654 47 q 689 49 679 47 q 705 53 699 51 l 705 -1 q 690 -6 699 -4 q 673 -11 682 -9 q 651 -12 663 -12 q 602 -2 623 -12 q 567 30 582 9 q 541 85 553 52 l 393 513 q 379 554 386 534 q 366 593 372 574 q 353 630 359 612 q 344 664 348 648 l 340 664 q 316 594 330 630 q 288 522 302 557 l 65 0 l -8 0 z "},"μ":{"ha":828,"x_min":122,"x_max":705,"o":"m 705 737 l 705 0 l 648 0 l 637 119 l 633 119 q 584 51 614 81 q 509 4 554 21 q 395 -14 463 -14 q 267 12 317 -14 q 191 80 217 37 l 187 80 q 189 40 189 62 q 190 -7 189 18 q 190 -60 190 -32 l 190 -334 l 122 -334 l 122 737 l 190 737 l 190 260 q 241 100 190 153 q 397 46 292 46 q 539 79 487 46 q 614 176 591 113 q 637 331 637 240 l 637 737 l 705 737 z "},"ν":{"ha":713,"x_min":-1,"x_max":660,"o":"m -1 737 l 71 737 l 276 186 q 290 147 283 169 q 305 103 298 125 q 317 64 313 81 l 321 64 q 472 248 412 148 q 562 470 532 349 q 593 737 593 591 l 660 737 q 627 453 660 583 q 524 212 593 323 q 345 0 454 101 l 275 0 l -1 737 z "},"ξ":{"ha":637,"x_min":79,"x_max":600,"o":"m 79 290 q 108 416 79 363 q 186 504 137 469 q 295 553 235 538 l 295 557 q 203 594 241 569 q 145 660 165 619 q 125 756 125 700 q 155 877 125 828 q 236 955 185 925 q 346 1000 286 985 q 299 998 323 999 q 247 996 275 997 q 183 996 219 996 l 123 996 l 123 1055 l 578 1055 l 578 998 l 534 998 q 413 985 473 998 q 302 943 352 972 q 222 868 252 914 q 193 757 193 823 q 255 628 193 669 q 448 586 317 586 l 548 586 l 548 529 l 446 529 q 292 502 359 529 q 188 422 225 475 q 151 293 151 370 q 180 175 151 218 q 265 111 210 133 q 396 73 320 90 q 513 38 469 58 q 579 -12 558 18 q 600 -87 600 -41 q 578 -180 600 -134 q 526 -272 557 -227 l 456 -272 q 499 -206 481 -237 q 525 -148 516 -175 q 533 -99 533 -121 q 519 -48 533 -68 q 466 -13 505 -28 q 350 18 427 3 q 203 66 263 34 q 111 153 142 98 q 79 290 79 207 z "},"ο":{"ha":814,"x_min":80,"x_max":734,"o":"m 734 370 q 713 214 734 284 q 650 93 692 144 q 548 14 609 42 q 405 -14 486 -14 q 267 14 328 -14 q 165 92 207 41 q 102 213 123 143 q 80 370 80 283 q 120 574 80 488 q 234 706 159 660 q 412 751 308 751 q 590 703 519 751 q 698 568 662 654 q 734 370 734 482 m 151 370 q 178 200 151 273 q 263 87 206 127 q 406 46 319 46 q 552 87 495 46 q 636 201 609 127 q 663 370 663 274 q 637 535 663 463 q 556 649 612 608 q 411 691 500 691 q 217 606 283 691 q 151 370 151 520 z "},"π":{"ha":850,"x_min":17,"x_max":811,"o":"m 741 45 q 774 49 761 45 q 798 56 788 52 l 798 -2 q 769 -10 787 -6 q 725 -14 750 -14 q 627 25 661 -14 q 593 141 593 64 l 593 680 l 234 680 l 234 0 l 167 0 l 167 680 l 17 680 l 17 718 l 129 737 l 811 737 l 811 680 l 661 680 l 661 152 q 680 72 661 98 q 741 45 700 45 z "},"ρ":{"ha":810,"x_min":119,"x_max":731,"o":"m 731 371 q 694 162 731 248 q 587 31 657 76 q 415 -14 516 -14 q 286 6 343 -14 q 189 58 229 26 l 184 58 q 188 -18 186 21 q 189 -106 189 -57 l 189 -334 l 119 -334 l 119 390 q 155 590 119 509 q 259 711 190 670 q 427 751 328 751 q 593 708 525 751 q 696 581 661 665 q 731 371 731 496 m 425 690 q 245 612 302 690 q 189 382 189 533 l 189 124 q 290 67 232 87 q 416 46 349 46 q 598 128 536 46 q 661 371 661 210 q 605 609 661 528 q 425 690 549 690 z "},"ς":{"ha":661,"x_min":80,"x_max":611,"o":"m 428 751 q 527 742 480 751 q 611 718 574 733 l 593 659 q 513 681 555 673 q 425 690 471 690 q 219 606 288 690 q 151 365 151 522 q 173 222 151 280 q 251 129 196 165 q 401 73 306 93 q 514 41 470 60 q 579 -8 558 22 q 601 -86 601 -38 q 577 -186 601 -140 q 525 -272 553 -233 l 455 -272 q 497 -210 479 -240 q 525 -151 515 -180 q 534 -98 534 -123 q 518 -44 534 -65 q 464 -9 503 -24 q 357 18 425 5 q 236 58 288 31 q 150 128 184 85 q 98 229 115 170 q 80 364 80 288 q 121 577 80 491 q 241 707 163 663 q 428 751 319 751 z "},"σ":{"ha":815,"x_min":80,"x_max":782,"o":"m 728 347 q 690 158 728 239 q 578 32 652 77 q 399 -14 505 -14 q 225 31 296 -14 q 117 157 154 76 q 80 349 80 239 q 124 562 80 475 q 258 693 169 649 q 478 737 347 737 l 782 737 l 782 677 l 608 677 q 696 530 663 610 q 728 347 728 451 m 151 349 q 177 192 151 260 q 260 85 204 124 q 401 46 315 46 q 594 127 530 46 q 658 346 658 209 q 644 472 658 414 q 602 581 629 530 q 535 677 574 631 l 478 677 q 230 594 309 677 q 151 349 151 511 z "},"τ":{"ha":619,"x_min":14,"x_max":575,"o":"m 575 737 l 575 677 l 285 677 l 285 219 q 318 87 285 130 q 429 45 352 45 q 487 49 458 45 q 539 60 517 54 l 539 5 q 487 -8 519 -2 q 420 -14 455 -14 q 308 10 353 -14 q 238 83 262 34 q 215 210 215 133 l 215 677 l 14 677 l 14 718 l 115 737 l 575 737 z "},"υ":{"ha":826,"x_min":113,"x_max":738,"o":"m 408 -14 q 240 27 305 -14 q 144 143 175 67 q 113 327 113 220 l 113 737 l 180 737 l 180 332 q 239 117 180 188 q 414 45 298 45 q 604 135 540 45 q 667 408 667 224 q 657 576 667 496 q 625 737 648 657 l 695 737 q 719 631 709 684 q 733 523 728 578 q 738 406 738 467 q 655 91 738 195 q 408 -14 572 -14 z "},"φ":{"ha":942,"x_min":80,"x_max":862,"o":"m 221 747 l 275 711 q 183 561 217 640 q 149 375 149 482 q 181 198 149 270 q 277 88 214 126 q 431 45 340 50 l 431 509 q 479 689 431 626 q 622 751 526 751 q 752 708 699 751 q 834 584 806 664 q 862 395 862 504 q 817 183 862 273 q 691 42 772 93 q 499 -14 609 -8 l 499 -334 l 431 -334 l 431 -14 q 238 38 316 -8 q 120 169 160 84 q 80 375 80 254 q 119 581 80 491 q 221 747 158 671 m 623 692 q 528 645 557 692 q 498 510 498 598 l 498 45 q 654 93 589 50 q 756 212 720 136 q 792 393 792 289 q 772 553 792 486 q 713 656 751 620 q 623 692 675 692 z "},"χ":{"ha":714,"x_min":12,"x_max":701,"o":"m 94 747 q 149 733 127 747 q 188 693 172 720 q 220 628 205 667 l 355 288 l 587 737 l 661 737 l 388 221 l 532 -146 q 567 -222 551 -194 q 603 -262 583 -250 q 650 -274 622 -274 q 678 -272 665 -274 q 701 -268 691 -270 l 701 -323 q 674 -330 690 -327 q 639 -334 659 -334 q 564 -316 593 -334 q 513 -264 534 -299 q 472 -178 492 -230 l 341 159 l 85 -334 l 12 -334 l 308 228 l 161 599 q 123 667 142 646 q 75 688 103 688 q 49 686 61 688 q 26 679 37 683 l 26 736 q 54 744 37 741 q 94 747 71 747 z "},"ψ":{"ha":1002,"x_min":113,"x_max":911,"o":"m 535 1054 l 535 52 q 707 99 639 56 q 809 220 776 142 q 843 409 843 298 q 831 578 843 502 q 798 737 819 654 l 867 737 q 900 581 888 658 q 911 410 911 505 q 869 189 911 281 q 743 47 827 98 q 535 -9 660 -3 l 535 -334 l 468 -334 l 468 -9 q 272 39 351 -5 q 153 167 193 83 q 113 372 113 250 l 113 737 l 179 737 l 179 374 q 212 199 179 269 q 310 92 245 129 q 468 51 374 55 l 468 1054 l 535 1054 z "},"ω":{"ha":1019,"x_min":79,"x_max":940,"o":"m 853 737 q 900 615 881 676 q 930 490 920 555 q 940 353 940 426 q 916 169 940 252 q 838 36 891 85 q 696 -14 784 -14 q 575 22 620 -14 q 511 121 530 58 l 507 121 q 442 22 490 58 q 323 -14 394 -14 q 192 29 246 -14 q 108 153 137 71 q 79 353 79 235 q 90 491 79 427 q 119 615 100 555 q 166 737 138 675 l 236 737 q 171 551 193 642 q 149 353 149 460 q 195 122 149 199 q 328 46 242 46 q 411 70 378 46 q 460 140 444 94 q 477 249 477 185 l 477 473 l 543 473 l 543 249 q 560 137 543 182 q 609 69 576 92 q 690 46 642 46 q 790 82 751 46 q 850 186 830 117 q 871 353 871 254 q 849 551 871 460 q 783 737 827 643 l 853 737 z "},"ϊ":{"ha":427,"x_min":-16,"x_max":404,"o":"m 180 737 l 180 207 q 212 83 180 121 q 312 45 245 45 q 361 49 336 45 q 404 58 387 53 l 404 1 q 359 -9 387 -5 q 304 -14 332 -14 q 201 7 244 -14 q 135 75 158 28 q 113 200 113 122 l 113 737 l 180 737 m -16 943 q -4 981 -16 967 q 28 996 7 996 q 64 981 53 996 q 75 943 75 967 q 64 905 75 919 q 28 890 53 890 q -4 905 7 890 q -16 943 -16 919 m 243 943 q 254 981 243 967 q 287 996 265 996 q 322 981 311 996 q 333 943 333 967 q 322 905 333 919 q 287 890 311 890 q 254 905 265 890 q 243 943 243 919 z "},"ϋ":{"ha":826,"x_min":113,"x_max":738,"o":"m 408 -14 q 240 27 305 -14 q 144 143 175 67 q 113 327 113 220 l 113 737 l 180 737 l 180 332 q 239 117 180 188 q 414 45 298 45 q 604 135 540 45 q 667 408 667 224 q 657 576 667 496 q 625 737 648 657 l 695 737 q 719 631 709 684 q 733 523 728 578 q 738 406 738 467 q 655 91 738 195 q 408 -14 572 -14 m 236 943 q 247 981 236 967 q 280 996 258 996 q 315 981 304 996 q 326 943 326 967 q 315 905 326 919 q 280 890 304 890 q 247 905 258 890 q 236 943 236 919 m 494 943 q 506 981 494 967 q 538 996 517 996 q 573 981 562 996 q 585 943 585 967 q 573 905 585 919 q 538 890 562 890 q 506 905 517 890 q 494 943 494 919 z "},"ό":{"ha":814,"x_min":80,"x_max":734,"o":"m 734 370 q 713 214 734 284 q 650 93 692 144 q 548 14 609 42 q 405 -14 486 -14 q 267 14 328 -14 q 165 92 207 41 q 102 213 123 143 q 80 370 80 283 q 120 574 80 488 q 234 706 159 660 q 412 751 308 751 q 590 703 519 751 q 698 568 662 654 q 734 370 734 482 m 151 370 q 178 200 151 273 q 263 87 206 127 q 406 46 319 46 q 552 87 495 46 q 636 201 609 127 q 663 370 663 274 q 637 535 663 463 q 556 649 612 608 q 411 691 500 691 q 217 606 283 691 q 151 370 151 520 m 364 842 l 364 854 q 385 914 374 881 q 406 982 396 947 q 422 1053 415 1018 q 434 1120 430 1088 l 508 1120 l 508 1106 q 485 1020 501 1068 q 448 926 468 972 q 409 842 428 879 l 364 842 z "},"ύ":{"ha":826,"x_min":113,"x_max":738,"o":"m 408 -14 q 240 27 305 -14 q 144 143 175 67 q 113 327 113 220 l 113 737 l 180 737 l 180 332 q 239 117 180 188 q 414 45 298 45 q 604 135 540 45 q 667 408 667 224 q 657 576 667 496 q 625 737 648 657 l 695 737 q 719 631 709 684 q 733 523 728 578 q 738 406 738 467 q 655 91 738 195 q 408 -14 572 -14 m 368 842 l 368 854 q 389 914 378 881 q 410 982 400 947 q 427 1053 419 1018 q 438 1120 434 1088 l 512 1120 l 512 1106 q 489 1020 505 1068 q 452 926 472 972 q 413 842 432 879 l 368 842 z "},"ώ":{"ha":1019,"x_min":79,"x_max":940,"o":"m 853 737 q 900 615 881 676 q 930 490 920 555 q 940 353 940 426 q 916 169 940 252 q 838 36 891 85 q 696 -14 784 -14 q 575 22 620 -14 q 511 121 530 58 l 507 121 q 442 22 490 58 q 323 -14 394 -14 q 192 29 246 -14 q 108 153 137 71 q 79 353 79 235 q 90 491 79 427 q 119 615 100 555 q 166 737 138 675 l 236 737 q 171 551 193 642 q 149 353 149 460 q 195 122 149 199 q 328 46 242 46 q 411 70 378 46 q 460 140 444 94 q 477 249 477 185 l 477 473 l 543 473 l 543 249 q 560 137 543 182 q 609 69 576 92 q 690 46 642 46 q 790 82 751 46 q 850 186 830 117 q 871 353 871 254 q 849 551 871 460 q 783 737 827 643 l 853 737 m 467 842 l 467 854 q 488 914 477 881 q 509 982 499 947 q 526 1053 518 1018 q 537 1120 533 1088 l 611 1120 l 611 1106 q 588 1020 604 1068 q 551 926 571 972 q 512 842 531 879 l 467 842 z "},"Ё":{"ha":767,"x_min":140,"x_max":682,"o":"m 682 0 l 140 0 l 140 991 l 682 991 l 682 928 l 210 928 l 210 553 l 655 553 l 655 490 l 210 490 l 210 63 l 682 63 l 682 0 m 253 1198 q 264 1236 253 1221 q 297 1250 275 1250 q 332 1236 321 1250 q 343 1198 343 1221 q 332 1159 343 1173 q 297 1145 321 1145 q 264 1159 275 1145 q 253 1198 253 1173 m 511 1198 q 523 1236 511 1221 q 555 1250 534 1250 q 590 1236 579 1250 q 602 1198 602 1221 q 590 1159 602 1173 q 555 1145 579 1145 q 523 1159 534 1145 q 511 1198 511 1173 z "},"Ђ":{"ha":967,"x_min":7,"x_max":852,"o":"m 620 -14 q 564 -10 588 -14 q 525 -1 541 -7 l 525 62 q 568 53 545 56 q 619 50 591 50 q 705 71 669 50 q 763 136 742 93 q 783 241 783 179 l 783 344 q 737 488 783 442 q 584 533 691 533 l 304 533 l 304 0 l 235 0 l 235 928 l 7 928 l 7 991 l 654 991 l 654 928 l 304 928 l 304 596 l 595 596 q 788 535 724 596 q 852 351 852 474 l 852 244 q 789 55 852 123 q 620 -14 727 -14 z "},"Ѓ":{"ha":697,"x_min":140,"x_max":683,"o":"m 683 991 l 683 928 l 210 928 l 210 0 l 140 0 l 140 991 l 683 991 m 608 1318 l 608 1307 q 568 1258 591 1285 q 516 1201 544 1230 q 460 1145 488 1172 q 405 1096 431 1118 l 356 1096 l 356 1107 q 416 1172 383 1135 q 478 1249 448 1210 q 526 1318 507 1288 l 608 1318 z "},"Є":{"ha":863,"x_min":86,"x_max":826,"o":"m 564 943 q 401 915 473 943 q 277 833 329 886 q 196 707 226 781 q 161 543 166 633 l 690 543 l 690 481 l 159 481 q 186 301 161 381 q 260 165 212 222 q 380 79 309 109 q 547 49 452 49 q 685 60 623 49 q 800 89 747 71 l 800 28 q 686 -2 751 9 q 541 -14 622 -14 q 288 51 389 -14 q 136 230 186 115 q 86 498 86 345 q 118 703 86 610 q 211 864 150 795 q 362 969 273 932 q 564 1006 451 1006 q 705 992 641 1006 q 826 951 768 978 l 798 889 q 684 930 743 918 q 564 943 626 943 z "},"Ѕ":{"ha":758,"x_min":75,"x_max":686,"o":"m 686 256 q 641 107 686 167 q 519 17 596 47 q 346 -14 443 -14 q 236 -8 286 -14 q 148 7 187 -2 q 75 29 108 17 l 75 99 q 198 63 128 79 q 349 48 267 48 q 487 71 427 48 q 581 138 547 93 q 616 253 616 184 q 587 353 616 314 q 500 420 558 392 q 355 477 443 448 q 244 522 294 498 q 159 576 195 545 q 105 651 124 607 q 87 754 87 694 q 129 892 87 836 q 242 977 170 948 q 403 1006 313 1006 q 538 992 474 1006 q 662 953 602 979 l 637 892 q 518 930 578 918 q 400 943 458 943 q 276 922 330 943 q 189 860 221 901 q 157 755 157 819 q 187 650 157 690 q 271 584 216 610 q 400 532 326 557 q 552 470 488 503 q 651 387 616 437 q 686 256 686 336 z "},"І":{"ha":350,"x_min":140,"x_max":210,"o":"m 140 0 l 140 991 l 210 991 l 210 0 l 140 0 z "},"Ї":{"ha":350,"x_min":2,"x_max":351,"o":"m 140 0 l 140 991 l 210 991 l 210 0 l 140 0 m 2 1198 q 13 1236 2 1221 q 46 1250 24 1250 q 81 1236 71 1250 q 92 1198 92 1221 q 81 1159 92 1173 q 46 1145 71 1145 q 13 1159 24 1145 q 2 1198 2 1173 m 260 1198 q 272 1236 260 1221 q 304 1250 283 1250 q 339 1236 328 1250 q 351 1198 351 1221 q 339 1159 351 1173 q 304 1145 328 1145 q 272 1159 283 1145 q 260 1198 260 1173 z "},"Ј":{"ha":342,"x_min":-125,"x_max":210,"o":"m -18 -250 q -81 -245 -55 -250 q -125 -233 -108 -240 l -125 -169 q -78 -181 -106 -176 q -20 -186 -50 -186 q 71 -164 35 -186 q 123 -100 106 -142 q 140 6 140 -57 l 140 991 l 210 991 l 210 7 q 185 -129 210 -71 q 110 -218 160 -187 q -18 -250 60 -250 z "},"Љ":{"ha":1293,"x_min":-3,"x_max":1225,"o":"m 75 -16 q 32 -12 51 -16 q -3 -1 13 -7 l -3 60 q 30 50 13 54 q 70 45 47 45 q 146 82 117 45 q 193 182 175 119 q 225 323 211 245 q 253 486 239 401 q 277 658 266 571 q 299 829 289 745 q 319 991 310 914 l 726 991 l 726 556 l 878 556 q 1073 527 996 556 q 1187 438 1149 498 q 1225 286 1225 378 q 1142 74 1225 147 q 896 0 1059 0 l 657 0 l 657 928 l 378 928 q 365 810 372 873 q 349 683 357 748 q 332 552 341 617 q 312 425 322 487 q 291 307 302 362 q 249 138 273 211 q 184 25 224 66 q 75 -16 143 -16 m 726 62 l 884 62 q 1087 116 1021 62 q 1154 286 1154 170 q 1120 412 1154 366 q 1023 475 1087 457 q 868 494 960 494 l 726 494 l 726 62 z "},"Њ":{"ha":1330,"x_min":140,"x_max":1262,"o":"m 140 0 l 140 991 l 210 991 l 210 556 l 693 556 l 693 991 l 764 991 l 764 556 l 915 556 q 1109 527 1032 556 q 1224 438 1186 498 q 1262 286 1262 378 q 1179 74 1262 147 q 933 0 1096 0 l 693 0 l 693 493 l 210 493 l 210 0 l 140 0 m 764 62 l 921 62 q 1124 116 1058 62 q 1190 286 1190 170 q 1157 412 1190 366 q 1060 475 1124 457 q 905 494 996 494 l 764 494 l 764 62 z "},"Ћ":{"ha":969,"x_min":7,"x_max":853,"o":"m 671 991 l 671 928 l 304 928 l 304 595 l 610 595 q 793 538 733 595 q 853 353 853 480 l 853 0 l 784 0 l 784 345 q 742 489 784 445 q 600 532 700 532 l 304 532 l 304 0 l 235 0 l 235 928 l 7 928 l 7 991 l 671 991 z "},"Ќ":{"ha":794,"x_min":140,"x_max":789,"o":"m 789 0 l 700 0 l 210 505 l 210 0 l 140 0 l 140 991 l 210 991 l 210 511 l 686 991 l 774 991 l 296 510 l 789 0 m 623 1318 l 623 1307 q 583 1258 607 1285 q 532 1201 559 1230 q 475 1145 504 1172 q 420 1096 447 1118 l 372 1096 l 372 1107 q 431 1172 399 1135 q 493 1249 464 1210 q 542 1318 523 1288 l 623 1318 z "}}}
